<svg width="307" height="307" viewBox="0 0 307 307" fill="none" xmlns="http://www.w3.org/2000/svg">
<g clip-path="url(#clip0_1759_981)">
<g clip-path="url(#clip1_1759_981)">
<mask id="mask0_1759_981" style="mask-type:luminance" maskUnits="userSpaceOnUse" x="0" y="0" width="307" height="307">
<path d="M153.5 307C238.276 307 307 238.276 307 153.5C307 68.7243 238.276 0 153.5 0C68.7243 0 0 68.7243 0 153.5C0 238.276 68.7243 307 153.5 307Z" fill="white"/>
</mask>
<g mask="url(#mask0_1759_981)">
<path d="M0 0H307V307H0V0Z" fill="#6DA544"/>
<path d="M153.497 60.0801L280.314 153.499L153.497 246.918L26.6797 153.499L153.497 60.0801Z" fill="#FFDA44"/>
<path d="M104.457 132.514C101.474 139.376 100.001 146.799 100.14 154.28L197.277 184.141C201.556 178.028 204.498 171.081 205.911 163.754C181.567 124.599 134.138 115.605 104.517 132.574L104.457 132.514Z" fill="#EEEEEE"/>
<path d="M153.316 100.135C144.547 100.158 135.918 102.341 128.193 106.491C117.56 112.228 109.189 121.402 104.448 132.514C122.615 128.657 141.467 129.507 159.213 134.985C176.959 140.463 193.01 150.387 205.842 163.814C208.226 151.675 206.318 139.085 200.446 128.197C195.865 119.692 189.062 112.59 180.762 107.648C172.462 102.706 162.976 100.109 153.316 100.135ZM127.113 150.203C117.963 150.172 108.863 151.547 100.131 154.28C100.232 162.842 102.391 171.253 106.427 178.804C109.748 184.98 114.253 190.44 119.685 194.873C125.117 199.307 131.37 202.626 138.085 204.642C144.801 206.658 151.848 207.331 158.824 206.622C165.799 205.913 172.567 203.836 178.74 200.51C186.068 196.564 192.372 190.958 197.148 184.141C188.732 173.633 178.078 165.134 165.963 159.263C153.848 153.392 140.576 150.297 127.113 150.203Z" fill="#0052B4"/>
</g>
</g>
</g>
<defs>
<clipPath id="clip0_1759_981">
<rect width="307" height="307" rx="153.5" fill="white"/>
</clipPath>
<clipPath id="clip1_1759_981">
<rect width="307" height="307" fill="white"/>
</clipPath>
</defs>
</svg>
