<svg width="307" height="307" viewBox="0 0 307 307" fill="none" xmlns="http://www.w3.org/2000/svg">
<g clip-path="url(#clip0_1759_895)">
<g clip-path="url(#clip1_1759_895)">
<mask id="mask0_1759_895" style="mask-type:luminance" maskUnits="userSpaceOnUse" x="0" y="0" width="307" height="307">
<path d="M153.5 307C238.276 307 307 238.276 307 153.5C307 68.7243 238.276 0 153.5 0C68.7243 0 0 68.7243 0 153.5C0 238.276 68.7243 307 153.5 307Z" fill="white"/>
</mask>
<g mask="url(#mask0_1759_895)">
<path d="M0 76.75L153.5 57.5625L307 76.75V230.25L153.5 249.438L0 230.25V76.75Z" fill="#FFDA44"/>
<path d="M0 0H307V76.75H0V0ZM0 230.25H307V307H0V230.25Z" fill="#D80027"/>
<path d="M86.3457 182.281H76.752V134.312H86.3457V182.281ZM163.096 182.281H172.689V134.312H163.096V182.281Z" fill="#EEEEEE"/>
<path d="M124.717 196.672C140.612 196.672 153.498 188.081 153.498 177.484C153.498 166.887 140.612 158.297 124.717 158.297C108.821 158.297 95.9355 166.887 95.9355 177.484C95.9355 188.081 108.821 196.672 124.717 196.672Z" fill="#EEEEEE"/>
<path d="M86.3457 119.922C86.3457 117.273 84.1981 115.125 81.5488 115.125C78.8996 115.125 76.752 117.273 76.752 119.922V124.719C76.752 127.368 78.8996 129.516 81.5488 129.516C84.1981 129.516 86.3457 127.368 86.3457 124.719V119.922Z" fill="#D80027"/>
<path d="M172.686 119.922C172.686 117.273 170.538 115.125 167.889 115.125C165.239 115.125 163.092 117.273 163.092 119.922V124.719C163.092 127.368 165.239 129.516 167.889 129.516C170.538 129.516 172.686 127.368 172.686 124.719V119.922Z" fill="#D80027"/>
<path d="M124.719 163.094V177.485C124.719 181.301 126.235 184.962 128.934 187.66C131.632 190.359 135.293 191.875 139.109 191.875C142.926 191.875 146.586 190.359 149.285 187.66C151.984 184.962 153.5 181.301 153.5 177.485V163.094H139.109H124.719Z" fill="#D80027"/>
<path d="M86.3438 124.719H76.75C74.1008 124.719 71.9531 126.867 71.9531 129.516C71.9531 132.165 74.1008 134.313 76.75 134.313H86.3438C88.993 134.313 91.1406 132.165 91.1406 129.516C91.1406 126.867 88.993 124.719 86.3438 124.719Z" fill="#FF9811"/>
<path d="M172.688 124.719H163.094C160.445 124.719 158.297 126.867 158.297 129.516C158.297 132.165 160.445 134.313 163.094 134.313H172.688C175.337 134.313 177.484 132.165 177.484 129.516C177.484 126.867 175.337 124.719 172.688 124.719Z" fill="#FF9811"/>
<path d="M86.3438 182.281H76.75C74.1008 182.281 71.9531 184.429 71.9531 187.078C71.9531 189.727 74.1008 191.875 76.75 191.875H86.3438C88.993 191.875 91.1406 189.727 91.1406 187.078C91.1406 184.429 88.993 182.281 86.3438 182.281Z" fill="#FF9811"/>
<path d="M172.688 182.281H163.094C160.445 182.281 158.297 184.429 158.297 187.078C158.297 189.727 160.445 191.875 163.094 191.875H172.688C175.337 191.875 177.484 189.727 177.484 187.078C177.484 184.429 175.337 182.281 172.688 182.281Z" fill="#FF9811"/>
<path d="M95.9355 163.094V177.485C95.9355 182.281 98.334 185.879 101.332 188.877L104.33 185.28L107.328 191.276C109.298 191.758 111.355 191.758 113.324 191.276L116.322 185.28L119.32 188.877C122.918 185.879 124.717 182.281 124.717 177.485V163.094H119.32L116.322 167.891L113.324 163.094H107.328L104.33 167.891L101.332 163.094H95.9355Z" fill="#FF9811"/>
<path d="M73.1523 151.102H176.285ZM73.1523 165.492H89.9414ZM159.496 165.492H176.285Z" fill="black"/>
<path d="M73.1543 148.703C72.5182 148.703 71.9081 148.956 71.4583 149.406C71.0085 149.855 70.7559 150.465 70.7559 151.102C70.7559 151.738 71.0085 152.348 71.4583 152.798C71.9081 153.247 72.5182 153.5 73.1543 153.5H176.287C176.923 153.5 177.533 153.247 177.983 152.798C178.433 152.348 178.686 151.738 178.686 151.102C178.686 150.465 178.433 149.855 177.983 149.406C177.533 148.956 176.923 148.703 176.287 148.703H73.1543ZM73.1543 163.094C72.5182 163.094 71.9081 163.346 71.4583 163.796C71.0085 164.246 70.7559 164.856 70.7559 165.492C70.7559 166.128 71.0085 166.738 71.4583 167.188C71.9081 167.638 72.5182 167.891 73.1543 167.891H89.9434C90.5795 167.891 91.1895 167.638 91.6393 167.188C92.0891 166.738 92.3418 166.128 92.3418 165.492C92.3418 164.856 92.0891 164.246 91.6393 163.796C91.1895 163.346 90.5795 163.094 89.9434 163.094H73.1543ZM159.498 163.094C158.862 163.094 158.252 163.346 157.802 163.796C157.352 164.246 157.1 164.856 157.1 165.492C157.1 166.128 157.352 166.738 157.802 167.188C158.252 167.638 158.862 167.891 159.498 167.891H176.287C176.923 167.891 177.533 167.638 177.983 167.188C178.433 166.738 178.686 166.128 178.686 165.492C178.686 164.856 178.433 164.246 177.983 163.796C177.533 163.346 176.923 163.094 176.287 163.094H159.498Z" fill="#D80027"/>
<path d="M117.521 100.734C113.324 100.734 109.727 103.732 108.527 107.33L105.529 106.73C100.133 106.73 95.9355 110.928 95.9355 116.324C95.9355 121.721 100.133 125.918 105.529 125.918C109.727 125.918 113.324 123.52 114.523 119.322C116.272 119.953 118.167 120.062 119.976 119.636C121.786 119.211 123.433 118.268 124.717 116.924C126.001 118.268 127.648 119.211 129.457 119.636C131.267 120.062 133.161 119.953 134.91 119.322C135.492 121.138 136.602 122.74 138.098 123.922C139.594 125.105 141.409 125.814 143.31 125.961C145.212 126.107 147.114 125.683 148.773 124.744C150.433 123.804 151.775 122.391 152.627 120.686C153.48 118.98 153.805 117.059 153.561 115.168C153.317 113.276 152.515 111.5 151.257 110.067C149.999 108.634 148.343 107.608 146.499 107.12C144.655 106.633 142.708 106.706 140.906 107.33C140.328 105.776 139.357 104.397 138.087 103.33C136.817 102.263 135.292 101.544 133.661 101.242C132.031 100.94 130.349 101.066 128.782 101.607C127.214 102.149 125.813 103.088 124.717 104.332C122.918 101.934 120.52 100.734 117.521 100.734ZM117.521 105.531C120.52 105.531 122.318 107.93 122.318 110.328C122.318 113.326 120.52 115.125 117.521 115.125C115.123 115.125 112.725 113.326 112.725 110.328C112.725 107.93 115.123 105.531 117.521 105.531ZM131.912 105.531C134.91 105.531 136.709 107.93 136.709 110.328C136.709 113.326 134.91 115.125 131.912 115.125C129.514 115.125 127.115 113.326 127.115 110.328C127.115 107.93 129.514 105.531 131.912 105.531ZM105.529 111.527L107.928 112.127L110.326 116.924C110.326 119.322 107.928 121.121 105.529 121.121C103.131 121.121 100.732 119.322 100.732 116.324C100.732 113.926 103.131 111.527 105.529 111.527ZM143.904 111.527C146.902 111.527 148.701 113.926 148.701 116.324C148.701 119.322 146.902 121.121 143.904 121.121C141.506 121.121 139.107 119.322 139.107 116.924L141.506 112.127L143.904 111.527Z" fill="#EEEEEE"/>
<path d="M119.922 95.9375H129.516V115.125H119.922V95.9375Z" fill="#FF9811"/>
<path d="M124.719 134.312H153.5V163.094H124.719V134.312Z" fill="#EEEEEE"/>
<path d="M148.701 124.719L143.904 129.516H105.529L100.732 124.719C100.732 116.924 111.525 110.328 124.717 110.328C137.908 110.328 148.701 116.924 148.701 124.719ZM95.9355 134.312H124.717V163.094H95.9355V134.312Z" fill="#D80027"/>
<path d="M145.105 145.105C145.105 141.794 142.421 139.109 139.109 139.109C135.798 139.109 133.113 141.794 133.113 145.105V152.301C133.113 155.612 135.798 158.297 139.109 158.297C142.421 158.297 145.105 155.612 145.105 152.301V145.105Z" fill="#D80027"/>
<path d="M100.734 139.109V143.906H105.531V153.5H100.734V158.297H119.922V153.5H115.125V143.906H119.922V139.109H100.734ZM105.531 129.516H143.906V134.312H105.531V129.516Z" fill="#FF9811"/>
<path d="M111.527 124.719C113.514 124.719 115.125 123.108 115.125 121.121C115.125 119.134 113.514 117.523 111.527 117.523C109.54 117.523 107.93 119.134 107.93 121.121C107.93 123.108 109.54 124.719 111.527 124.719Z" fill="#FFDA44"/>
<path d="M124.719 124.719C126.706 124.719 128.316 123.108 128.316 121.121C128.316 119.134 126.706 117.523 124.719 117.523C122.732 117.523 121.121 119.134 121.121 121.121C121.121 123.108 122.732 124.719 124.719 124.719Z" fill="#FFDA44"/>
<path d="M137.91 124.719C139.897 124.719 141.508 123.108 141.508 121.121C141.508 119.134 139.897 117.523 137.91 117.523C135.923 117.523 134.312 119.134 134.312 121.121C134.312 123.108 135.923 124.719 137.91 124.719Z" fill="#FFDA44"/>
<path d="M101.334 163.094V188.877C103.125 190.121 105.175 190.941 107.33 191.276V163.094H101.334ZM113.326 163.094V191.276C115.481 190.941 117.531 190.121 119.322 188.877V163.094H113.326Z" fill="#D80027"/>
<path d="M124.719 172.688C130.017 172.688 134.312 168.392 134.312 163.094C134.312 157.795 130.017 153.5 124.719 153.5C119.42 153.5 115.125 157.795 115.125 163.094C115.125 168.392 119.42 172.688 124.719 172.688Z" fill="#338AF3"/>
<path d="M172.688 191.875H163.094C160.445 191.875 158.297 194.023 158.297 196.672C158.297 199.321 160.445 201.469 163.094 201.469H172.688C175.337 201.469 177.484 199.321 177.484 196.672C177.484 194.023 175.337 191.875 172.688 191.875Z" fill="#338AF3"/>
<path d="M86.3438 191.875H76.75C74.1008 191.875 71.9531 194.023 71.9531 196.672C71.9531 199.321 74.1008 201.469 76.75 201.469H86.3438C88.993 201.469 91.1406 199.321 91.1406 196.672C91.1406 194.023 88.993 191.875 86.3438 191.875Z" fill="#338AF3"/>
</g>
</g>
</g>
<defs>
<clipPath id="clip0_1759_895">
<rect width="307" height="307" rx="153.5" fill="white"/>
</clipPath>
<clipPath id="clip1_1759_895">
<rect width="307" height="307" fill="white"/>
</clipPath>
</defs>
</svg>
