<svg width="308" height="308" viewBox="0 0 308 308" fill="none" xmlns="http://www.w3.org/2000/svg">
<g clip-path="url(#clip0_1759_857)">
<g clip-path="url(#clip1_1759_857)">
<mask id="mask0_1759_857" style="mask-type:luminance" maskUnits="userSpaceOnUse" x="0" y="0" width="308" height="308">
<path d="M153.525 307.051C238.315 307.051 307.051 238.315 307.051 153.525C307.051 68.7357 238.315 0 153.525 0C68.7357 0 0 68.7357 0 153.525C0 238.315 68.7357 307.051 153.525 307.051Z" fill="white"/>
</mask>
<g mask="url(#mask0_1759_857)">
<path d="M153.525 0H307.051V38.3813L287.86 57.572L307.051 76.7627V115.144L287.86 134.335L307.051 153.525V191.907L287.86 211.097L307.051 230.288V268.669L153.525 287.86L0 268.669V230.288L19.1907 211.097L0 191.907V153.525L153.525 0Z" fill="#EEEEEE"/>
<path d="M134.335 38.3813H307.051V76.7627H134.335V38.3813ZM134.335 115.144H307.051V153.525H153.525L134.335 115.144ZM0 191.907H307.051V230.288H0V191.907ZM0 268.669H307.051V307.051H0V268.669Z" fill="#D80027"/>
<path d="M0 0H153.525V153.525H0V0Z" fill="#0052B4"/>
<path d="M112.146 145.729L146.33 121.141H104.35L138.533 145.729L125.34 105.549L112.146 145.729ZM63.5699 145.729L97.7533 121.141H55.7737L89.957 145.729L76.7635 105.549L63.5699 145.729ZM14.9935 145.729L49.1769 121.141H7.19727L41.3807 145.729L28.1871 105.549L14.9935 145.729ZM112.146 97.1527L146.33 72.5647H104.35L138.533 97.1527L125.34 56.9722L112.146 97.1527ZM63.5699 97.1527L97.7533 72.5647H55.7737L89.957 97.1527L76.7635 56.9722L63.5699 97.1527ZM14.9935 97.1527L49.1769 72.5647H7.19727L41.3807 97.1527L28.1871 56.9722L14.9935 97.1527ZM112.146 47.9766L146.33 23.3886H104.35L138.533 47.9766L125.34 7.79614L112.146 47.9766ZM63.5699 47.9766L97.7533 23.3886H55.7737L89.957 47.9766L76.7635 7.79614L63.5699 47.9766ZM14.9935 47.9766L49.1769 23.3886H7.19727L41.3807 47.9766L28.1871 7.79614L14.9935 47.9766Z" fill="#EEEEEE"/>
</g>
</g>
</g>
<defs>
<clipPath id="clip0_1759_857">
<rect width="307.051" height="307.051" rx="153.525" fill="white"/>
</clipPath>
<clipPath id="clip1_1759_857">
<rect width="307.051" height="307.051" fill="white"/>
</clipPath>
</defs>
</svg>
