<svg width="836" height="300" viewBox="0 0 836 300" fill="none" xmlns="http://www.w3.org/2000/svg">
<path d="M240.105 168.468C235.962 178.466 193.775 176.413 151.846 159.037C109.916 141.661 70.7024 119.153 74.8457 109.155C78.989 99.1568 138.768 93.2209 158.268 122.514C177.769 151.807 244.248 158.47 240.105 168.468Z" fill="#7357FF"/>
<path d="M92.9117 92.32C97.055 82.3219 141.104 66.4021 183.034 83.7783C224.963 101.154 258.969 149.421 254.826 159.419C250.682 169.417 190.598 174.059 171.098 144.766C151.597 115.472 88.7683 102.318 92.9117 92.32Z" fill="#A391FF"/>
<path d="M93.3016 129.176L87.3124 143.628C82.3708 155.553 84.2847 166.869 93.0542 177.578C102.099 188.401 116.793 198.027 137.137 206.458C157.755 215.003 174.952 218.592 188.725 217.225C202.774 215.973 212.269 209.384 217.211 197.46L223.2 183.008L246.705 192.749L270.211 202.49L264.409 216.489C259.092 229.319 249.502 238.079 235.64 242.769C221.777 247.459 205.417 248.461 186.558 245.775C167.699 243.089 147.96 237.473 127.341 228.929C106.723 220.384 88.7979 210.391 73.567 198.95C58.6111 187.623 48.0299 175.456 41.8235 162.449C35.6171 149.442 35.1723 136.524 40.4893 123.694L46.2908 109.694L93.3016 129.176Z" fill="#7357FF"/>
<path d="M98.3361 117.026L93.1052 129.649C88.7892 140.063 91.1744 150.243 100.261 160.187C109.622 170.246 124.474 179.49 144.818 187.921C165.437 196.465 182.475 200.437 195.932 199.835C209.664 199.346 218.687 193.895 223.003 183.48L228.234 170.858L251.74 180.599L275.003 190.5L270.178 202.567C265.534 213.772 256.515 221.156 243.12 224.719C229.724 228.282 213.712 228.443 195.083 225.202C176.454 221.962 156.83 216.069 136.211 207.525C115.592 198.98 97.5526 189.264 82.0921 178.378C66.9065 167.605 55.9768 156.279 49.3032 144.399C42.6295 132.52 41.6145 120.977 46.2583 109.771L52.0095 95.9985L98.3361 117.026Z" fill="#5B45CE"/>
<path d="M104.544 102.033L99.3132 114.656C94.9973 125.07 97.3824 135.25 106.469 145.194C115.83 155.252 130.682 164.497 151.026 172.928C171.645 181.472 188.683 185.444 202.14 184.841C215.872 184.353 224.895 178.902 229.211 168.487L234.442 155.865L257.948 165.606L281.006 175.999L276.386 187.573C271.742 198.779 262.723 206.163 249.328 209.726C235.932 213.289 219.92 213.45 201.291 210.209C182.662 206.969 163.038 201.076 142.419 192.531C121.8 183.987 103.761 174.271 88.3001 163.384C73.1145 152.612 62.1849 141.285 55.5112 129.406C48.8375 117.526 47.8226 105.984 52.4664 94.7782L58.0134 81.498L104.544 102.033Z" fill="#4835AB"/>
<path d="M98.1381 81.8106C105.109 84.6995 108.419 92.6927 105.53 99.6639C101.214 110.079 103.599 120.258 112.685 130.202C122.046 140.261 136.899 149.505 157.243 157.936C177.861 166.481 194.899 170.452 208.356 169.85C222.088 169.361 231.112 163.91 235.428 153.495C238.317 146.524 246.31 143.215 253.281 146.104L264.164 150.614L275.443 155.288C282.195 158.086 285.401 165.829 282.603 172.582C277.959 183.787 268.939 191.172 255.544 194.734C242.149 198.297 226.137 198.458 207.507 195.218C188.878 191.977 169.254 186.084 148.635 177.54C128.017 168.995 109.977 159.279 94.5165 148.393C79.3309 137.62 68.4013 126.294 61.7276 114.414C55.0539 102.535 54.039 90.9922 58.6828 79.7865C61.4812 73.0337 69.2239 69.8281 75.9767 72.6266L98.1381 81.8106Z" fill="#372982"/>
<path d="M89.3139 103.09C96.2851 105.979 104.278 102.67 107.167 95.6983C111.483 85.2837 120.37 79.7752 133.827 79.1731C147.558 78.6848 164.596 82.6561 184.94 91.0869C205.559 99.6315 220.411 108.876 229.498 118.82C238.859 128.879 241.381 139.115 237.065 149.53C234.176 156.501 237.486 164.494 244.457 167.383L255.34 171.893L266.618 176.567C273.371 179.366 281.114 176.16 283.912 169.407C288.556 158.202 287.404 146.602 280.455 134.609C273.506 122.615 262.302 111.175 246.841 100.288C231.381 89.4016 213.341 79.6859 192.723 71.1413C172.104 62.5966 152.48 56.704 133.851 53.4635C115.496 50.3369 99.759 50.612 86.6387 54.2886C73.5184 57.9652 64.6363 65.4063 59.9925 76.612C57.1941 83.3647 60.3997 91.1074 67.1525 93.9059L89.3139 103.09Z" fill="#372982"/>
<path d="M534.554 64.4966L534.544 165.3C534.544 179.622 538.26 190.409 545.694 197.661C553.308 204.913 563.823 208.539 577.239 208.539C590.836 208.539 601.351 204.913 608.784 197.661C616.398 190.409 620.205 179.622 620.205 165.3L620.215 64.4966H651.216L651.206 164.756C651.206 180.166 647.853 193.219 641.145 203.916C634.437 214.612 625.463 222.589 614.223 227.846C602.982 233.104 590.564 235.733 576.967 235.733C563.37 235.733 550.951 233.104 539.711 227.846C528.652 222.589 519.859 214.612 513.333 203.916C506.806 193.219 503.543 180.166 503.543 164.756L503.552 64.4966H534.554Z" fill="#372982"/>
<path d="M400.045 208.15L516.418 208.539L539.711 227.846L556.119 231.742L572.527 235.638L362.562 235.638V210.927L451.966 91.8137H362.562V64.3262H489.727V89.0372L400.045 208.15Z" fill="#372982"/>
<path d="M694.783 84.2806C700.15 77.2468 707.462 71.3236 716.717 66.5109C725.972 61.6983 736.43 59.292 748.092 59.292C761.419 59.292 773.543 62.6238 784.464 69.2874C795.57 75.766 804.27 84.9285 810.563 96.775C816.857 108.621 820.004 122.226 820.004 137.59C820.004 152.953 816.857 166.743 810.563 178.96C804.27 190.992 795.57 200.432 784.464 207.28C773.543 213.944 761.419 217.276 748.092 217.276C736.43 217.276 726.065 214.962 716.995 210.335C707.925 205.522 700.521 199.599 694.783 192.565V255.542H663.13V64.4966H694.783V84.2806ZM787.796 137.59C787.796 127.039 785.575 117.969 781.132 110.38C776.875 102.606 771.137 96.775 763.918 92.8878C756.884 88.8156 749.295 86.7795 741.15 86.7795C733.191 86.7795 725.602 88.8156 718.383 92.8878C711.349 96.9601 705.611 102.883 701.169 110.658C696.911 118.432 694.783 127.594 694.783 138.145C694.783 148.696 696.911 157.951 701.169 165.91C705.611 173.685 711.349 179.608 718.383 183.68C725.602 187.752 733.191 189.788 741.15 189.788C749.295 189.788 756.884 187.752 763.918 183.68C771.137 179.423 776.875 173.314 781.132 165.355C785.575 157.396 787.796 148.141 787.796 137.59Z" fill="#372982"/>
<path d="M254.234 93.4157C255.987 90.3781 256.461 86.7685 255.553 83.3811C254.645 79.9936 252.428 77.1057 249.39 75.3527C246.353 73.5997 242.743 73.1251 239.356 74.0335C235.968 74.9418 233.08 77.1586 231.327 80.1963L192.655 146.301M220.757 58.8283C217.719 57.0753 214.11 56.6008 210.722 57.5091C207.335 58.4175 204.447 60.6343 202.694 63.6719L171.361 117.072M224.717 91.6496L196.084 75.1253M214.803 108.83L186.169 92.3053M205.981 123.597L177.347 107.073" stroke="url(#paint0_linear_1730_25)" stroke-width="6.61189" stroke-linecap="round" stroke-linejoin="round"/>
<defs>
<linearGradient id="paint0_linear_1730_25" x1="235.074" y1="67.0905" x2="199.347" y2="131.073" gradientUnits="userSpaceOnUse">
<stop offset="0.61941" stop-color="#7357FF"/>
<stop offset="1" stop-color="#453499" stop-opacity="0"/>
</linearGradient>
</defs>
</svg>
