<svg width="1695" height="1695" viewBox="0 0 1695 1695" fill="none" xmlns="http://www.w3.org/2000/svg">
<path d="M616.799 243.538H410.062C318.093 243.538 243.538 318.093 243.538 410.062V616.799C243.538 708.768 318.093 783.323 410.062 783.323H616.799C708.768 783.323 783.323 708.768 783.323 616.799V410.062C783.323 318.093 708.768 243.538 616.799 243.538Z" fill="#007AFF"/>
<path d="M1270.87 243.538H1064.13C972.165 243.538 897.61 318.093 897.61 410.062V616.799C897.61 708.768 972.165 783.323 1064.13 783.323H1270.87C1362.84 783.323 1437.4 708.768 1437.4 616.799V410.062C1437.4 318.093 1362.84 243.538 1270.87 243.538Z" fill="#FF3B30"/>
<path d="M616.799 897.61H410.062C318.093 897.61 243.538 972.165 243.538 1064.13V1270.87C243.538 1362.84 318.093 1437.4 410.062 1437.4H616.799C708.768 1437.4 783.323 1362.84 783.323 1270.87V1064.13C783.323 972.165 708.768 897.61 616.799 897.61Z" fill="#FFCC00"/>
<path d="M1270.87 897.61H1064.13C972.165 897.61 897.61 972.165 897.61 1064.13V1270.87C897.61 1362.84 972.165 1437.4 1064.13 1437.4H1270.87C1362.84 1437.4 1437.4 1362.84 1437.4 1270.87V1064.13C1437.4 972.165 1362.84 897.61 1270.87 897.61Z" fill="#34C759"/>
</svg>
