<svg width="1819" height="1695" viewBox="0 0 1819 1695" fill="none" xmlns="http://www.w3.org/2000/svg">
<path d="M910 1452C1244.13 1452 1515 1181.13 1515 847C1515 512.868 1244.13 242 910 242C575.868 242 305 512.868 305 847C305 1181.13 575.868 1452 910 1452Z" fill="#084EFC"/>
<path d="M1263.93 1152.53C1142.93 1138.91 1035.54 1111.69 947.816 1064.8C928.154 1054.21 925.129 1026.99 943.279 1014.89C1027.98 948.34 1076.38 863.64 1076.38 763.815C1076.38 682.14 1031 617.102 908.491 617.102C785.979 617.102 740.604 682.14 740.604 763.815C740.604 863.64 790.516 948.34 873.704 1014.89C890.341 1028.5 888.829 1055.73 869.166 1064.8C782.954 1110.18 675.566 1138.91 553.054 1152.53C478.941 1160.09 427.517 1081.44 465.329 1016.4L831.354 388.715C866.141 328.215 953.867 328.215 988.654 388.715L1353.17 1016.4C1389.47 1081.44 1338.04 1160.09 1263.93 1152.53ZM934.204 898.427C935.716 886.327 940.254 857.59 961.429 837.927C984.117 818.265 1015.88 815.24 1031 813.727C1034.03 813.727 1037.05 816.752 1037.05 819.777C1035.54 831.877 1031 860.615 1009.83 880.277C987.141 899.94 955.379 902.965 940.254 904.477C937.229 905.99 934.204 902.965 934.204 898.427ZM885.804 898.427C885.804 901.452 882.779 904.477 879.754 904.477C866.141 904.477 832.866 899.94 810.179 880.277C789.004 860.615 784.466 833.39 782.954 819.777C782.954 816.752 785.979 813.727 789.004 813.727C802.616 813.727 835.891 818.265 858.579 837.927C879.754 857.59 884.291 886.327 885.804 898.427Z" fill="white"/>
</svg>
