<svg width="1819" height="1695" viewBox="0 0 1819 1695" fill="none" xmlns="http://www.w3.org/2000/svg">
<g clip-path="url(#clip0_1762_1007)">
<path d="M305 847C305 512.868 575.868 242 910 242C1244.13 242 1515 512.868 1515 847C1515 1181.13 1244.13 1452 910 1452C575.868 1452 305 1181.13 305 847Z" fill="#1F0252"/>
<path d="M914.633 428.841C928.009 508.578 944.174 587.89 958.684 667.485C952.965 671.219 945.686 674.338 941.338 679.679C935.95 687.526 937.226 696.128 936.848 705.156C937.32 776.669 936.611 848.134 937.226 919.647C976.882 902.537 1001.13 866.662 1001.55 823.32C1001.93 735.028 1001.65 646.546 1001.65 558.207C1022.02 594.743 1042.11 631.421 1062.72 667.816C1054.73 673.157 1045.75 675.851 1042.06 685.493C1026.94 732.428 1038.28 778.937 1063.19 820.011C1057.61 824.36 1048.3 828.046 1046.88 835.562C1042.25 852.483 1040.88 869.356 1033.79 885.71C1021.36 914.921 1000.75 941.436 972.297 956.42C962.04 962.47 948.097 967.527 942.283 978.493C934.437 991.349 937.509 1010.59 936.8 1025.24C993.566 1032.56 1046.41 1055.25 1087.86 1095.19C1135.55 1095.14 1183.2 1094.91 1230.89 1095.29C1191.8 1015.22 1153.75 934.583 1114.66 854.515C1107.43 841.233 1109.56 828.424 1109.23 813.914C1109.6 785.176 1108.99 756.486 1109.65 727.796C1176.67 867.229 1243.7 1006.71 1310.96 1146C1229.8 1146.1 1148.6 1146.1 1067.44 1146C1052.18 1130.03 1036.15 1115.23 1016.96 1103.98C962.844 1071.18 894.025 1065.51 835.085 1088.39C802.85 1100.34 775.766 1120.95 752.559 1146C671.404 1146.1 590.249 1146.1 509.094 1146C576.258 1006.52 643.612 867.135 710.351 727.418C710.823 762.631 710.729 797.891 710.634 833.104C711.012 846.244 704.49 855.791 699.196 867.277C662.14 943.091 626.265 1019.57 589.067 1095.33C636.758 1094.91 684.449 1095.14 732.14 1095.19C775.577 1053.46 832.296 1029.49 892.182 1024.77C891.614 1010.3 894.45 991.585 886.557 978.965C879.893 966.771 865.382 961.95 853.991 955.049C826.766 940.019 807.009 914.117 795.004 885.852C787.961 869.546 786.354 852.908 781.911 835.94C780.635 827.526 771.465 824.596 765.368 820.011C790.041 779.268 801.763 733.751 787.299 687.053C783.896 675.756 774.821 673.535 765.888 667.816C786.685 631.752 806.395 595.121 826.766 558.821C826.388 643.899 826.766 728.93 826.577 813.961C826.293 838.539 831.682 862.361 845.578 882.874C856.827 900.457 873.464 910.856 891.851 919.742C892.276 848.229 891.709 776.669 892.134 705.156C891.756 696.222 892.796 687.998 887.739 680.199C883.343 674.622 875.828 671.408 870.061 667.485C884.903 587.937 900.075 508.436 914.633 428.841Z" fill="#FDFEFC"/>
</g>
<defs>
<clipPath id="clip0_1762_1007">
<rect width="1210" height="1210" fill="white" transform="translate(305 242)"/>
</clipPath>
</defs>
</svg>
