<svg width="1819" height="1695" viewBox="0 0 1819 1695" fill="none" xmlns="http://www.w3.org/2000/svg">
<circle cx="910" cy="847" r="600" fill="#101417"/>
<g clip-path="url(#clip0_1762_1166)">
<path d="M1224.06 880.929L1192.61 806.056H1118.43V872.268L1158.37 855.498L1184.24 917.121L1146.66 924.497L1170.69 981.66C1170.69 981.66 1247.61 937.022 1224.06 880.972V880.929Z" fill="#1AECDE"/>
<path d="M1216.51 765.402C1216.51 765.402 1205.1 677.235 1144.26 677.235H1062.28L1015.34 774.579L1004.23 797.607H943.825V774.579H989.816L1021.43 708.925L935.674 615.998H1015.86L1043.27 663.641L1095.48 555.361L1006.03 524.1L921.301 507.204C897.32 447.854 839.145 406 771.146 406C753.428 406 736.396 408.873 720.437 414.105V424.268C724.856 423.754 729.36 423.496 733.951 423.496C791.782 423.496 840.046 464.407 851.329 518.868V519.04H767.543C767.543 519.04 791.696 568.398 820.869 568.398H851.329V888.52L817.652 956.19L791.31 942.25C779.598 936.078 770.632 925.657 766.213 913.179L717.477 774.536C717.477 774.536 650.55 855.326 687.917 925.657C687.917 925.657 621.892 926.515 588 1032.48L727.945 993.668C744.29 989.165 761.794 992.723 775.008 1003.32L788.736 1014.29L758.448 1075.06L755.316 1081.36C746.564 1100.02 741.673 1120.82 741.673 1142.77C741.673 1222.88 806.798 1287.85 887.066 1287.54C964.375 1287.29 1028.6 1225.15 1031.3 1147.92C1032.72 1106.11 1016.41 1067.98 989.259 1040.71L927.909 1102.03C941.894 1109.24 951.504 1123.82 951.504 1140.63C951.504 1165.29 930.911 1185.14 905.943 1183.98C883.806 1182.95 865.658 1164.73 864.672 1142.64C864.5 1138.91 864.843 1135.27 865.53 1131.84L1071.07 926.343C1086.64 910.776 1095.44 889.633 1095.44 867.592V727.879H1162.28L1154.51 765.402H1216.55H1216.51Z" fill="#1AECDE"/>
</g>
<defs>
<clipPath id="clip0_1762_1166">
<rect width="643" height="881.784" fill="white" transform="translate(588 406)"/>
</clipPath>
</defs>
</svg>
