<svg width="1819" height="1695" viewBox="0 0 1819 1695" fill="none" xmlns="http://www.w3.org/2000/svg">
<g clip-path="url(#clip0_1762_916)">
<path d="M305 847C305 512.868 575.868 242 910 242C1244.13 242 1515 512.868 1515 847C1515 1181.13 1244.13 1452 910 1452C575.868 1452 305 1181.13 305 847Z" fill="#022D33"/>
<path d="M879.904 490.062C916.667 486.153 953.993 497.245 982.27 521.085C997.094 532.635 1007.45 547.46 1018.79 562.144C1027.34 573.201 1038.58 579.363 1050.2 586.582C1044.91 598.836 1038.15 608.133 1023.89 609.753C999.031 612.077 971.389 599.541 949.028 589.716C933.534 582.955 915.892 580.314 900.117 587.744C890.222 592.568 884.341 603.942 878.707 612.922C876.981 615.563 875.221 618.204 873.46 620.845C869.164 619.964 864.868 619.119 860.607 618.309C853.036 623.028 845.324 627.183 837.19 630.845C835.641 626.232 834.126 621.619 832.577 617.006C828.351 616.725 824.091 616.443 819.83 616.161C817.928 623.169 815.182 630.317 815.921 637.642C816.449 650.459 821.414 660.389 815.921 672.679C799.16 630.493 809.935 576.441 845.289 546.896C861.487 533.128 879.798 529.254 899.131 522.001C884.13 508.479 867.438 504.182 847.895 501.365C858.142 496.647 868.601 491.4 879.904 490.062Z" fill="#5CCCAA"/>
<path d="M962.414 548.309C977.38 549.893 983.049 552.464 993.191 563.169C980.338 560.88 967.062 563.732 962.414 548.309Z" fill="#09563C"/>
<path d="M878.702 612.924C878.561 627.502 878.174 644.158 884.512 657.645C893.985 677.259 908.246 691.415 923.599 706.416C902.858 711.592 895.534 684.548 876.871 685.675C869.546 685.745 867.539 692.788 863.595 697.788C857.222 694.478 850.813 691.168 844.369 687.893C839.228 692.788 834.051 697.647 828.91 702.542C823.17 693.211 819.226 683.104 815.916 672.681C821.41 660.392 816.445 650.461 815.916 637.644C815.177 630.319 817.924 623.171 819.825 616.163C824.086 616.445 828.347 616.727 832.572 617.009C834.122 621.622 835.636 626.235 837.185 630.848C845.32 627.185 853.031 623.03 860.602 618.312C864.863 619.121 869.159 619.967 873.455 620.847C875.216 618.206 876.977 615.565 878.702 612.924Z" fill="#4FC5A3"/>
<path d="M1161.79 693.775C1176.34 708.106 1183.91 725.608 1193.42 743.214C1200.85 757.124 1212.22 766.138 1223.84 776.28C1219.26 782.266 1216.41 788.252 1208.7 790.647C1187.99 797.267 1165.46 789.626 1148.06 777.864C1131.09 766.561 1114.71 754.166 1093.59 752.088C1080.1 751.349 1068.55 759.87 1063.34 772.019C1056.72 786.069 1060.48 800.225 1064.18 814.451C1061.65 814.064 1059.11 813.676 1056.58 813.289C1054.82 807.092 1053.37 800.295 1050.2 794.626C1046.19 790.823 1037.49 792.055 1032.28 792.196C1030.13 792.408 1027.98 792.654 1025.87 792.901C1019.25 781.386 1010.94 770.575 1005.2 758.638C1003.02 754.025 1002.03 749.658 1003.83 744.693C1010.38 726.277 1025.69 710.853 1043.41 702.824C1060.06 695.324 1080.17 695.148 1098.13 693.246C1083.41 676.943 1065.91 669.09 1045.24 662.822C1085.31 646.589 1133.27 663.104 1161.79 693.775Z" fill="#3FBA9E"/>
<path d="M705.912 684.901C741.126 692.436 767.465 714.938 788.699 743.003C798.77 756.842 812.961 763.145 828.244 769.624C824.934 784.625 816.623 792.654 801.587 795.577C770.846 799.662 738.273 784.273 710.208 775.47C689.89 769.695 666.684 778.463 661.649 800.331C656.719 826.494 677.424 850.193 700.384 859.384C738.801 872.941 774.05 868.75 813.067 871.215C796.869 873.927 780.459 873.927 764.261 876.075C745.492 878.012 732.815 897.168 715.701 906.182C723.167 914.211 731.336 917.873 741.583 921.183C738.062 923.437 734.576 925.761 731.055 928.05C691.017 923.683 652.458 908.788 625.977 877.378C592.243 840.967 590.095 775.576 626.506 740.151C640.943 725.22 658.585 720.502 676.967 712.367C661.86 701.451 645.239 697.542 627.316 693.739C651.014 679.9 679.713 680.217 705.912 684.901Z" fill="#59CCA7"/>
<path d="M876.883 685.673C895.546 684.546 902.87 711.59 923.611 706.414C954.388 730.676 983.615 754.515 1004.6 788.25C1002.7 791.983 1000.76 795.715 998.862 799.413C993.51 790.715 988.685 779.834 980.833 773.179C971.536 769.305 960.55 768.918 952.31 762.72C944.88 757.473 939.703 749.656 932.59 744.198C924.033 744.867 916.744 745.677 908.293 742.824C899.278 739.726 891.531 741.345 882.693 743.775C882.939 745.853 883.186 747.93 883.432 750.043C881.073 751.733 878.714 753.459 876.319 755.184C858.642 739.092 841.775 722.894 828.922 702.54C834.063 697.646 839.239 692.786 844.381 687.891C850.825 691.166 857.233 694.476 863.607 697.786C867.551 692.786 869.558 685.743 876.883 685.673Z" fill="#41BCA0"/>
<path d="M1150.66 732.506C1161.58 733.844 1165.84 735.534 1173.2 743.774C1162.35 742.542 1157.6 741.098 1150.66 732.506Z" fill="#035A47"/>
<path d="M908.286 742.825C916.738 745.678 924.027 744.868 932.584 744.199C939.697 749.657 944.873 757.474 952.303 762.721C960.543 768.919 971.53 769.306 980.826 773.18C988.679 779.835 993.503 790.716 998.855 799.414C1000.76 795.716 1002.69 791.984 1004.6 788.251C1025.76 820.612 1040.34 856.988 1041.96 895.934C1034.21 884.877 1032.34 872.834 1028.51 860.298C1023.79 855.896 1018.96 861.143 1014.35 862.974C1007.66 853.466 1002.27 839.979 989.172 838.571C983.397 837.233 979.664 840.437 974.769 842.797C975.192 836.423 976.424 829.31 974.91 823.007C970.649 815.436 961.67 812.724 954.029 809.872C948.676 825.084 959.311 835.402 958.184 851.001C948.254 835.226 938.922 819.626 926.809 805.435C911.561 787.476 893.391 771.419 876.312 755.185C878.707 753.46 881.066 751.734 883.426 750.044C883.179 747.931 882.933 745.854 882.686 743.776C891.525 741.347 899.272 739.727 908.286 742.825Z" fill="#34B699"/>
<path d="M738.387 739.654C748.599 740.781 756.768 744.725 765.043 750.641C754.761 751.099 739.549 754.409 738.387 739.654Z" fill="#0A6046"/>
<path d="M1032.27 792.198C1037.49 792.057 1046.18 790.825 1050.2 794.628C1053.37 800.297 1054.81 807.093 1056.57 813.291C1059.11 813.678 1061.64 814.066 1064.18 814.453C1075.38 852.202 1076.85 892.486 1066.89 930.693C1056.43 966.822 1038.19 1000.27 1010.12 1025.77C1020.16 1001.44 1041.11 987.069 1048.68 961.504C1053.19 949.18 1053.97 943.369 1047.8 931.538C1050.55 917.135 1053.33 902.451 1054.04 887.767C1054.49 853.223 1042.63 822.482 1025.87 792.902C1027.98 792.656 1030.13 792.409 1032.27 792.198Z" fill="#27A38C"/>
<path d="M954.039 809.871C961.68 812.723 970.66 815.435 974.92 823.006C976.435 829.309 975.202 836.422 974.78 842.796C979.674 840.436 983.407 837.232 989.182 838.57C1002.28 839.979 1007.67 853.465 1014.36 862.973C1018.97 861.142 1023.8 855.895 1028.52 860.297C1032.35 872.833 1034.22 884.876 1041.97 895.933C1042.78 903.574 1043.27 911.251 1043.34 918.927C1032.74 913.716 1022.56 908.117 1013.27 900.757C1010.06 903.785 1006.93 908.187 1002.88 909.983C995.098 910.476 986.752 903.75 979.815 900.722C976.575 904.595 973.512 908.645 970.448 912.659C970.343 890.827 962.279 871.952 958.194 851C959.321 835.401 948.686 825.083 954.039 809.871Z" fill="#26AE94"/>
<path d="M1154.85 855.545C1168.94 877.025 1174.64 901.851 1178.94 926.852C1185.03 964.143 1181.26 1000.73 1169.15 1036.4C1170.42 1012.28 1176.44 989.356 1175.91 965.235C1175.17 945.903 1176.65 928.437 1165.8 911.464C1160.8 930.902 1164.43 947.699 1154.22 965.235C1161.9 928.507 1159.68 892.449 1154.85 855.545Z" fill="#3DA192"/>
<path d="M813.072 871.215C855.892 872.306 902.198 890.512 923.819 929.634C907.48 926.43 902.867 914.14 891.176 904.703C877.231 895.583 857.864 900.442 842.299 901.393C840.539 896.463 838.743 891.533 837.017 886.603C822.298 883.856 807.579 881.462 792.613 880.511C795.325 885.723 798.247 890.829 801.276 895.899C792.543 902.59 783.599 908.999 774.514 915.161C780.289 915.549 786.099 915.901 791.874 916.288C787.789 917.978 783.704 919.633 779.62 921.359C795.994 920.725 809.128 920.936 823.496 929.74C820.96 931.465 818.46 933.155 815.925 934.881C787.719 929.071 759.337 931.782 731.06 928.049C734.581 925.761 738.068 923.436 741.589 921.183C731.342 917.873 723.172 914.21 715.707 906.182C732.821 897.167 745.498 878.011 764.266 876.074C780.465 873.926 796.874 873.926 813.072 871.215Z" fill="#43BD9F"/>
<path d="M792.611 880.512C807.577 881.462 822.296 883.857 837.016 886.604C838.741 891.534 840.537 896.463 842.298 901.393C857.862 900.443 877.229 895.583 891.174 904.703C902.865 914.141 907.478 926.43 923.817 929.635C931.141 941.008 935.191 953.756 937.48 967.031C933.853 967.066 930.226 967.172 926.599 967.313C924.099 973.687 922.091 980.307 919.979 986.821C914.978 981.222 910.013 975.623 905.048 969.989C901.245 973.264 897.442 976.574 893.639 979.849C874.483 955.094 846.523 940.128 815.923 934.881C818.458 933.156 820.958 931.466 823.494 929.74C809.127 920.937 795.992 920.725 779.618 921.359C783.702 919.634 787.787 917.979 791.872 916.289C786.097 915.901 780.287 915.549 774.512 915.162C783.597 908.999 792.541 902.591 801.274 895.9C798.246 890.829 795.323 885.723 792.611 880.512Z" fill="#36B89B"/>
<path d="M979.81 900.721C986.747 903.749 995.092 910.475 1002.87 909.982C1006.92 908.186 1010.06 903.784 1013.26 900.756C1022.56 908.116 1032.74 913.715 1043.33 918.926C1043.33 927.413 1043.09 935.864 1043.02 944.35C1044.67 940.089 1046.29 935.864 1047.81 931.533C1053.97 943.364 1053.19 949.174 1048.69 961.499C1041.12 987.064 1020.16 1001.43 1010.13 1025.76C998.438 1038.83 983.965 1048.23 968.471 1056.22C956.886 1054.15 945.265 1052.42 933.61 1050.73C934.631 1054.15 935.687 1057.56 936.708 1060.94C929.807 1062.7 922.517 1064.99 915.404 1065.17C906.988 1064.99 898.15 1061.44 890.227 1058.72C900.262 1054.81 911.179 1053.37 920.933 1048.93C940.23 1037.21 952.202 1017.98 956.78 996.079C965.971 968.612 972.274 941.885 970.443 912.658C973.506 908.644 976.57 904.594 979.81 900.721Z" fill="#16A58D"/>
<path d="M1165.81 911.467C1176.66 928.44 1175.18 945.906 1175.92 965.238C1176.44 989.359 1170.42 1012.28 1169.16 1036.4C1158.1 1079.15 1129.05 1117.78 1095.63 1145.95C1057.25 1176.8 1009.6 1198.1 960.726 1204.51C962.734 1202.19 964.776 1199.87 966.818 1197.54C960.057 1197.54 952.839 1198.07 946.183 1196.66C938.084 1194.55 932.168 1184.3 939.915 1177.89C945.831 1175.74 952.381 1175.04 958.578 1173.91C968.579 1161.91 982.277 1155.11 993.229 1144.33C1004.25 1131.97 1021.47 1129.83 1033.94 1118.59C1031.61 1116.27 1029.25 1113.94 1026.89 1111.62C1072.46 1087.25 1111.12 1052.22 1135.49 1006.26C1142.15 992.775 1147.5 978.725 1154.22 965.238C1164.44 947.701 1160.81 930.905 1165.81 911.467Z" fill="#19A78E"/>
<path d="M834.2 959.987C819.868 965.164 806.099 967.91 794.514 978.58C780.077 991.996 770.358 1012.31 769.935 1032.1C769.372 1056.82 781.168 1078.76 798.845 1095.38C819.41 1115.14 843.813 1124.4 870.118 1133.8C852.898 1132.67 836.524 1131.05 821.1 1122.57C794.585 1107.18 772.365 1085.56 764.759 1054.92C759.125 1036.54 762.259 1019.25 765.815 1000.94C761.801 1000.06 757.822 999.215 753.807 998.476C749.617 1007.49 747.68 1016.19 740.461 1023.34C736.553 1028.13 729.264 1032.98 729.228 1039.57C727.749 1056.01 732.82 1072.56 738.173 1087.92C743.56 1102.85 747.61 1116.86 758.068 1129.29C766.343 1139.15 773.985 1149.12 780.922 1160C740.426 1131.34 715.812 1082.11 721.517 1032.32C725.601 1002.98 742.504 974.178 769.618 960.762C789.76 950.515 813.494 952.522 834.2 959.987Z" fill="#4CB9A0"/>
<path d="M926.6 967.315C930.227 967.174 933.854 967.068 937.481 967.033C942.622 995.521 930.614 1017.71 918.888 1042.43C934.312 1028.76 946.284 1013.76 956.778 996.084C952.2 1017.99 940.228 1037.21 920.931 1048.94C911.177 1053.38 900.26 1054.82 890.225 1058.73C898.148 1061.44 906.986 1065 915.402 1065.17C922.515 1065 929.804 1062.71 936.706 1060.95C935.685 1057.57 934.629 1054.15 933.608 1050.74C945.263 1052.43 956.884 1054.15 968.469 1056.23C931.143 1076.79 889.274 1080.21 848.215 1069.75C858.356 1067.15 870.399 1065.53 879.414 1060C891.703 1052.18 899.873 1037.78 903.007 1023.8C906 1009.4 899.556 992.845 893.64 979.851C897.443 976.576 901.246 973.266 905.049 969.991C910.015 975.625 914.98 981.224 919.98 986.823C922.093 980.309 924.1 973.689 926.6 967.315Z" fill="#2BAC92"/>
<path d="M753.812 998.479C757.826 999.218 761.805 1000.06 765.82 1000.94C762.263 1019.25 759.129 1036.54 764.763 1054.93C772.37 1085.56 794.589 1107.18 821.105 1122.57C836.528 1131.06 852.903 1132.68 870.122 1133.8C883.046 1135.67 895.652 1137.57 908.716 1138.38C895.229 1141.69 888.011 1144.86 880.792 1156.9C873.08 1157.82 865.404 1158.59 857.692 1159.37C856.459 1162.05 855.192 1164.72 853.959 1167.4C858.009 1172.33 864.03 1177.89 865.333 1184.34C866.777 1189.86 864.594 1194.76 863.115 1200.04C834.24 1191.91 803.921 1179.72 780.926 1160C773.989 1149.12 766.348 1139.16 758.073 1129.3C747.614 1116.87 743.565 1102.85 738.177 1087.92C732.825 1072.57 727.754 1056.02 729.233 1039.57C729.268 1032.99 736.557 1028.13 740.466 1023.34C747.685 1016.19 749.622 1007.49 753.812 998.479Z" fill="#3EBB9E"/>
<path d="M1026.89 1111.61C1029.25 1113.94 1031.61 1116.26 1033.93 1118.59C1021.46 1129.82 1004.24 1131.97 993.222 1144.33C982.271 1155.1 968.573 1161.9 958.572 1173.91C952.375 1175.03 945.825 1175.74 939.909 1177.89C932.162 1184.29 938.078 1194.54 946.177 1196.65C952.833 1198.06 960.051 1197.53 966.812 1197.53C964.77 1199.86 962.728 1202.18 960.72 1204.51C927.831 1210 895.54 1206.27 863.109 1200.03C864.588 1194.75 866.771 1189.86 865.327 1184.33C864.024 1177.89 858.003 1172.32 853.953 1167.39C855.186 1164.72 856.453 1162.04 857.686 1159.36C865.398 1158.59 873.074 1157.81 880.786 1156.9C888.005 1144.85 895.223 1141.69 908.71 1138.38C949.769 1138.38 990.088 1130.14 1026.89 1111.61Z" fill="#2AB197"/>
</g>
<defs>
<clipPath id="clip0_1762_916">
<rect width="1210" height="1210" fill="white" transform="translate(305 242)"/>
</clipPath>
</defs>
</svg>
