<svg width="1819" height="1695" viewBox="0 0 1819 1695" fill="none" xmlns="http://www.w3.org/2000/svg">
<g clip-path="url(#clip0_1762_829)">
<path d="M305 847C305 512.868 575.868 242 910 242C1244.13 242 1515 512.868 1515 847C1515 1181.13 1244.13 1452 910 1452C575.868 1452 305 1181.13 305 847Z" fill="#01FF2B"/>
<path d="M771.993 613.396C798.892 610.728 826.246 614.458 849.84 628.225C882.955 645.845 906.458 678.293 920.074 712.653C935.085 751.257 939.331 792.227 936.177 833.349C930.84 888.664 913.099 942.371 881.621 988.345C853.418 1029.04 814.267 1064.8 765.898 1078.9C747.035 1084.84 727.444 1085.39 707.945 1083.39C678.226 1078.81 650.781 1063.73 630.614 1041.48C598.954 1007.51 584.58 963.629 579.424 918.201C578.09 893.334 577.362 867.708 581.759 843.114C590.675 780.158 618.757 718.748 662.82 672.592C692.449 642.236 729.416 619.249 771.993 613.396Z" fill="#181818"/>
<path d="M749.091 686.548C775.96 680.756 802.707 697.132 807.559 724.516C813.261 752.658 791.365 781.013 762.313 781.043C736.051 783.318 711.366 759.451 712.518 733.28C711.518 712.022 728.621 691.248 749.091 686.548Z" fill="#01FF2B"/>
<path d="M1116.09 713.961C1130.86 712.566 1145.6 713.324 1159.67 718.267C1193.91 728.487 1219.44 759.541 1231.81 791.989C1244.98 824.65 1246.4 858.888 1243.4 893.581C1237.42 942.375 1218.59 988.955 1186.54 1026.47C1163.67 1052.67 1132.65 1074.66 1097.8 1080.51C1080.82 1082.15 1063.87 1082.57 1047.8 1076.23C1019.68 1066.83 999.488 1045.6 985.538 1020.13C965.887 981.98 960.944 938.736 966.948 896.553C974.166 844.119 997.062 793.93 1034.48 756.205C1057.65 734.795 1084.31 718.237 1116.09 713.961Z" fill="#181818"/>
<path d="M1082.43 783.135C1105.51 775.038 1132.59 786.47 1141.96 809.275C1154.37 834.81 1138.36 867.592 1111.21 874.628C1086.47 882.452 1058.9 866.773 1051.9 842.027C1044.13 818.07 1058.84 790.959 1082.43 783.135Z" fill="#01FF2B"/>
</g>
<defs>
<clipPath id="clip0_1762_829">
<rect width="1210" height="1210" fill="white" transform="translate(305 242)"/>
</clipPath>
</defs>
</svg>
