<svg width="1819" height="1695" viewBox="0 0 1819 1695" fill="none" xmlns="http://www.w3.org/2000/svg">
<g clip-path="url(#clip0_1762_952)">
<path d="M305 847.666C305 513.534 575.868 242.666 910 242.666C1244.13 242.666 1515 513.534 1515 847.666C1515 1181.8 1244.13 1452.67 910 1452.67C575.868 1452.67 305 1181.8 305 847.666Z" fill="#1B3B36"/>
<path d="M882.656 401.932C895.3 404.17 903.74 413.457 910.486 423.682C928.545 451.209 937.257 487.781 949.357 517.88C952.533 524.959 955.74 534.699 964.119 536.877C976.945 539.902 990.043 539.206 1002.78 543.139C1015.54 546.618 1031.55 552.698 1044.77 549.824C1052.27 546.497 1058.14 538.269 1063.37 532.128C1078.92 512.919 1097.22 497.976 1114.73 480.642C1127.38 468.724 1143.56 454.506 1161.11 451.209C1173.42 448.547 1186.34 454.567 1191.6 466.092C1200.86 484.968 1200.46 509.44 1203.03 530.101C1206 551.216 1204.58 572.391 1206.97 593.566C1208.02 620.76 1207.81 648.137 1205.51 675.271C1205 705.672 1198.13 736.013 1186.31 763.994C1165.4 810.186 1126.26 843.219 1080.73 863.849C1073.59 867.298 1064.88 870.474 1059.29 876.222C1058.08 886.295 1062.19 894.251 1066.52 902.963C1076.65 922.141 1085.66 943.77 1087.75 965.55C1093.17 1001.15 1083.09 1039.54 1060.31 1067.55C1050 1081.1 1034.45 1096.02 1030.4 1112.84C1027.37 1129.93 1024.68 1147.87 1025.89 1165.23C1029.79 1164.84 1034.33 1165.65 1037.35 1162.63C1046.67 1153.77 1053.6 1142.63 1062.73 1133.5C1091.56 1103.19 1128.01 1075.12 1169.12 1064.53C1196.05 1056.63 1224.69 1056.12 1251.19 1065.92C1282.95 1076.36 1309.79 1099.77 1322.4 1130.96C1336.68 1168.56 1330.81 1214.14 1304.43 1245.12C1285.07 1268.53 1254.16 1278.76 1224.45 1277.64C1216.56 1276.55 1207.81 1275.58 1201.76 1269.83C1194.59 1263.6 1194.38 1253.47 1192.36 1244.85C1189.18 1227.39 1182.65 1210.7 1172.66 1196.02C1163.13 1182.44 1147.52 1175.48 1130.98 1177.72C1102.51 1181.78 1078.55 1202.1 1054.69 1216.35C996.547 1250.93 928.001 1270.62 862.056 1283.84C845.963 1287.02 829.658 1289.92 813.293 1291.04C762.17 1295.61 706.45 1294.97 657.233 1278.88C618.725 1267.44 580.519 1246.45 553.475 1216.35C530.092 1188.04 511.004 1157.18 499.358 1122.18C494.125 1103.76 491.917 1084.34 490.374 1065.28C488.045 1034.07 495.425 1005.96 503.411 976.198C510.339 950.788 504.138 928.131 507.858 901.995C512.789 853.625 540.196 808.613 579.551 780.359C606.655 760.757 640.928 750.775 674.022 748.294C689.842 746.963 703.969 752.741 719.336 753.921C726.173 754.617 729.621 750.291 730.408 743.999C731.345 729.116 722.573 714.868 722.694 699.562C721.212 657.998 734.128 614.922 752.006 577.715C767.948 545.952 785.16 514.764 804.127 484.696C817.921 461.887 831.896 435.388 851.045 416.664C859.454 408.254 870.253 401.055 882.656 401.932Z" fill="#FEFFFF"/>
<path d="M856.304 624.12C870.098 621.034 884.618 622.274 894.993 632.741C908.999 645.809 912.508 663.747 915.412 681.897C916.138 695.116 911.964 709.031 907.698 721.434C900.196 738.828 887.31 755.919 868.101 760.88C852.432 765.871 834.705 761.969 823.694 749.506C815.436 739.584 809.809 727.302 807.631 714.567C802.61 691.789 810.021 667.468 822.847 648.501C831.287 636.946 841.965 627.296 856.304 624.12Z" fill="#1B3B36"/>
<path d="M1059.5 649.439C1073.87 644.75 1088.09 648.198 1098.55 659.058C1113.56 676.512 1120.21 701.136 1116.13 723.793C1112.68 743.667 1103.57 764.298 1088.63 778.213C1074.9 791.583 1054.57 797.573 1036.15 791.281C1021.84 785.654 1011.95 769.985 1008.23 755.616C1002.54 736.286 1006.26 715.626 1013.13 697.143C1021.48 675.454 1037.02 657.062 1059.5 649.439Z" fill="#1B3B36"/>
<path d="M752.697 779.121C788.331 776.973 825.145 788.74 856.938 804.017C903.039 827.763 946.145 865.757 968.53 913.219C974.338 925.501 981.326 939.809 981.568 953.573C981.629 968.335 972.675 982.401 957.429 985.033C928.026 990.024 895.325 975.141 865.469 981.13C836.005 986.212 813.106 1014.19 813.62 1044.02C817.19 1081.2 847.44 1110.63 883.77 1116.56C908.847 1122.4 932.563 1118.1 957.731 1118.31C955.099 1117.29 952.498 1116.2 949.866 1115.14C956.551 1115.26 963.237 1115.32 969.892 1115.32C974.096 1135.71 964.658 1151.35 955.251 1168.41C928.691 1211.82 886.553 1243.61 838.304 1259.31C798.072 1270.23 756.508 1274.77 714.945 1270.17C677.072 1265.66 641.679 1258.07 610.522 1234.84C589.921 1221.38 573.223 1203.83 557.04 1185.5C534.019 1158.49 519.469 1125.54 512.935 1090.76C506.613 1053 510.273 1013.13 521.526 976.593C527.001 951.939 538.375 930.25 550.112 908.107C561.305 889.806 574.403 872.019 596.697 867.39C624.043 862.278 644.432 876.828 670.901 876.98C684.332 877.433 697.127 877.161 709.348 870.869C731.28 860.766 748.008 835.779 744.378 811.277C742.2 797.18 732.943 790.011 724.171 779.907C733.579 779.03 743.228 779.242 752.697 779.121Z" fill="#10B982"/>
</g>
<defs>
<clipPath id="clip0_1762_952">
<rect width="1210" height="1210" fill="white" transform="translate(305 242.666)"/>
</clipPath>
</defs>
</svg>
