<svg width="1819" height="1695" viewBox="0 0 1819 1695" fill="none" xmlns="http://www.w3.org/2000/svg">
<circle cx="910" cy="847" r="600" fill="#5038E5"/>
<path d="M944.898 459C1032.09 469.874 1112.06 518.278 1159.57 592.443C1182.77 624.568 1192.49 660.374 1203.5 697.639C1202.63 716.835 1208.47 734.87 1206.64 754.265C1208.27 773.66 1203.76 791.795 1203.46 810.891C1196.23 839.171 1186.85 865.694 1175.65 892.581C1167.69 904.483 1159.7 916.717 1152.9 929.315C1141.47 943.472 1128.83 956.037 1116.6 969.398C1112.22 974.503 1114.11 983.289 1113.62 989.654C1114.45 1025.73 1112.59 1062.23 1114.48 1098.17L1116.63 1099.62C1120.81 1102.87 1125.25 1102.24 1130.26 1102.48C1145.74 1102.48 1161.22 1102.28 1176.71 1102.51C1177.01 1124.82 1176.14 1147.2 1177.34 1169.48C1156.25 1167.99 1134.93 1168.95 1113.78 1168.58C1113.68 1153.13 1113.78 1137.68 1113.88 1122.24C1113.52 1116.07 1114.71 1110.4 1111.13 1105.09C1105.76 1101.35 1100.12 1102.61 1093.89 1102.24C1078.41 1102.38 1062.92 1102.31 1047.44 1102.51C1047.61 1047.37 1047.14 992.174 1047.64 937.04C1051.02 933.791 1054.54 930.674 1057.92 927.425C1069.75 921.557 1079.24 910.451 1087.09 900.074C1115.64 865.229 1133.41 823.025 1138.08 778.168C1141.6 763.316 1141.4 745.247 1138.22 730.328C1137.16 724.394 1135.9 718.592 1133.71 712.989C1131.39 679.073 1111 644.195 1092.5 616.313C1066.87 587.801 1041.84 561.809 1004.94 548.15C989.788 537.972 972.747 534.225 954.977 531.573C948.545 528.888 942.246 528.655 935.416 527.661C919.967 524.246 899.71 524.213 884.261 527.694C834.398 534.225 784.767 555.775 749.823 592.575C740.772 601.626 731.489 609.815 725.489 621.386C723.267 624.635 721.112 627.95 718.991 631.265C713.222 638.46 708.514 645.754 705.166 654.407C697.573 668.795 691.075 684.377 688.357 700.49C685.273 710.336 682.92 720.084 681.56 730.328C678.245 745.148 678.146 763.415 681.627 778.202C684.279 793.187 685.638 807.476 691.937 821.036L692.832 823.589C694.888 839.171 703.408 854.62 712.028 867.583C718.328 885.155 733.18 899.941 744.85 914.297C752.774 923.447 762.388 929.978 772.169 936.907C772.765 992.34 771.472 1047.87 772.832 1103.3C757.084 1101.91 741.634 1102.41 725.82 1102.24C719.62 1102.64 713.918 1101.28 708.713 1105.13C704.9 1110.33 706.227 1116.04 705.829 1122.24C705.961 1137.98 705.729 1153.6 706.525 1169.28C685.141 1168.52 663.525 1167.99 642.174 1169.61C644.23 1147.46 641.71 1125.12 643.6 1103.01C662.298 1099.82 686.036 1106.26 703.21 1099.66C707.022 1094.42 705.696 1088.72 706.094 1082.52C705.862 1049.33 705.961 1016.14 706.061 982.957C705.795 977.918 706.624 973.575 703.077 969.464C696.513 960.745 687.826 953.451 679.869 946.024C674.3 933.99 663.956 923.977 656.828 912.738C644.926 894.106 636.969 872.888 627.155 853.394C624.072 837.977 619.994 822.296 615.585 807.211C616.513 800.017 619.663 790.137 613.33 784.6C613.264 767.858 612.601 751.049 613.364 734.34C615.187 717.73 619.132 701.153 619.63 684.41C632.327 642.67 650.031 602.886 677.383 568.639C686.202 560.98 691.805 550.901 700.06 542.812C708.315 534.391 718.593 528.689 726.45 519.737C740.142 511.548 752.409 500.972 766.698 493.446C793.884 479.025 821.932 470.471 851.24 461.917C856.876 462.116 862.744 462.547 868.347 461.984C893.079 456.779 919.47 460.26 944.898 459Z" fill="#FCFAFC"/>
<path d="M835.755 971.718C851.072 976.492 868.842 983.554 885.054 981.796C885.253 1045.42 884.325 1109.14 885.518 1172.73C865.659 1171.73 845.436 1171.47 825.61 1172.46C820.537 1171.24 822.295 1184.6 820.902 1187.85C816.924 1202.83 819.012 1219.71 818.946 1235.12C797.861 1234.79 776.775 1235.16 755.689 1234.89C755.656 1214.9 755.822 1194.87 755.59 1174.92C775.482 1167.02 798.192 1176.61 817.521 1171.2L817.985 1168.45L818.383 1165.3C818.814 1161.16 819.278 1156.98 819.742 1152.8C823.256 1140.73 821.864 1128.43 822.029 1115.64C822.096 1071.44 821.797 1027.15 822.096 982.99C821.366 973.409 828.66 973.74 835.755 971.718Z" fill="#FEFDFD"/>
<path d="M983.951 971.686C989.223 973.509 993.765 972.282 995.655 978.548C999.6 988.826 997.146 1001.92 997.743 1012.86C997.644 1058.18 997.81 1103.5 997.611 1148.82C997.577 1154.89 998.373 1160.3 1000.1 1166.1L1000.96 1172.46L997.71 1172.43L994.461 1172.33C974.503 1171.7 954.478 1172 934.52 1172.07C935.017 1109.17 934.586 1046.25 934.718 983.356C951.759 981.499 967.872 977.554 983.951 971.686Z" fill="#FEFDFE"/>
<path d="M1000.96 1172.46C1011.71 1175.78 1022.51 1169.74 1033.72 1172.93C1042.57 1175.58 1049.93 1173.76 1058.72 1172.6C1059.91 1180.45 1060.94 1188.24 1063.23 1195.9C1064.39 1208.96 1064.02 1221.76 1064.02 1234.86C1042.9 1235.09 1021.82 1234.96 1000.7 1234.96C1001.36 1214.14 1000.96 1193.28 1000.96 1172.46Z" fill="#FDFCFB"/>
</svg>
