<svg width="1819" height="1695" viewBox="0 0 1819 1695" fill="none" xmlns="http://www.w3.org/2000/svg">
<g clip-path="url(#clip0_1762_705)">
<path d="M881.354 243H938.709C1046.17 249.625 1150.86 282.413 1240.86 341.848C1346.29 410.809 1429.08 513.187 1474.05 630.896C1497.51 691.491 1510.47 756.293 1514 821.047V875.162C1507.95 989.969 1470.28 1102.41 1403.5 1196.18C1336.04 1292.22 1239.9 1367.56 1130.6 1410.36C1067.54 1435.17 999.982 1449.24 932.326 1452H885.513C782.362 1447.5 680.564 1416.99 592.742 1362.53C486.64 1297.44 401.913 1199.08 353.263 1084.46C324.441 1017.39 309.014 945.622 305 872.841V824.771C307.805 763.499 319.46 702.42 340.013 644.678C383.005 523.488 465.604 417.386 572.382 345.813C663.831 283.816 771.287 249.529 881.354 243Z" fill="#232221"/>
<path d="M859.246 513.382C922.984 505.354 988.464 514.156 1047.17 540.512C1121.89 573.493 1183.89 633.798 1218.32 707.934C1244.53 764.419 1254.83 829.221 1246.08 890.928C1235.58 975.22 1190.71 1053.18 1124.89 1106.57C1029.71 1184.96 894.548 1205.85 779.742 1161.26C690.663 1127.31 617.156 1055.35 583.11 966.128C562.509 913.077 556.996 855.432 564.588 799.189C575.082 727.52 609.756 659.816 661.84 609.473C714.891 556.857 785.255 523.199 859.246 513.382Z" fill="#FCFDFE"/>
<path d="M860.951 574.265C932.427 562.659 1008.59 580.02 1068.17 621.126C1122.43 657.88 1162.09 713.687 1179.64 776.749C1141 755.567 1098.3 748.313 1054.58 748.071C986.252 746.862 915.791 761.08 848.909 773.847C835.61 776.313 824.391 782.697 820.377 796.334C813.413 823.077 812.784 854.221 818.297 881.303C821.296 899.293 830.726 912.93 837.061 929.808C798.035 934.837 759.492 937.691 721.771 923.908C680.907 909.787 648.264 882.56 621.23 849.385C621.327 790.531 639.946 733.031 675.152 685.832C718.724 625.962 787.879 585.05 860.951 574.265Z" fill="#232221"/>
<path d="M1018.74 809.393C1048.29 806.056 1077.84 808.474 1107.05 813.6C1127.74 817.856 1151.2 826.706 1165.66 842.81C1184.91 865.394 1188 896.393 1177.89 923.861C1149.8 1021.02 1066.18 1096.7 967.48 1117.45C901.71 1132.44 831.492 1122.86 771.767 1091.72C713.3 1061.54 667.309 1011.59 641.969 950.894C688.056 981.651 742.799 997.562 798.268 994.563C834.442 992.484 871.292 984.166 904.08 968.594C919.7 961.195 926.761 941.561 917.331 926.618C905.627 910.61 889.572 900.406 881.012 881.111C874.774 865.829 874.532 847.21 874.435 830.913C921.731 820.903 970.478 811.956 1018.74 809.393Z" fill="#232221"/>
</g>
<defs>
<clipPath id="clip0_1762_705">
<rect width="1209" height="1209" fill="white" transform="translate(305 243)"/>
</clipPath>
</defs>
</svg>
