<svg width="1819" height="1695" viewBox="0 0 1819 1695" fill="none" xmlns="http://www.w3.org/2000/svg">
<circle cx="910" cy="847" r="600" fill="#3BD3E0"/>
<g clip-path="url(#clip0_1762_1214)">
<path fill-rule="evenodd" clip-rule="evenodd" d="M678.183 596.196C666.763 536.814 712.442 482 771.823 482C824.353 482 867.748 525.394 867.748 577.924V696.688C881.451 696.688 895.155 694.404 908.858 694.404C922.562 694.404 933.981 694.404 947.685 696.688V577.924C947.685 525.394 991.079 482 1043.61 482C1102.99 482 1148.67 536.814 1139.53 596.196L1114.41 735.514C1203.48 774.341 1272 842.858 1272 927.363V979.893C1272 1050.69 1226.32 1110.08 1160.09 1148.9C1093.85 1190.01 1007.07 1212.85 908.858 1212.85C810.65 1212.85 723.861 1190.01 657.628 1148.9C593.678 1110.08 548 1050.69 548 979.893V927.363C548 842.858 614.233 774.341 703.306 735.514L678.183 596.196ZM1080.15 753.785L1109.84 589.344C1116.69 548.233 1087 509.407 1043.61 509.407C1007.07 509.407 977.375 539.098 977.375 575.64V726.379C968.24 724.095 956.82 724.095 947.685 724.095C933.981 724.095 922.562 721.811 908.858 721.811C895.155 721.811 881.451 721.811 867.748 724.095C858.612 724.095 847.192 726.379 838.057 726.379V577.924C838.057 541.382 808.366 511.691 771.823 511.691C730.713 511.691 698.738 550.517 707.874 591.628L737.565 756.069C641.64 792.612 577.691 856.562 577.691 929.647V982.177C577.691 1094.09 726.145 1185.44 908.858 1185.44C1091.57 1185.44 1240.03 1094.09 1240.03 982.177V929.647C1242.31 854.278 1178.36 790.328 1080.15 753.785Z" fill="#633001"/>
<path d="M1242.27 979.893C1242.27 1091.8 1093.82 1183.16 911.105 1183.16C728.392 1183.16 579.938 1091.8 579.938 979.893V927.363H1244.56V979.893H1242.27Z" fill="#FEDC90"/>
<path fill-rule="evenodd" clip-rule="evenodd" d="M707.837 591.622C698.701 550.512 730.676 511.686 771.786 511.686C808.329 511.686 838.02 541.376 838.02 577.919V728.657C860.859 726.373 883.698 724.089 908.821 724.089C931.66 724.089 954.499 726.373 977.338 728.657V577.919C977.338 541.376 1007.03 511.686 1043.57 511.686C1084.68 511.686 1116.66 550.512 1109.81 591.622L1080.11 756.064C1176.04 792.607 1242.27 856.556 1242.27 929.641C1242.27 1041.55 1093.82 1132.91 911.105 1132.91C728.392 1132.91 579.938 1041.55 579.938 929.641C579.938 856.556 643.887 792.607 739.811 756.064L707.837 591.622Z" fill="#D1884F"/>
<path d="M817.538 913.66C817.538 943.35 801.551 968.473 780.996 968.473C760.44 968.473 744.453 943.35 744.453 913.66C744.453 883.969 760.44 858.846 780.996 858.846C801.551 858.846 817.538 883.969 817.538 913.66Z" fill="#633001"/>
<path d="M1071 913.66C1071 943.35 1055.01 968.473 1034.46 968.473C1013.9 968.473 997.914 943.35 997.914 913.66C997.914 883.969 1013.9 858.846 1034.46 858.846C1055.01 858.846 1071 883.969 1071 913.66Z" fill="#633001"/>
</g>
<defs>
<clipPath id="clip0_1762_1214">
<rect width="724" height="730.852" fill="white" transform="translate(548 482)"/>
</clipPath>
</defs>
</svg>
