<svg width="1819" height="1695" viewBox="0 0 1819 1695" fill="none" xmlns="http://www.w3.org/2000/svg">
<g clip-path="url(#clip0_1762_896)">
<path d="M305 847C305 512.868 575.868 242 910 242C1244.13 242 1515 512.868 1515 847C1515 1181.13 1244.13 1452 910 1452C575.868 1452 305 1181.13 305 847Z" fill="white"/>
<path d="M593.905 517.128C651.716 516.697 709.581 516.751 767.392 517.074C767.768 574.24 767.661 631.459 767.446 688.625C709.688 689.647 651.716 689.916 593.905 688.41C592.453 631.459 592.507 574.078 593.905 517.128Z" fill="#181818"/>
<path d="M1053.69 517.936C1110.48 515.139 1167.86 517.613 1224.81 517.075C1226.05 574.133 1225.94 631.46 1224.87 688.519C1176.52 690.24 1128.28 688.572 1079.88 689.379C1079.08 794.568 1079.13 899.973 1079.88 1005.16C1128.23 1008.12 1176.47 1003.87 1224.81 1006.18C1226.05 1063.51 1225.94 1121.16 1224.87 1178.49C1167.54 1179.78 1109.89 1179.67 1052.56 1178.54C1052.03 1122.99 1053.05 1067.44 1051.97 1011.88C957.323 1011.45 862.674 1011.45 768.025 1011.88C766.949 1067.44 767.971 1122.99 767.433 1178.54C709.676 1179.72 651.542 1179.72 593.731 1178.54C592.602 1121.21 592.44 1063.56 593.892 1006.24C640.84 1003.87 687.573 1008.17 734.521 1004.95C735.92 949.61 734.091 894.272 735.382 838.935C788.299 836.838 841.109 839.312 894.026 837.644C895.209 780.102 893.058 722.668 894.994 665.125C947.266 663.243 999.431 665.125 1051.76 664.372C1054.12 615.65 1050.09 566.497 1053.69 517.936Z" fill="#181818"/>
</g>
<defs>
<clipPath id="clip0_1762_896">
<rect width="1210" height="1210" fill="white" transform="translate(305 242)"/>
</clipPath>
</defs>
</svg>
