<svg width="1819" height="1695" viewBox="0 0 1819 1695" fill="none" xmlns="http://www.w3.org/2000/svg">
<g clip-path="url(#clip0_1762_1014)">
<g clip-path="url(#clip1_1762_1014)">
<path d="M909.501 1441.59C1237.88 1441.59 1504.09 1175.38 1504.09 847C1504.09 518.619 1237.88 252.413 909.501 252.413C581.12 252.413 314.914 518.619 314.914 847C314.914 1175.38 581.12 1441.59 909.501 1441.59Z" fill="#082723"/>
<path d="M909.501 1441.59C1237.88 1441.59 1504.09 1175.38 1504.09 847C1504.09 518.619 1237.88 252.413 909.501 252.413C581.12 252.413 314.914 518.619 314.914 847C314.914 1175.38 581.12 1441.59 909.501 1441.59Z" fill="url(#paint0_radial_1762_1014)" fill-opacity="0.2"/>
<path d="M909.501 1441.59C1237.88 1441.59 1504.09 1175.38 1504.09 847C1504.09 518.619 1237.88 252.413 909.501 252.413C581.12 252.413 314.914 518.619 314.914 847C314.914 1175.38 581.12 1441.59 909.501 1441.59Z" stroke="#96FCE5" stroke-width="20.8262"/>
<path d="M972.534 559.337C973.719 559.526 974.535 560.684 974.27 561.857L934.026 739.925C933.811 740.874 932.968 741.549 931.995 741.549H885.012C884.037 741.549 883.191 740.872 882.979 739.921L874.753 703.164L868.403 674.376L843.182 561.867C842.918 560.691 843.745 559.533 844.936 559.349C906.084 549.967 914.022 549.963 972.534 559.337Z" fill="#96FCE5"/>
<path d="M844.04 741.546C845.494 741.546 846.5 740.097 845.993 738.737L782.305 567.837C781.961 566.917 781.02 566.361 780.049 566.507C751.824 570.772 724.104 577.738 697.293 587.303C696.041 587.751 695.531 589.245 696.241 590.367L767.566 703.162L791.123 740.574C791.504 741.18 792.168 741.546 792.885 741.546H844.04Z" fill="#96FCE5"/>
<path d="M1202.45 779.932C1203.32 779.932 1204.1 780.469 1204.4 781.283L1231.62 853.885C1232.13 855.247 1231.12 856.699 1229.67 856.699H1059.31C1058.09 856.699 1057.13 855.656 1057.23 854.441L1063.36 781.837C1063.45 780.761 1064.35 779.932 1065.44 779.932H1202.45Z" fill="#96FCE5"/>
<path d="M1275.54 969.039C1276.05 970.401 1275.05 971.854 1273.59 971.854H1049.4C1048.18 971.854 1047.23 970.811 1047.33 969.597L1053.48 896.993C1053.57 895.914 1054.47 895.087 1055.55 895.087H1246.28C1247.15 895.087 1247.92 895.624 1248.23 896.434L1275.54 969.039Z" fill="#96FCE5"/>
<path d="M1216.68 1089.38C1216.29 1089.76 1215.76 1089.97 1215.22 1089.97H1038.75C1037.5 1089.97 1036.54 1088.89 1036.68 1087.65L1045.08 1014.56C1045.2 1013.51 1046.09 1012.71 1047.15 1012.71H1289.63C1291.5 1012.71 1292.42 1014.98 1291.09 1016.28L1216.68 1089.38Z" fill="#96FCE5"/>
<path d="M781.221 1087.65C781.362 1088.89 780.396 1089.97 779.151 1089.97H602.68C602.134 1089.97 601.61 1089.76 601.22 1089.38L526.806 1016.28C525.478 1014.98 526.402 1012.71 528.266 1012.71H770.749C771.809 1012.71 772.699 1013.51 772.819 1014.56L781.221 1087.65Z" fill="#96FCE5"/>
<path d="M758.571 856.699C759.792 856.699 760.75 855.656 760.648 854.441L754.516 781.837C754.427 780.761 753.525 779.932 752.442 779.932H614.948C614.079 779.932 613.3 780.471 612.996 781.285L585.926 853.89C585.418 855.25 586.424 856.699 587.878 856.699H758.571Z" fill="#96FCE5"/>
<path d="M770.557 969.597C770.662 970.811 769.701 971.854 768.483 971.854H544.202C542.748 971.854 541.742 970.403 542.251 969.041L569.418 896.439C569.725 895.624 570.501 895.087 571.37 895.087H762.331C763.414 895.087 764.316 895.914 764.407 896.993L770.557 969.597Z" fill="#96FCE5"/>
<path d="M1105.46 616.8L1121.08 592.34C1121.84 591.149 1121.24 589.572 1119.86 589.231C1110.67 586.942 1079.1 579.407 1034.88 572.411C1033.91 572.257 1032.94 572.811 1032.6 573.738L971.005 738.737C970.496 740.097 971.502 741.547 972.956 741.547H1024.12C1024.83 741.547 1025.49 741.187 1025.88 740.591L1049.91 703.164L1068.48 674.376L1105.46 616.8Z" fill="#96FCE5"/>
<path d="M1144.25 633.814C1143.65 632.258 1141.56 632.006 1140.6 633.374L1067.46 738.274C1066.5 739.655 1067.48 741.548 1069.17 741.548H1182.92C1184.39 741.548 1185.39 740.077 1184.87 738.713L1144.25 633.814Z" fill="#96FCE5"/>
<path d="M747.873 741.548C749.55 741.548 750.539 739.669 749.591 738.286L677.664 633.383C676.721 632.01 674.628 632.244 674.011 633.789L632.178 738.694C631.632 740.061 632.64 741.548 634.112 741.548H747.873Z" fill="#96FCE5"/>
<path d="M1111.08 649.761L1123.64 692.827C1131.69 720.447 1133.42 751.767 1133.29 776.586C1133.22 788.442 1132.71 799.905 1131.97 810.287C1143.2 821.414 1155.54 833.591 1163.45 841.199L1202.05 878.315L1169.42 920.77C1072.7 1046.6 962.93 1085.15 861.105 1068.06C765.769 1052.06 690.357 989.298 649.792 938.397L623.418 905.302L645.846 869.416C651.806 859.878 663.692 845.225 677.243 829.872C666.945 782.965 671.031 751.603 671.031 721.001V654.905L736.798 661.482C765.019 664.304 785.329 667.603 805.834 675.668C814.621 679.126 824.234 683.986 833.952 689.128C862.252 679.105 888.785 675.581 914.114 676.987C930.858 677.918 946.107 680.994 959.55 684.745C994.592 661.296 1034.58 649.761 1066.21 649.761H1111.08ZM986.333 821.625L950.114 807.796C932.128 800.927 920.145 797.137 907.476 796.433C896.049 795.798 880.394 797.57 857.506 808.891L830.451 822.274L803.612 808.46C800.151 806.68 796.86 804.953 793.774 803.322C795.34 810.458 797.51 818.324 800.497 827.504L811.539 861.45L786.905 887.283C783.423 890.936 780.02 894.581 776.748 898.144C805.168 922.429 841.724 943.503 880.911 950.08C923.642 957.255 978.883 948.822 1040.03 887.573C1034.97 882.545 1030.52 878.099 1027.28 874.86L1006.1 853.68L1010.37 824.032C1011.32 817.434 1012.42 807.025 1013.08 794.873L986.333 821.625Z" fill="#082723"/>
<g filter="url(#filter0_d_1762_1014)">
<path d="M1085.37 684.038L1090.73 702.425C1097.41 725.309 1099.14 752.739 1099.01 776.402C1098.92 793.857 1097.79 810.368 1096.44 823.288C1109.66 836.459 1128.74 855.375 1139.7 865.907L1156.18 881.755L1142.25 899.882C1051.81 1017.54 953.945 1048.89 866.783 1034.26C782.391 1020.09 713.819 963.738 676.601 917.035L665.34 902.906L674.916 887.583C680.941 877.942 696.894 858.855 714.906 839.305C700.511 787.913 705.309 758.296 705.309 721.002V692.781L733.389 695.59C760.844 698.335 777.316 701.284 793.292 707.57C804.777 712.087 816.675 718.805 831.708 726.815C861.529 713.978 887.944 709.865 912.215 711.212C932.46 712.337 950.3 717.247 965.849 722.648C997.975 696.563 1037.76 684.038 1066.22 684.038H1085.37ZM1045.91 738.092C1028 742.778 1006.37 753.116 989.512 769.977L977.807 781.681L962.344 775.777C944.073 768.801 927.787 763.234 909.381 762.211C891.504 761.218 869.992 764.477 842.312 778.17L830.76 783.883L819.301 777.987C794.075 765.002 785.655 759.454 774.594 755.103C769.569 753.125 764.089 751.507 755.89 750.015C755.213 778.008 755.298 799.355 767.905 838.108L772.62 852.603L762.102 863.632C749.019 877.353 737.492 890.417 729.416 900.143C763.098 936.493 815.426 973.844 875.238 983.885C936.734 994.208 1011.36 976.527 1087.55 886.381C1074.33 873.371 1059.4 858.507 1051.52 850.627L1042.47 841.584L1044.3 828.924C1045.93 817.598 1047.82 797.699 1047.94 776.125C1048.01 762.94 1047.4 749.863 1045.91 738.092Z" fill="#96FCE5"/>
</g>
</g>
</g>
<defs>
<filter id="filter0_d_1762_1014" x="519.557" y="538.255" width="782.406" height="645.132" filterUnits="userSpaceOnUse" color-interpolation-filters="sRGB">
<feFlood flood-opacity="0" result="BackgroundImageFix"/>
<feColorMatrix in="SourceAlpha" type="matrix" values="0 0 0 0 0 0 0 0 0 0 0 0 0 0 0 0 0 0 127 0" result="hardAlpha"/>
<feOffset/>
<feGaussianBlur stdDeviation="72.8916"/>
<feComposite in2="hardAlpha" operator="out"/>
<feColorMatrix type="matrix" values="0 0 0 0 0.588235 0 0 0 0 0.988235 0 0 0 0 0.898039 0 0 0 0.32 0"/>
<feBlend mode="normal" in2="BackgroundImageFix" result="effect1_dropShadow_1762_1014"/>
<feBlend mode="normal" in="SourceGraphic" in2="effect1_dropShadow_1762_1014" result="shape"/>
</filter>
<radialGradient id="paint0_radial_1762_1014" cx="0" cy="0" r="1" gradientUnits="userSpaceOnUse" gradientTransform="translate(909.501 847) rotate(90) scale(605)">
<stop offset="0.596354" stop-opacity="0"/>
<stop offset="1" stop-color="#96FCE5"/>
</radialGradient>
<clipPath id="clip0_1762_1014">
<rect width="1210" height="1210" fill="white" transform="translate(305 242)"/>
</clipPath>
<clipPath id="clip1_1762_1014">
<rect width="1210" height="1210" fill="white" transform="translate(304.5 242)"/>
</clipPath>
</defs>
</svg>
