<svg width="1819" height="1695" viewBox="0 0 1819 1695" fill="none" xmlns="http://www.w3.org/2000/svg">
<circle cx="910" cy="847" r="600" fill="#FFEEDA"/>
<path d="M1207.45 969.153V565.652C1206.61 531.956 1179.65 505 1145.96 505H726.43C635.448 506.685 563 580.815 563 671.792C563 702.118 571.424 729.074 584.061 751.818C595.012 771.193 611.861 788.883 627.867 802.361C632.921 806.573 630.394 804.889 644.715 813.312C664.091 825.106 686.836 831.003 686.836 831.003V1071.92C687.679 1083.72 688.521 1094.67 691.891 1104.78C701.158 1138.47 724.745 1164.59 756.758 1177.22C770.236 1182.28 785.4 1185.65 801.406 1186.49L1135.85 1188.17C1202.4 1188.17 1257.16 1134.26 1257.16 1066.87C1257.16 1027.28 1237.78 991.055 1207.45 969.153Z" fill="#FFEEDA"/>
<path d="M1215.88 1069.4C1214.19 1112.36 1178.81 1146.9 1135.85 1146.9L905.023 1146.05C923.557 1124.99 934.508 1097.2 934.508 1066.87C934.508 1019.7 906.708 986.844 906.708 986.844H1136.69C1180.5 986.844 1216.72 1023.07 1216.72 1066.87L1215.88 1069.4Z" fill="#EBC28E"/>
<path d="M649.77 768.666C622.812 743.395 604.279 710.542 604.279 671.792V667.58C606.806 601.874 660.721 547.962 726.43 546.277H1146.8C1157.75 547.119 1166.18 554.701 1166.18 565.652V921.98C1175.44 923.665 1180.5 925.35 1189.76 927.877C1197.35 930.404 1207.45 936.3 1207.45 936.3V565.652C1206.61 531.956 1179.65 505 1145.96 505H726.43C635.448 506.685 563 580.815 563 671.792C563 724.862 587.43 770.351 626.182 801.519C628.709 804.046 631.236 806.573 638.818 806.573C651.455 806.573 659.879 796.465 659.036 786.356C659.036 777.09 655.667 773.72 649.77 768.666Z" fill="#101010"/>
<path d="M1135.85 945.568H806.461C784.558 945.568 766.867 963.258 766.867 986.002V1033.18C767.709 1055.08 786.243 1073.61 808.146 1073.61H832.576V1033.18H808.146V986.845C808.146 986.845 814.043 986.845 821.624 986.845C862.903 986.845 894.073 1025.59 894.073 1066.87C894.073 1103.94 860.376 1150.27 804.776 1146.9C755.073 1143.53 728.115 1099.72 728.115 1066.87V665.054C728.115 647.364 712.952 632.201 695.261 632.201H662.406V673.478H686.837V1067.71C685.152 1147.74 744.121 1188.17 804.776 1188.17L1136.69 1189.02C1203.24 1189.02 1258 1135.1 1258 1067.71C1257.16 1000.32 1203.24 945.568 1135.85 945.568ZM1215.88 1069.4C1214.19 1112.36 1178.81 1146.9 1135.85 1146.9L905.024 1146.06C923.558 1125 934.509 1097.2 934.509 1066.87C934.509 1019.7 906.709 986.845 906.709 986.845H1136.69C1180.5 986.845 1216.72 1023.07 1216.72 1066.87L1215.88 1069.4Z" fill="#101010"/>
<path d="M1047.4 680.216H798.883V639.781H1047.4C1058.35 639.781 1067.62 649.047 1067.62 659.998C1067.62 670.949 1059.19 680.216 1047.4 680.216Z" fill="#101010"/>
<path d="M1047.4 873.964H798.883V832.688H1047.4C1058.35 832.688 1067.62 841.954 1067.62 852.905C1067.62 864.698 1059.19 873.964 1047.4 873.964Z" fill="#101010"/>
<path d="M1091.2 777.089H798.883V735.812H1091.2C1102.16 735.812 1111.42 745.079 1111.42 756.03C1111.42 767.823 1102.16 777.089 1091.2 777.089Z" fill="#101010"/>
</svg>
