<svg width="1819" height="1695" viewBox="0 0 1819 1695" fill="none" xmlns="http://www.w3.org/2000/svg">
<g clip-path="url(#clip0_1762_754)">
<circle cx="910" cy="847" r="600" fill="white"/>
<g clip-path="url(#clip1_1762_754)">
<mask id="mask0_1762_754" style="mask-type:luminance" maskUnits="userSpaceOnUse" x="580" y="517" width="660" height="660">
<path d="M1240 517H580V1177H1240V517Z" fill="white"/>
</mask>
<g mask="url(#mask0_1762_754)">
<path d="M717.457 580.244L1228.96 929.494L1102.46 1116.49L590.957 764.494L717.457 580.244Z" fill="url(#paint0_linear_1762_754)"/>
<path d="M1229.02 929.505C1185.02 992.755 1036.52 968.005 896.27 869.005C753.27 772.755 676.27 643.505 717.52 580.255C761.52 517.005 910.02 541.755 1050.27 640.755C1193.27 734.255 1270.27 866.255 1229.02 929.505Z" fill="url(#paint1_linear_1762_754)"/>
<path d="M1102.48 1113.74C1058.48 1176.99 909.979 1152.24 769.729 1053.24C629.479 954.245 549.729 827.745 593.729 761.745C637.729 698.495 786.229 723.245 926.479 822.245C1066.73 921.245 1143.73 1050.49 1102.48 1113.74Z" fill="url(#paint2_linear_1762_754)"/>
<path d="M1228.93 929.506L1102.43 1116.51C1058.43 1179.76 909.934 1152.26 769.684 1056.01C742.184 1036.76 717.434 1017.51 692.684 995.506C711.934 992.756 736.684 981.756 761.434 954.256C805.434 907.506 827.434 896.506 846.684 899.256C865.934 899.256 887.934 918.506 923.684 965.256C959.434 1012.01 1008.93 1025.76 1039.18 1001.01C1041.93 998.256 1044.68 998.256 1047.43 995.506C1072.18 976.256 1080.43 968.006 1127.18 880.006C1138.18 858.006 1176.68 822.256 1228.93 838.756C1242.68 874.506 1242.68 904.756 1228.93 929.506Z" fill="#0E0F23"/>
<path fill-rule="evenodd" clip-rule="evenodd" d="M1209.77 918.5C1171.27 973.5 1036.52 946 907.273 855.25C775.273 764.5 698.273 649 736.773 594C775.273 539 910.023 566.5 1039.27 657.25C1168.52 748 1245.52 863.5 1209.77 918.5ZM1088.77 836C1069.52 863.5 1003.52 849.75 937.523 805.75C874.273 761.75 835.773 704 855.023 676.5C874.273 649 940.273 662.75 1006.27 706.75C1069.52 750.75 1108.02 808.5 1088.77 836Z" fill="white"/>
<path d="M706.477 643.51C706.477 640.76 703.727 638.01 700.977 640.76C698.227 643.51 695.477 643.51 695.477 646.26C698.227 654.51 700.977 660.01 700.977 665.51C700.977 668.26 703.727 671.01 706.477 668.26C709.227 668.26 711.977 665.51 709.227 662.76C709.227 657.26 709.227 651.76 706.477 643.51Z" fill="white"/>
<path d="M720.273 687.5C720.273 684.75 717.523 682 714.773 684.75C712.023 687.5 712.023 687.5 712.023 690.25C742.273 759 805.523 833.25 888.023 888.25C890.773 891 893.523 888.25 896.273 888.25C899.023 885.5 896.273 882.75 896.273 880C811.023 825 750.523 753.5 720.273 687.5Z" fill="white"/>
<path d="M1053 957C1050.25 957 1047.5 957 1047.5 959.75C1047.5 962.5 1047.5 965.25 1050.25 965.25C1058.5 968 1069.5 970.75 1077.75 973.5C1080.5 973.5 1083.25 973.5 1083.25 970.75C1083.25 968 1083.25 965.25 1080.5 965.25C1072.25 962.5 1061.25 959.75 1053 957Z" fill="white"/>
<path d="M1102.52 968.01C1099.77 968.01 1097.02 970.76 1097.02 973.51C1097.02 976.26 1099.77 979.01 1102.52 979.01C1124.52 981.76 1149.27 984.51 1168.52 981.76C1171.27 981.76 1174.02 979.01 1174.02 976.26C1174.02 973.51 1171.27 970.76 1168.52 970.76C1146.52 973.51 1124.52 970.76 1102.52 968.01Z" fill="white"/>
</g>
</g>
</g>
<defs>
<linearGradient id="paint0_linear_1762_754" x1="817.673" y1="530.587" x2="919.109" y2="878.908" gradientUnits="userSpaceOnUse">
<stop stop-color="#03B8FF"/>
<stop offset="1" stop-color="#FA52A0"/>
</linearGradient>
<linearGradient id="paint1_linear_1762_754" x1="901.27" y1="506.269" x2="1002.71" y2="854.592" gradientUnits="userSpaceOnUse">
<stop stop-color="#03B8FF"/>
<stop offset="1" stop-color="#FA52A0"/>
</linearGradient>
<linearGradient id="paint2_linear_1762_754" x1="734.419" y1="554.838" x2="835.858" y2="903.161" gradientUnits="userSpaceOnUse">
<stop stop-color="#03B8FF"/>
<stop offset="1" stop-color="#FA52A0"/>
</linearGradient>
<clipPath id="clip0_1762_754">
<rect width="1819" height="1695" fill="white"/>
</clipPath>
<clipPath id="clip1_1762_754">
<rect width="660" height="660" fill="white" transform="translate(580 517)"/>
</clipPath>
</defs>
</svg>
