<svg width="1819" height="1695" viewBox="0 0 1819 1695" fill="none" xmlns="http://www.w3.org/2000/svg">
<circle cx="910" cy="847" r="600" fill="#FFFAFE"/>
<g clip-path="url(#clip0_1762_648)">
<path d="M824.508 598.009C816.41 596.853 816.024 596.467 819.88 596.082C827.207 594.925 844.174 596.467 856.129 599.166C883.893 605.72 908.959 622.682 935.566 652.366L942.508 660.462L952.534 658.92C995.338 651.98 1039.3 657.378 1075.93 674.34C1085.96 678.966 1101.77 688.218 1103.7 690.531C1104.47 691.302 1105.63 696.314 1106.4 701.325C1109.1 719.444 1107.94 732.937 1102.15 743.346C1099.07 749.128 1099.07 750.67 1101 755.682C1102.54 759.537 1107.17 762.236 1111.41 762.236C1120.66 762.236 1130.3 747.586 1134.93 727.154L1136.86 719.059L1140.33 722.914C1160 744.888 1175.42 775.343 1177.74 796.931L1178.51 802.714L1175.04 797.702C1169.25 788.836 1163.85 783.053 1156.53 778.041C1143.42 769.175 1129.53 766.476 1092.9 764.549C1059.74 762.621 1040.84 759.922 1022.33 753.754C990.71 743.346 974.514 729.853 937.109 680.122C920.527 658.149 910.115 646.198 899.704 636.175C876.952 614.201 854.2 602.635 824.508 598.009Z" fill="#FA48D2"/>
<path d="M1111.8 646.967C1112.57 632.318 1114.5 622.68 1118.74 613.813C1120.28 610.344 1121.82 607.26 1122.21 607.26C1122.6 607.26 1121.82 609.958 1120.67 613.042C1117.58 621.524 1117.2 633.474 1119.12 646.967C1121.82 664.315 1122.98 666.628 1141.49 685.518C1149.97 694.384 1160 705.564 1163.86 710.19L1170.41 718.671L1163.86 712.503C1155.76 704.793 1137.25 690.144 1133.01 688.216C1130.31 686.674 1129.92 686.674 1127.99 688.602C1126.45 690.144 1126.07 692.457 1126.07 703.637C1125.68 720.984 1123.37 731.779 1117.58 742.958C1114.5 748.741 1114.11 747.584 1116.81 741.031C1118.74 736.019 1119.12 733.706 1119.12 717.129C1119.12 683.59 1115.27 675.495 1091.75 662.002C1085.96 658.532 1075.94 653.521 1070.15 650.822C1063.98 648.124 1059.35 645.81 1059.74 645.81C1060.51 645.039 1083.26 651.593 1092.13 655.448C1105.63 660.845 1107.94 661.231 1109.48 660.845C1110.64 659.689 1111.41 656.605 1111.8 646.967Z" fill="#FA48D2"/>
<path d="M840.322 704.409C824.126 682.05 813.714 647.354 816.028 621.525L816.799 613.43L820.655 614.201C827.597 615.357 839.551 619.983 845.335 623.453C860.76 632.705 867.701 645.427 874.257 677.038C876.185 686.291 878.884 697.085 880.041 700.554C881.969 706.337 889.296 719.83 895.466 728.311C899.708 734.479 897.008 737.563 887.368 736.792C872.714 735.25 853.048 721.757 840.322 704.409Z" fill="#FA48D2"/>
<path d="M1092.13 872.103C1015.78 841.262 988.787 814.662 988.787 769.558C988.787 763.005 989.173 757.607 989.173 757.607C989.558 757.607 992.258 759.92 995.728 762.619C1011.15 774.955 1028.51 780.352 1076.71 787.291C1104.86 791.532 1121.06 794.616 1135.71 799.628C1182.37 815.048 1211.29 846.66 1218.23 889.451C1220.16 901.787 1219 925.303 1215.92 937.639C1213.22 947.277 1205.51 965.01 1203.58 965.396C1203.19 965.396 1202.42 963.468 1202.42 960.384C1201.65 944.193 1193.55 928.773 1180.06 916.822C1163.86 902.944 1143.04 892.535 1092.13 872.103Z" fill="#FA48D2"/>
<path d="M1038.14 884.825C1037.37 879.043 1035.44 871.718 1034.29 868.634L1032.36 862.852L1035.83 867.092C1040.84 872.875 1044.7 879.814 1048.17 889.452C1050.87 896.776 1050.87 899.089 1050.87 911.04C1050.87 922.605 1050.48 925.304 1048.17 931.857C1044.31 942.266 1039.69 949.591 1031.97 957.686C1018.09 971.95 999.967 979.66 974.13 983.13C969.503 983.515 956.391 984.672 944.823 985.443C915.901 986.985 896.62 990.069 879.267 996.237C876.954 997.008 874.64 997.779 874.254 997.394C873.483 996.623 885.437 989.683 895.078 985.057C908.575 978.504 922.457 975.034 952.921 969.637C967.96 967.324 983.385 964.24 987.241 962.698C1025.42 950.747 1044.31 921.063 1038.14 884.825Z" fill="#FA48D2"/>
<path d="M1073.24 946.893C1063.21 924.919 1060.9 904.102 1066.3 884.441C1067.07 882.513 1067.84 880.586 1068.61 880.586C1069.38 880.586 1071.7 881.742 1074.01 883.284C1078.64 886.369 1088.28 891.766 1112.96 905.258C1144.19 922.221 1161.93 935.328 1174.27 950.363C1185.07 963.47 1191.62 978.505 1194.71 997.009C1196.64 1007.42 1195.48 1032.48 1192.78 1042.88C1184.3 1075.65 1165.02 1101.87 1136.87 1116.9C1132.62 1119.21 1129.15 1120.76 1128.77 1120.76C1128.38 1120.76 1129.92 1116.9 1132.24 1112.28C1141.49 1092.61 1142.65 1073.73 1135.71 1052.52C1131.47 1039.41 1122.6 1023.61 1104.86 997.009C1083.65 966.169 1078.64 958.073 1073.24 946.893Z" fill="#FA48D2"/>
<path d="M785.95 1064.86C814.486 1040.96 849.577 1023.99 881.969 1018.6C895.852 1016.28 918.989 1017.05 931.714 1020.52C952.152 1025.92 970.662 1037.49 980.303 1051.75C989.557 1065.63 993.799 1077.58 998.041 1104.18C999.584 1114.59 1001.51 1125.38 1001.9 1127.69C1004.98 1141.57 1011.15 1152.37 1018.86 1158.15C1030.82 1167.02 1051.64 1167.4 1072.08 1159.69C1075.55 1158.53 1078.64 1157.38 1078.64 1157.76C1079.41 1158.53 1069 1165.47 1062.05 1168.94C1052.41 1173.96 1044.7 1175.5 1034.29 1175.5C1015.78 1175.5 999.969 1165.86 987.244 1146.58C984.544 1142.73 979.146 1131.55 974.518 1121.14C961.022 1089.91 954.08 1080.66 938.27 1070.25C924.388 1061.39 906.649 1059.46 893.152 1066.01C875.414 1074.49 870.786 1097.24 883.126 1111.12C888.139 1116.9 897.394 1121.53 905.106 1122.68C919.374 1124.61 931.714 1113.43 931.714 1099.17C931.714 1089.91 928.244 1084.52 918.989 1080.28C906.649 1074.88 893.152 1081.05 893.538 1093C893.538 1098.01 895.852 1101.09 900.865 1103.41C903.95 1104.95 903.95 1104.95 901.636 1104.56C890.453 1102.25 887.754 1088.37 896.623 1079.51C907.42 1068.71 930.172 1073.34 937.884 1088.37C940.969 1094.54 941.355 1106.88 938.655 1114.59C932.1 1131.55 913.59 1140.42 894.695 1135.4C881.969 1131.93 876.571 1128.47 861.146 1112.66C834.152 1084.9 823.74 1079.51 785.178 1073.72L777.852 1072.57L785.95 1064.86Z" fill="#FA48D2"/>
<path fill-rule="evenodd" clip-rule="evenodd" d="M583.111 444.577C672.96 553.675 811.398 723.299 818.339 732.551C824.124 740.261 821.81 747.586 812.17 752.983C806.771 756.067 795.588 759.151 790.189 759.151C784.019 759.151 776.692 756.067 771.679 751.055C768.209 747.586 753.17 725.612 719.235 672.797C693.398 632.319 671.418 598.78 671.032 598.394C669.49 597.623 669.49 597.623 716.536 681.664C746.228 734.478 755.869 753.368 755.869 755.681C755.869 760.693 754.326 763.391 748.156 770.33C737.745 781.896 733.117 795.003 729.647 822.374C725.79 852.829 715.379 874.417 685.686 911.041C668.333 932.629 665.634 936.484 661.392 945.351C655.993 956.145 654.451 962.313 653.679 976.191C652.908 990.841 654.451 1000.09 658.692 1013.97C662.549 1026.31 666.79 1034.4 677.202 1050.21C686.071 1064.09 691.47 1074.5 691.47 1078.35C691.47 1081.43 692.241 1081.43 706.124 1078.35C739.287 1070.64 766.666 1057.53 781.705 1041.34C790.96 1031.32 793.274 1025.92 793.274 1012.04C793.274 1003.18 792.888 1001.25 790.575 995.852C786.719 987.371 779.392 980.432 763.581 969.638C742.758 955.374 733.888 943.809 731.575 928.388C729.647 915.281 731.96 906.415 743.529 882.128C755.483 857.07 758.568 846.661 760.496 821.217C761.653 805.026 763.581 798.473 768.209 793.461C773.222 788.064 777.464 786.136 789.418 784.594C809.085 781.896 821.81 776.884 831.836 767.246C840.705 759.151 844.562 751.055 844.947 739.104L845.333 730.238L840.32 724.841C822.196 704.023 571.156 428 570 428C569.614 428 575.784 435.325 583.111 444.577ZM701.496 992.768C705.738 985.444 703.424 976.191 696.483 971.565C689.928 967.325 679.902 969.252 679.902 975.035C679.902 976.577 680.673 978.119 682.987 978.89C686.457 980.817 686.843 982.745 684.143 986.986C681.444 991.226 681.444 995.081 684.915 997.78C690.313 1002.02 697.64 999.707 701.496 992.768Z" fill="#FA48D2"/>
<path fill-rule="evenodd" clip-rule="evenodd" d="M857.672 789.991C848.417 792.69 839.548 802.713 836.849 812.736C835.306 818.904 836.077 830.084 838.777 833.553C843.019 838.951 846.875 840.493 857.672 840.493C878.881 840.493 897.006 831.24 898.934 820.061C900.862 810.809 892.764 798.087 881.581 792.304C875.796 789.22 863.842 788.064 857.672 789.991ZM882.352 809.267C885.437 804.64 884.28 799.629 878.496 796.159C868.084 789.606 852.273 795.003 852.273 805.026C852.273 810.038 860.372 815.435 868.084 815.435C873.097 815.435 880.038 812.351 882.352 809.267Z" fill="#FA48D2"/>
</g>
<defs>
<clipPath id="clip0_1762_648">
<rect width="649" height="747.113" fill="white" transform="translate(570 428)"/>
</clipPath>
</defs>
</svg>
