<svg width="1819" height="1695" viewBox="0 0 1819 1695" fill="none" xmlns="http://www.w3.org/2000/svg">
<g clip-path="url(#clip0_1762_1005)">
<path d="M1515 847C1515 512.868 1244.13 242 910 242C575.868 242 305 512.868 305 847C305 1181.13 575.868 1452 910 1452C1244.13 1452 1515 1181.13 1515 847Z" fill="black"/>
<path d="M1019.92 952.223C1033.05 951.626 1044.13 952.761 1056.67 957.061C1058.48 957.661 1058.48 957.661 1060.34 958.275C1085.46 967.602 1102.61 988.354 1113.96 1011.92C1125.95 1040.36 1124.69 1072.82 1113.32 1101.15C1104.1 1123.14 1091.37 1142 1075.06 1159.38C1072.53 1162.09 1070.08 1164.84 1067.67 1167.65C1060.66 1175.71 1052.95 1182.87 1044.85 1189.8C1043.61 1190.89 1042.36 1191.97 1041.12 1193.06C1032.67 1200.4 1024.05 1207.38 1015.13 1214.14C1010.86 1217.39 1006.63 1220.69 1002.39 1223.99C1001.04 1225.05 1001.04 1225.05 999.65 1226.13C996.995 1228.2 994.34 1230.26 991.688 1232.33C990.911 1232.94 990.134 1233.55 989.333 1234.17C975.089 1245.29 961.14 1256.57 947.974 1268.96C947.05 1269.8 946.126 1270.65 945.173 1271.52C925.52 1290.16 916.764 1306.79 905.443 1338.66C903.266 1297.29 930.23 1258.17 953.453 1226.28C955.201 1223.88 956.939 1221.47 958.676 1219.06C959.304 1218.19 959.932 1217.32 960.579 1216.42C961.879 1214.62 963.179 1212.81 964.479 1211.01C967.739 1206.49 971.012 1201.99 974.316 1197.5C998.227 1164.96 1021.79 1130.37 1015.99 1088.07C1012.49 1074.91 1004.5 1063.02 992.781 1056.02C982.429 1050.6 971.504 1047.96 960.001 1051.39C951.264 1055.35 946.008 1061.39 940.96 1069.37C936.409 1081.69 939.71 1095.83 944.952 1107.28C951.089 1119.5 958.678 1129.25 970.486 1136.34C972.765 1137.81 974.492 1139.38 976.328 1141.36C961.789 1137.24 950.361 1129.52 939.705 1118.92C938.98 1118.23 938.255 1117.55 937.508 1116.85C921.549 1100.48 916.615 1078.71 916.764 1056.59C917.622 1025.45 934.506 1000.3 956.54 979.36C973.888 963.925 996.627 953.382 1019.92 952.223ZM971.133 355.973C952.323 373.483 937.876 401.117 936.876 426.852C936.487 448.124 943.362 467.385 953.882 485.668C954.409 486.584 954.936 487.501 955.479 488.446C959.572 495.422 964.043 501.999 968.872 508.484C969.594 509.458 970.313 510.432 971.056 511.435C975.772 517.747 980.663 523.852 985.815 529.81C990.228 534.914 994.411 540.17 998.552 545.494C1001.31 549.044 1004.1 552.575 1006.93 556.066C1026.1 579.656 1043.95 604.451 1056.67 632.165C1057 632.883 1057.33 633.6 1057.67 634.338C1062.11 644.022 1065.78 653.76 1068.48 664.064C1068.7 664.851 1068.92 665.637 1069.14 666.448C1072.72 679.804 1073.65 692.905 1073.65 706.67C1073.65 708.215 1073.65 709.759 1073.66 711.351C1073.55 720.255 1072.77 728.623 1070.85 737.314C1070.51 738.973 1070.51 738.973 1070.16 740.666C1060.31 787.602 1024.54 822.905 991.767 855.467C989.364 857.855 986.963 860.246 984.565 862.64C979.485 867.706 974.401 872.769 969.315 877.829C963.384 883.734 957.452 889.641 951.527 895.552C949.18 897.892 946.829 900.227 944.478 902.564C937.512 909.502 930.677 916.447 924.347 923.98C922.629 925.879 920.907 927.774 919.179 929.664C913.591 935.867 908.283 942.261 903.081 948.789C902.131 949.982 901.18 951.174 900.201 952.402C888.752 966.938 878.782 982.256 870.018 998.549C868.925 1000.58 867.811 1002.59 866.693 1004.6C846.599 1042.39 836.988 1087.45 845.904 1129.67C846.313 1131.63 846.672 1133.59 847.023 1135.55C852.579 1162.61 869.514 1185.76 886.948 1206.38C900.915 1222.96 911.556 1238.24 910.169 1260.69C908.158 1270.97 908.158 1270.97 904.263 1274.86C904.246 1273.61 904.229 1272.35 904.212 1271.06C903.951 1257.67 903.951 1257.67 897.174 1246.51C896.484 1245.76 895.794 1245 895.084 1244.23C877.519 1227 850.402 1217.9 828.517 1207.69C801.042 1194.83 773.768 1180.43 751.859 1159.08C750.46 1157.77 749.061 1156.46 747.664 1155.15C733.591 1141.75 722.689 1126.9 714.051 1109.46C713.317 1108.05 713.317 1108.05 712.567 1106.61C709.078 1099.53 706.67 1092.19 704.378 1084.65C704.083 1083.69 703.789 1082.72 703.484 1081.72C699.43 1067.94 698.21 1054.73 698.251 1040.42C698.252 1039.54 698.252 1038.65 698.253 1037.73C698.308 1023.35 699.385 1009.92 703.419 996.047C703.685 995.077 703.953 994.106 704.226 993.107C713.211 960.949 731.04 933.373 753.039 908.621C753.702 907.855 754.365 907.09 755.047 906.303C763.645 896.521 772.909 887.392 782.126 878.198C785.013 875.318 787.894 872.431 790.774 869.544C792.632 867.685 794.491 865.828 796.351 863.971C797.199 863.12 798.047 862.27 798.921 861.393C803.621 856.713 808.444 852.262 813.467 847.929C816.633 845.146 819.61 842.198 822.574 839.203C823.175 838.6 823.776 837.996 824.397 837.374C826.285 835.479 828.17 833.579 830.054 831.681C831.326 830.402 832.6 829.123 833.873 827.845C836.212 825.496 838.55 823.145 840.887 820.793C845.697 815.953 850.526 811.134 855.371 806.33C857.442 804.269 859.513 802.211 861.583 800.151C862.614 799.129 863.645 798.108 864.707 797.057C870.001 791.782 875.128 786.448 879.993 780.777C882.661 777.681 885.453 774.711 888.239 771.722C893.886 765.589 899.192 759.294 904.263 752.671C904.896 751.849 905.53 751.027 906.183 750.179C939.235 707.174 968.149 660.201 963.334 603.812C962.728 600.213 961.893 596.708 960.971 593.178C960.649 591.775 960.329 590.373 959.997 588.928C955.089 569.232 945.731 551.89 936.161 534.107C926.442 516.036 917.602 498.61 912.534 478.58C912.265 477.644 911.996 476.709 911.72 475.746C905.288 450.286 911.896 421.509 924.606 399.202C936.627 380.221 959.131 358.762 972.785 354.529C972.241 355.006 971.695 355.482 971.133 355.973Z" fill="url(#paint0_linear_1762_1005)"/>
</g>
<defs>
<linearGradient id="paint0_linear_1762_1005" x1="698.25" y1="354.529" x2="698.25" y2="1338.66" gradientUnits="userSpaceOnUse">
<stop stop-color="#CCFDFF"/>
<stop offset="0.5" stop-color="#54EFDA"/>
<stop offset="1" stop-color="#2AA5DA"/>
</linearGradient>
<clipPath id="clip0_1762_1005">
<rect width="1210" height="1210" fill="white" transform="translate(305 242)"/>
</clipPath>
</defs>
</svg>
