<svg width="1819" height="1695" viewBox="0 0 1819 1695" fill="none" xmlns="http://www.w3.org/2000/svg">
<circle cx="910" cy="847" r="600" fill="white"/>
<g clip-path="url(#clip0_1762_795)">
<path d="M944.127 1000.44C846.158 1001.69 769.918 988.133 713.339 969.792C702.245 966.024 678.034 954.998 669.939 941.046C665.46 933.324 665.407 913.507 666.963 893.111C667.402 894.529 667.914 895.763 668.505 896.783C676.584 910.74 700.943 921.729 712.113 925.48C769.086 943.726 845.931 957.14 944.792 955.681C1054.72 954.057 1122.19 941.102 1161.82 925.75C1161.8 926.104 1161.78 926.458 1161.75 926.812C1160.11 952.175 1158.51 976.789 1093.53 988.347C1055.93 995.035 1007.06 999.642 944.127 1000.44Z" fill="#FF1100"/>
<path d="M944.127 1036.2C846.158 1037.45 769.918 1023.89 713.339 1005.55C702.245 1001.78 678.034 990.754 669.939 976.802C665.46 969.08 665.407 949.263 666.963 928.867C667.402 930.285 667.914 931.517 668.505 932.539C676.584 946.494 700.943 957.484 712.113 961.234C769.086 979.481 845.931 992.896 944.792 991.436C1054.72 989.813 1122.19 976.858 1161.82 961.506C1161.8 961.86 1161.78 962.214 1161.75 962.567C1160.11 987.929 1158.51 1012.54 1093.53 1024.1C1055.93 1030.79 1007.06 1035.4 944.127 1036.2Z" fill="#FDBF41"/>
<path d="M1185.16 999.735C1186.07 1022.68 1134.49 1069.24 920.907 1071.96C822.938 1073.2 746.698 1059.64 690.118 1041.31C679.025 1037.54 654.814 1026.51 646.719 1012.56C642.239 1004.84 642.186 985.021 643.742 964.625C644.181 966.043 644.693 967.275 645.284 968.296C653.363 982.252 677.723 993.242 688.892 996.992C745.866 1015.24 822.709 1028.65 921.57 1027.19C1091.79 1024.68 1160.22 994.996 1181.09 971.309L1185.16 999.735Z" fill="#F1ECE2"/>
<path d="M928.438 581.015C967.845 595.112 1026.18 673.048 944.271 872.018C906.699 963.282 852.737 1024.84 798.602 1065.14C787.695 1072.93 759.125 1088.1 732.102 1086.49C721.525 1085.86 701.544 1079.24 678.695 1070.22C683.993 1071.61 688.503 1072.48 691.991 1072.69C719.013 1074.32 747.584 1058.99 758.491 1051.11C812.626 1010.39 866.588 948.18 904.159 855.953C971.787 689.946 943.815 607.312 909.824 575.523L928.438 581.015Z" fill="#FF1100"/>
<path d="M962.221 583.278C1001.63 597.781 1059.97 677.963 978.054 882.663C940.482 976.556 886.52 1039.89 832.387 1081.35C821.478 1089.36 792.908 1104.97 765.885 1103.32C755.308 1102.67 735.327 1095.86 712.477 1086.57C717.775 1088.01 722.286 1088.9 725.774 1089.12C752.797 1090.79 781.367 1075.02 792.275 1066.92C846.409 1025.02 900.371 961.019 937.942 866.135C1005.57 695.348 977.598 610.334 943.608 577.629L962.221 583.278Z" fill="#FDBF41"/>
<path d="M991.775 602.206C1031.18 616.709 1089.52 696.89 1007.61 901.591C970.037 995.484 916.075 1058.82 861.942 1100.28C851.033 1108.29 822.463 1123.9 795.44 1122.24C784.862 1121.6 764.881 1114.79 742.031 1105.5C747.33 1106.94 751.841 1107.83 755.329 1108.05C782.351 1109.72 810.921 1093.94 821.83 1085.85C875.963 1043.95 929.925 979.947 967.497 885.063C1035.13 714.275 1007.15 629.261 973.163 596.557L991.775 602.206Z" fill="#F1ECE2"/>
<path d="M1034.7 910.783C1116.61 698.502 1058.28 615.352 1018.87 600.311L1000.26 594.453C1000.61 594.809 1000.97 595.171 1001.32 595.538C972.74 590.859 933.579 610.267 896.641 647.424C891.362 652.682 914.494 644.023 921.974 636.571C939.919 621.848 966.765 614.479 991.996 625.063C1048.93 648.944 1050.11 774.717 994.633 905.985C939.157 1037.25 854.366 1122.2 797.433 1098.32C789.822 1095.13 781.863 1089.16 775.251 1084.56C759.972 1070.92 753.084 1052.7 753.084 1005.69V1063.69C749.076 1057.73 745.694 1051.05 743.06 1043.55C742.527 1030.93 734.083 1009.9 731.482 1031.98C733.446 1080.16 754.342 1108.17 782.551 1124.89L782.42 1124.88C781.364 1124.81 780.548 1124.79 779.844 1124.77C777.149 1124.69 776.059 1124.66 769.132 1122.36C791.252 1132.06 803.361 1136.58 816.632 1137.09C847.718 1138.28 883.837 1120.16 894.745 1111.85C948.878 1068.86 997.129 1008.15 1034.7 910.783Z" fill="#007FFF"/>
<path d="M922.057 803.21C1020.02 801.964 1096.26 815.522 1152.85 833.862C1163.94 837.631 1188.15 848.656 1196.24 862.608C1200.72 870.329 1200.78 890.148 1199.22 910.542C1198.78 909.124 1198.27 907.892 1197.68 906.872C1189.6 892.915 1165.24 881.926 1154.07 878.175C1097.1 859.929 1020.25 846.513 921.392 847.974C811.464 849.596 743.988 862.551 704.359 877.905C704.383 877.551 704.406 877.197 704.428 876.843C706.074 851.48 707.671 826.865 772.654 815.308C810.256 808.62 859.124 804.012 922.057 803.21Z" fill="#FF1100"/>
<path d="M922.057 843.537C1020.02 842.29 1096.26 855.849 1152.85 874.188C1163.94 877.957 1188.15 888.982 1196.24 902.934C1200.72 910.655 1200.78 930.472 1199.22 950.868C1198.78 949.45 1198.27 948.218 1197.68 947.198C1189.6 933.241 1165.24 922.252 1154.07 918.501C1097.1 900.255 1020.25 886.84 921.392 888.3C811.464 889.922 743.988 902.877 704.359 918.231C704.383 917.877 704.406 917.523 704.428 917.169C706.074 891.806 707.671 867.191 772.654 855.634C810.256 848.946 859.124 844.338 922.057 843.537Z" fill="#FDBF41"/>
<path opacity="0.48" d="M1184.66 1013.08C1185.62 1012.31 1185.62 1012.23 1184.66 1011.46C1182.43 1009.63 1180.05 1008.03 1177.61 1006.51C1169.46 1001.44 1160.75 997.573 1151.83 994.218C1149.79 993.449 1147.81 992.522 1145.64 992.127C1145.04 991.436 1144.16 991.377 1143.39 991.121C1135.07 988.279 1126.59 985.951 1118.09 983.722C1117.38 983.664 1116.69 983.506 1116.07 983.15C1112.1 982.262 1108.12 981.355 1104.16 980.468C1096.79 978.83 1089.39 977.41 1081.97 976.127C1076.48 975.181 1070.96 974.293 1065.44 973.444C1061.14 972.793 1056.83 972.123 1052.49 971.806C1051.78 971.689 1051.06 971.549 1050.33 971.451C1035.13 969.538 1019.91 968.098 1004.62 967.013C994.647 966.322 984.67 965.77 974.675 965.375C961.622 964.862 948.551 964.625 935.48 964.625C919.276 964.625 903.09 965.04 886.923 965.849C868.24 966.776 849.594 968.236 831.005 970.367C827.968 970.722 824.893 970.918 821.894 971.59C821.279 971.412 820.683 971.59 820.067 971.648C806.823 973.326 793.636 975.397 780.527 977.943C772.781 979.442 765.073 981.098 757.422 982.973L757.268 983.23C757.268 983.23 755.288 1012.47 759.671 1041.02C767.226 1042.85 774.818 1044.49 782.43 1045.95C789.236 1047.25 796.059 1048.49 802.921 1049.5C812.533 1050.92 822.163 1052.36 831.832 1053.38C841.231 1054.39 850.613 1055.44 860.031 1056.15C865.605 1056.56 871.161 1057.05 876.736 1057.39C884.983 1057.88 893.248 1058.3 901.495 1058.59C909.029 1058.87 916.565 1059.09 924.1 1059.18C936.152 1059.34 948.225 1059.28 960.277 1059.03C971.886 1058.77 983.497 1058.32 995.088 1057.64C1008.91 1056.86 1022.71 1055.73 1036.49 1054.27C1057.5 1052.04 1078.4 1049.04 1099.1 1044.8C1117.19 1041.09 1135.07 1036.55 1152.41 1030.01C1159.96 1027.16 1167.36 1023.91 1174.4 1019.88C1177.97 1017.85 1181.43 1015.64 1184.66 1013.06V1013.08Z" fill="url(#paint0_linear_1762_795)"/>
<path d="M657.809 953.62C656.897 930.678 708.472 884.116 922.057 881.398C1020.02 880.15 1096.27 893.709 1152.85 912.05C1163.94 915.817 1188.15 926.842 1196.24 940.794C1200.72 948.515 1200.78 968.334 1199.22 988.728C1198.78 987.31 1198.27 986.078 1197.68 985.058C1189.6 971.102 1165.24 960.112 1154.07 956.361C1097.1 938.115 1020.25 924.7 921.392 926.16C751.17 928.674 682.74 958.358 661.873 982.045L657.809 953.62Z" fill="#F1ECE2"/>
<path d="M657.809 995.684C656.897 972.742 708.472 926.181 922.057 923.462C1020.02 922.214 1096.27 935.773 1152.85 954.114C1163.94 957.882 1188.15 968.906 1196.24 982.86C1200.28 989.815 1200.72 1006.59 1199.63 1024.76C1190.98 1011.27 1165.02 1002.1 1154.08 998.424C1097.1 980.178 1020.26 966.764 921.398 968.223C751.163 970.737 682.736 1000.43 661.874 1024.11L657.809 995.684Z" fill="#007FFF"/>
<path d="M676.81 1080.84C637.402 1066.22 579.065 985.409 660.976 779.102C698.548 684.472 752.51 620.639 806.645 578.856C817.552 570.78 846.122 555.046 873.145 556.717C888.422 557.661 923.312 571.553 958.13 587.224C954.548 587.596 951.09 587.977 947.789 588.34C935.818 589.659 925.911 590.75 919.589 590.367C892.567 588.726 863.997 604.176 853.089 612.105C798.955 653.131 744.993 715.81 707.421 808.728C639.374 977.013 668.116 1060.26 702.389 1091.85L676.81 1080.84Z" fill="#FF1100"/>
<path d="M710.589 1097.04C671.182 1082.27 612.844 1000.58 694.756 792.032C732.328 696.374 786.29 631.848 840.423 589.612C851.332 581.448 879.902 565.543 906.923 567.232C918.72 567.969 942.209 576.509 968.33 587.655C958.576 584.384 950.462 582.304 944.925 581.955C917.902 580.255 889.331 596.274 878.424 604.496C824.29 647.034 770.328 712.022 732.756 808.366C650.844 1018.41 711.076 1098.02 750.483 1112.9L784.261 1124.47L710.589 1097.04Z" fill="#FDBF41"/>
<path d="M742.253 1111.15C702.846 1096.22 644.508 1013.65 726.42 802.864C763.992 706.178 817.953 640.959 872.088 598.269C882.995 590.018 911.565 573.942 938.589 575.649C950.797 576.42 975.533 585.641 1002.75 597.485C993.546 594.548 985.887 592.691 980.593 592.35C953.571 590.607 925.217 605.049 914.31 613.476C860.175 657.072 806.215 723.677 768.643 822.419C698.701 1006.23 747.173 1096.34 782.147 1126.57L742.253 1111.15Z" fill="#F1ECE2"/>
<path d="M760.199 814.5C678.287 1026.78 736.625 1109.93 776.032 1124.97L794.643 1130.83C794.288 1130.47 793.932 1130.11 793.577 1129.74C822.16 1134.42 861.321 1115.01 898.26 1077.86C903.537 1072.6 880.406 1081.26 872.926 1088.71C854.981 1103.43 828.135 1110.8 802.903 1100.22C745.971 1076.34 744.791 950.564 800.266 819.297C855.742 688.029 940.534 603.079 997.467 626.96C1005.08 630.152 1013.04 636.125 1019.65 640.72C1034.93 654.362 1041.82 672.58 1041.82 719.592V661.591C1045.82 667.551 1049.21 674.233 1051.84 681.733C1052.37 694.352 1060.82 715.384 1063.42 693.3C1061.45 645.118 1040.56 617.112 1012.35 600.393L1012.48 600.401C1013.54 600.469 1014.35 600.492 1015.06 600.513C1017.75 600.59 1018.84 600.622 1025.77 602.917C1003.65 593.217 991.539 588.703 978.266 588.195C947.181 587.003 911.062 605.123 900.155 613.433C846.02 656.425 797.771 717.129 760.199 814.5Z" fill="#007FFF"/>
<path d="M939.113 1057.91C1104.32 1053.17 1173.24 1024.16 1195.91 1000.54L1198.06 1020.33L1199.1 1019.31C1199.78 1021.55 1200.02 1026.64 1198.99 1031.32C1196.1 1051.5 1136.07 1103.79 903.54 1103.79C895.05 1103.79 886.961 1103.69 879.262 1103.5C896.587 1088.07 911.362 1072.91 924.029 1058.22C929 1058.16 934.028 1058.05 939.113 1057.91Z" fill="#007FFF"/>
</g>
<defs>
<linearGradient id="paint0_linear_1762_795" x1="986.936" y1="954.11" x2="990.924" y2="1042.46" gradientUnits="userSpaceOnUse">
<stop offset="0.16" stop-color="#191919"/>
<stop offset="0.97" stop-color="#191919" stop-opacity="0"/>
</linearGradient>
<clipPath id="clip0_1762_795">
<rect width="582" height="582" fill="white" transform="translate(619 556)"/>
</clipPath>
</defs>
</svg>
