<svg width="2084" height="2084" viewBox="0 0 2084 2084" fill="none" xmlns="http://www.w3.org/2000/svg">
<path d="M1499.23 1146.7C1475.42 1204.18 1232.91 1192.37 991.888 1092.49C750.863 992.605 525.449 863.223 549.266 805.751C573.083 748.279 916.711 714.157 1028.81 882.545C1140.9 1050.93 1523.05 1089.23 1499.23 1146.7Z" fill="#7357FF"/>
<path d="M653.116 708.979C676.933 651.506 930.142 559.994 1171.17 659.878C1412.19 759.762 1607.67 1037.22 1583.85 1094.69C1560.03 1152.16 1214.65 1178.84 1102.56 1010.45C990.46 842.066 629.298 766.451 653.116 708.979Z" fill="#A391FF"/>
<path d="M655.355 920.841L620.927 1003.92C592.521 1072.46 603.523 1137.51 653.933 1199.07C705.923 1261.28 790.39 1316.62 907.333 1365.08C1025.86 1414.2 1124.71 1434.83 1203.88 1426.98C1284.64 1419.78 1339.22 1381.9 1367.63 1313.36L1402.05 1230.28L1537.17 1286.28L1672.29 1342.27L1638.94 1422.74C1608.37 1496.49 1553.25 1546.85 1473.56 1573.81C1393.88 1600.77 1299.83 1606.53 1191.42 1591.09C1083.02 1575.65 969.551 1543.37 851.027 1494.25C732.504 1445.13 629.466 1387.69 541.914 1321.92C455.943 1256.81 395.118 1186.87 359.442 1112.1C323.765 1037.34 321.209 963.076 351.772 889.325L385.121 808.852L655.355 920.841Z" fill="#7357FF"/>
<path d="M684.297 850.999L654.228 923.557C629.418 983.424 643.129 1041.94 695.36 1099.1C749.171 1156.92 834.549 1210.06 951.492 1258.52C1070.02 1307.64 1167.95 1330.47 1245.31 1327.01C1324.24 1324.2 1376.12 1292.87 1400.93 1233L1431 1160.44L1566.11 1216.43L1699.84 1273.35L1672.1 1342.71C1645.41 1407.13 1593.56 1449.57 1516.56 1470.05C1439.56 1490.53 1347.52 1491.46 1240.43 1472.83C1133.34 1454.2 1020.54 1420.33 902.015 1371.21C783.491 1322.1 679.793 1266.25 590.921 1203.67C503.629 1141.74 440.802 1076.63 402.439 1008.35C364.077 940.059 358.243 873.709 384.937 809.295L417.997 730.124L684.297 850.999Z" fill="#5B45CE"/>
<path d="M719.983 764.813L689.914 837.371C665.104 897.238 678.815 955.753 731.046 1012.92C784.857 1070.74 870.235 1123.88 987.178 1172.34C1105.7 1221.46 1203.64 1244.28 1281 1240.82C1359.93 1238.02 1411.8 1206.68 1436.61 1146.81L1466.68 1074.25L1601.8 1130.25L1734.34 1189.99L1707.79 1256.53C1681.09 1320.94 1629.25 1363.39 1552.25 1383.87C1475.25 1404.35 1383.2 1405.27 1276.12 1386.65C1169.03 1368.02 1056.22 1334.15 937.7 1285.03C819.177 1235.91 715.479 1180.06 626.607 1117.48C539.315 1055.56 476.488 990.449 438.125 922.161C399.763 853.874 393.928 787.523 420.622 723.109L452.509 646.77L719.983 764.813Z" fill="#4835AB"/>
<path d="M683.158 648.566C723.23 665.173 742.253 711.12 725.647 751.193C700.837 811.06 714.548 869.575 766.779 926.738C820.59 984.557 905.967 1037.7 1022.91 1086.16C1141.43 1135.28 1239.37 1158.11 1316.73 1154.64C1395.66 1151.84 1447.54 1120.5 1472.35 1060.63C1488.95 1020.56 1534.9 1001.54 1574.97 1018.15L1637.53 1044.07L1702.36 1070.94C1741.18 1087.02 1759.61 1131.53 1743.52 1170.35C1716.83 1234.76 1664.98 1277.21 1587.98 1297.69C1510.98 1318.17 1418.94 1319.09 1311.85 1300.47C1204.76 1281.84 1091.96 1247.97 973.433 1198.85C854.91 1149.73 751.212 1093.88 662.34 1031.3C575.048 969.377 512.221 904.27 473.858 835.983C435.496 767.695 429.661 701.345 456.355 636.931C472.441 598.114 516.949 579.687 555.766 595.773L683.158 648.566Z" fill="#372982"/>
<path d="M632.435 770.887C672.507 787.493 718.455 768.47 735.061 728.398C759.871 668.531 810.953 636.867 888.308 633.405C967.243 630.599 1065.18 653.427 1182.13 701.89C1300.65 751.007 1386.03 804.148 1438.26 861.311C1492.07 919.13 1506.57 977.972 1481.76 1037.84C1465.15 1077.91 1484.18 1123.86 1524.25 1140.47L1586.81 1166.39L1651.64 1193.26C1690.46 1209.34 1734.96 1190.92 1751.05 1152.1C1777.75 1087.69 1771.12 1021.01 1731.18 952.067C1691.23 883.125 1626.83 817.363 1537.96 754.783C1449.08 692.202 1345.39 636.353 1226.86 587.236C1108.34 538.118 995.533 504.245 888.446 485.618C782.94 467.645 692.477 469.226 617.057 490.361C541.636 511.495 490.58 554.269 463.886 618.683C447.799 657.5 466.226 702.008 505.043 718.094L632.435 770.887Z" fill="#372982"/>
<path d="M1580.45 715.277C1590.53 697.816 1593.25 677.067 1588.03 657.595C1582.81 638.122 1570.07 621.522 1552.61 611.445C1535.14 601.368 1514.4 598.64 1494.92 603.862C1475.45 609.083 1458.85 621.826 1448.77 639.288L1226.47 1019.28M1388.01 516.458C1370.55 506.381 1349.8 503.653 1330.33 508.874C1310.86 514.096 1294.26 526.839 1284.18 544.3L1104.07 851.26M1410.78 705.125L1246.18 610.138M1353.79 803.881L1189.19 708.894M1303.07 888.77L1138.48 793.783" stroke="url(#paint0_linear_1738_52)" stroke-width="38.0074" stroke-linecap="round" stroke-linejoin="round"/>
<defs>
<linearGradient id="paint0_linear_1738_52" x1="1470.31" y1="563.951" x2="1264.94" y2="931.743" gradientUnits="userSpaceOnUse">
<stop offset="0.61941" stop-color="#7357FF"/>
<stop offset="1" stop-color="#453499" stop-opacity="0"/>
</linearGradient>
</defs>
</svg>
