<svg width="804" height="251" viewBox="0 0 804 251" fill="none" xmlns="http://www.w3.org/2000/svg">
<path d="M224.105 143.468C219.962 153.466 177.775 151.413 135.846 134.037C93.9161 116.661 54.7024 94.1529 58.8457 84.1548C62.989 74.1568 122.768 68.2209 142.268 97.5142C161.769 126.807 228.248 133.47 224.105 143.468Z" fill="#7357FF"/>
<path d="M76.9117 67.32C81.055 57.3219 125.104 41.4021 167.034 58.7783C208.963 76.1545 242.969 124.421 238.826 134.419C234.682 144.417 174.598 149.059 155.098 119.766C135.597 90.4723 72.7683 77.318 76.9117 67.32Z" fill="#A391FF"/>
<path d="M77.3016 104.176L71.3124 118.628C66.3708 130.553 68.2847 141.869 77.0542 152.578C86.0986 163.401 100.793 173.027 121.137 181.458C141.755 190.003 158.952 193.592 172.725 192.225C186.774 190.973 196.269 184.384 201.211 172.46L207.2 158.008L230.705 167.749L254.211 177.49L248.409 191.489C243.092 204.319 233.502 213.079 219.64 217.769C205.777 222.459 189.417 223.461 170.558 220.775C151.699 218.089 131.96 212.473 111.341 203.929C90.7227 195.384 72.7979 185.391 57.567 173.95C42.6111 162.623 32.0299 150.456 25.8235 137.449C19.6171 124.442 19.1723 111.524 24.4893 98.6937L30.2908 84.6943L77.3016 104.176Z" fill="#7357FF"/>
<path d="M82.3361 92.0263L77.1052 104.649C72.7892 115.063 75.1744 125.243 84.2606 135.187C93.6219 145.246 108.474 154.49 128.818 162.921C149.437 171.465 166.475 175.437 179.932 174.835C193.664 174.346 202.687 168.895 207.003 158.48L212.234 145.858L235.74 155.599L259.003 165.5L254.178 177.567C249.534 188.772 240.515 196.156 227.12 199.719C213.724 203.282 197.712 203.443 179.083 200.202C160.454 196.962 140.83 191.069 120.211 182.525C99.5922 173.98 81.5526 164.264 66.0921 153.378C50.9065 142.605 39.9768 131.279 33.3032 119.399C26.6295 107.52 25.6145 95.977 30.2583 84.7713L36.0095 70.9985L82.3361 92.0263Z" fill="#5B45CE"/>
<path d="M88.5441 77.0332L83.3132 89.6556C78.9973 100.07 81.3824 110.25 90.4687 120.194C99.8299 130.252 114.682 139.497 135.026 147.928C155.645 156.472 172.683 160.444 186.14 159.841C199.872 159.353 208.895 153.902 213.211 143.487L218.442 130.865L241.948 140.606L265.006 150.999L260.386 162.573C255.742 173.779 246.723 181.163 233.328 184.726C219.932 188.289 203.92 188.45 185.291 185.209C166.662 181.969 147.038 176.076 126.419 167.531C105.8 158.987 87.7606 149.271 72.3001 138.384C57.1145 127.612 46.1849 116.285 39.5112 104.406C32.8375 92.5265 31.8226 80.9839 36.4664 69.7782L42.0134 56.498L88.5441 77.0332Z" fill="#4835AB"/>
<path d="M82.1381 56.8106C89.1093 59.6995 92.4186 67.6927 89.5296 74.6639C85.2137 85.0785 87.5988 95.258 96.6851 105.202C106.046 115.261 120.899 124.505 141.243 132.936C161.861 141.481 178.899 145.452 192.356 144.85C206.088 144.361 215.112 138.91 219.428 128.495C222.317 121.524 230.31 118.215 237.281 121.104L248.164 125.614L259.443 130.288C266.195 133.086 269.401 140.829 266.603 147.582C261.959 158.787 252.939 166.172 239.544 169.734C226.149 173.297 210.137 173.458 191.507 170.218C172.878 166.977 153.254 161.084 132.635 152.54C112.017 143.995 93.977 134.279 78.5165 123.393C63.3309 112.62 52.4013 101.294 45.7276 89.4142C39.0539 77.5347 38.039 65.9922 42.6828 54.7865C45.4812 48.0337 53.2239 44.8281 59.9767 47.6266L82.1381 56.8106Z" fill="#372982"/>
<path d="M73.3139 78.0899C80.2851 80.9788 88.2783 77.6695 91.1672 70.6983C95.4832 60.2837 104.37 54.7752 117.827 54.1731C131.558 53.6848 148.596 57.6561 168.94 66.0869C189.559 74.6315 204.411 83.8761 213.498 93.8204C222.859 103.879 225.381 114.115 221.065 124.53C218.176 131.501 221.486 139.494 228.457 142.383L239.34 146.893L250.618 151.567C257.371 154.366 265.114 151.16 267.912 144.407C272.556 133.202 271.404 121.602 264.455 109.609C257.506 97.6151 246.302 86.1751 230.841 75.2884C215.381 64.4016 197.341 54.6859 176.723 46.1413C156.104 37.5966 136.48 31.704 117.851 28.4635C99.4963 25.3369 83.759 25.612 70.6387 29.2886C57.5184 32.9652 48.6363 40.4063 43.9925 51.612C41.1941 58.3647 44.3997 66.1074 51.1525 68.9059L73.3139 78.0899Z" fill="#372982"/>
<path d="M518.554 39.4966L518.544 140.3C518.544 154.622 522.26 165.409 529.693 172.661C537.308 179.913 547.823 183.539 561.239 183.539C574.836 183.539 585.351 179.913 592.784 172.661C600.398 165.409 604.205 154.622 604.205 140.3L604.215 39.4966H635.216L635.206 139.756C635.206 155.166 631.852 168.219 625.145 178.916C618.437 189.612 609.463 197.589 598.222 202.846C586.982 208.104 574.564 210.733 560.967 210.733C547.37 210.733 534.951 208.104 523.711 202.846C512.652 197.589 503.859 189.612 497.332 178.916C490.806 168.219 487.543 155.166 487.543 139.756L487.552 39.4966H518.554Z" fill="#7357FF"/>
<path d="M384.045 183.15L500.417 183.539L523.711 202.846L540.119 206.742L556.527 210.638L346.562 210.638V185.927L435.966 66.8137H346.562V39.3262H473.727V64.0372L384.045 183.15Z" fill="#7357FF"/>
<path d="M678.782 59.2806C684.15 52.2468 691.462 46.3236 700.717 41.5109C709.972 36.6983 720.43 34.292 732.092 34.292C745.419 34.292 757.543 37.6238 768.464 44.2874C779.57 50.766 788.27 59.9285 794.563 71.775C800.857 83.6214 804.003 97.2264 804.003 112.59C804.003 127.953 800.857 141.743 794.563 153.96C788.27 165.992 779.57 175.432 768.464 182.28C757.543 188.944 745.419 192.276 732.092 192.276C720.43 192.276 710.065 189.962 700.995 185.335C691.925 180.522 684.521 174.599 678.782 167.565V230.542H647.13V39.4966H678.782V59.2806ZM771.796 112.59C771.796 102.039 769.575 92.969 765.132 85.3799C760.875 77.6057 755.137 71.775 747.918 67.8878C740.884 63.8156 733.295 61.7795 725.15 61.7795C717.191 61.7795 709.602 63.8156 702.383 67.8878C695.349 71.9601 689.611 77.8833 685.168 85.6575C680.911 93.4318 678.782 102.594 678.782 113.145C678.782 123.696 680.911 132.951 685.168 140.91C689.611 148.685 695.349 154.608 702.383 158.68C709.602 162.752 717.191 164.788 725.15 164.788C733.295 164.788 740.884 162.752 747.918 158.68C755.137 154.423 760.875 148.314 765.132 140.355C769.575 132.396 771.796 123.141 771.796 112.59Z" fill="#7357FF"/>
<path d="M238.234 68.4157C239.987 65.3781 240.461 61.7685 239.553 58.3811C238.644 54.9936 236.428 52.1057 233.39 50.3527C230.352 48.5997 226.743 48.1251 223.355 49.0335C219.968 49.9418 217.08 52.1586 215.327 55.1963L176.655 121.301M204.757 33.8283C201.719 32.0753 198.11 31.6008 194.722 32.5091C191.335 33.4175 188.447 35.6343 186.694 38.6719L155.361 92.0718M208.717 66.6496L180.084 50.1253M198.803 83.8296L170.169 67.3053M189.981 98.5971L161.347 82.0728" stroke="url(#paint0_linear_1460_17)" stroke-width="6.61189" stroke-linecap="round" stroke-linejoin="round"/>
<defs>
<linearGradient id="paint0_linear_1460_17" x1="219.073" y1="42.0905" x2="183.347" y2="106.073" gradientUnits="userSpaceOnUse">
<stop offset="0.61941" stop-color="#7357FF"/>
<stop offset="1" stop-color="#453499" stop-opacity="0"/>
</linearGradient>
</defs>
</svg>
