<svg width="1663" height="1441" viewBox="0 0 1663 1441" fill="none" xmlns="http://www.w3.org/2000/svg">
<path d="M1288.23 824.704C1264.42 882.176 1021.91 870.373 780.888 770.489C539.863 670.605 314.449 541.223 338.266 483.751C362.083 426.279 705.711 392.157 817.806 560.545C929.901 728.932 1312.05 767.232 1288.23 824.704Z" fill="#7357FF"/>
<path d="M442.116 386.979C465.933 329.506 719.142 237.994 960.168 337.878C1201.19 437.762 1396.67 715.215 1372.85 772.687C1349.03 830.159 1003.65 856.841 891.555 688.453C779.46 520.066 418.298 444.451 442.116 386.979Z" fill="#A391FF"/>
<path d="M444.355 598.84L409.927 681.916C381.521 750.462 392.523 815.513 442.933 877.071C494.923 939.283 579.39 994.621 696.333 1043.08C814.857 1092.2 913.707 1112.83 992.882 1104.98C1073.64 1097.78 1128.22 1059.9 1156.63 991.358L1191.05 908.282L1326.17 964.276L1461.29 1020.27L1427.94 1100.74C1397.37 1174.49 1342.25 1224.85 1262.56 1251.81C1182.88 1278.77 1088.83 1284.53 980.423 1269.09C872.016 1253.65 758.551 1221.37 640.027 1172.25C521.504 1123.13 418.466 1065.69 330.914 999.925C244.943 934.813 184.118 864.873 148.442 790.105C112.765 715.336 110.209 641.076 140.772 567.325L174.121 486.852L444.355 598.84Z" fill="#7357FF"/>
<path d="M473.297 528.999L443.228 601.557C418.418 661.424 432.129 719.939 484.36 777.103C538.171 834.921 623.549 888.062 740.492 936.524C859.016 985.642 956.955 1008.47 1034.31 1005.01C1113.24 1002.2 1165.12 970.866 1189.93 910.998L1220 838.441L1355.11 894.435L1488.84 951.348L1461.1 1020.71C1434.41 1085.13 1382.56 1127.57 1305.56 1148.05C1228.56 1168.53 1136.52 1169.46 1029.43 1150.83C922.343 1132.2 809.538 1098.33 691.015 1049.21C572.491 1000.1 468.793 944.247 379.921 881.666C292.629 819.741 229.802 754.634 191.439 686.347C153.077 618.06 147.243 551.709 173.937 487.295L206.997 408.124L473.297 528.999Z" fill="#5B45CE"/>
<path d="M508.983 442.813L478.914 515.371C454.104 575.238 467.815 633.753 520.046 690.917C573.857 748.735 659.235 801.876 776.178 850.339C894.701 899.456 992.64 922.284 1070 918.823C1148.93 916.017 1200.8 884.68 1225.61 824.813L1255.68 752.255L1390.8 808.249L1523.34 867.994L1496.79 934.528C1470.09 998.941 1418.25 1041.39 1341.25 1061.87C1264.25 1082.35 1172.2 1083.27 1065.12 1064.65C958.029 1046.02 845.224 1012.15 726.7 963.028C608.177 913.91 504.479 858.061 415.607 795.481C328.315 733.555 265.488 668.449 227.125 600.161C188.763 531.874 182.928 465.523 209.622 401.109L241.509 324.77L508.983 442.813Z" fill="#4835AB"/>
<path d="M472.158 326.566C512.23 343.173 531.253 389.12 514.647 429.193C489.837 489.06 503.548 547.575 555.779 604.738C609.59 662.557 694.967 715.697 811.911 764.16C930.434 813.278 1028.37 836.106 1105.73 832.645C1184.66 829.838 1236.54 798.501 1261.35 738.634C1277.95 698.562 1323.9 679.539 1363.97 696.145L1426.53 722.07L1491.36 748.938C1530.18 765.024 1548.61 809.532 1532.52 848.349C1505.83 912.763 1453.98 955.21 1376.98 975.689C1299.98 996.169 1207.94 997.095 1100.85 978.467C993.762 959.84 880.957 925.967 762.433 876.849C643.91 827.732 540.212 771.883 451.34 709.302C364.048 647.377 301.221 582.27 262.858 513.983C224.496 445.695 218.661 379.345 245.355 314.931C261.441 276.114 305.949 257.687 344.766 273.773L472.158 326.566Z" fill="#372982"/>
<path d="M421.435 448.887C461.507 465.493 507.455 446.47 524.061 406.398C548.871 346.531 599.953 314.867 677.308 311.405C756.243 308.599 854.182 331.427 971.125 379.89C1089.65 429.007 1175.03 482.148 1227.26 539.311C1281.07 597.13 1295.57 655.972 1270.76 715.839C1254.15 755.912 1273.18 801.859 1313.25 818.466L1375.81 844.391L1440.64 871.259C1479.46 887.345 1523.96 868.918 1540.05 830.101C1566.75 765.687 1560.12 699.009 1520.18 630.067C1480.23 561.125 1415.83 495.363 1326.96 432.783C1238.08 370.202 1134.39 314.353 1015.86 265.236C897.338 216.118 784.533 182.245 677.446 163.618C571.94 145.645 481.477 147.226 406.057 168.361C330.636 189.495 279.58 232.269 252.886 296.683C236.799 335.5 255.226 380.008 294.043 396.094L421.435 448.887Z" fill="#372982"/>
<path d="M1369.45 393.277C1379.53 375.816 1382.25 355.067 1377.03 335.595C1371.81 316.122 1359.07 299.522 1341.61 289.445C1324.14 279.368 1303.4 276.64 1283.92 281.862C1264.45 287.083 1247.85 299.826 1237.77 317.288L1015.47 697.279M1177.01 194.458C1159.55 184.381 1138.8 181.653 1119.33 186.874C1099.86 192.096 1083.26 204.839 1073.18 222.3L893.069 529.26M1199.78 383.125L1035.18 288.138M1142.79 481.881L978.192 386.894M1092.07 566.77L927.48 471.783" stroke="url(#paint0_linear_1741_65)" stroke-width="38.0074" stroke-linecap="round" stroke-linejoin="round"/>
<defs>
<linearGradient id="paint0_linear_1741_65" x1="1259.31" y1="241.951" x2="1053.94" y2="609.743" gradientUnits="userSpaceOnUse">
<stop offset="0.61941" stop-color="#7357FF"/>
<stop offset="1" stop-color="#453499" stop-opacity="0"/>
</linearGradient>
</defs>
</svg>
