<svg width="1695" height="1695" viewBox="0 0 1695 1695" fill="none" xmlns="http://www.w3.org/2000/svg">
<g clip-path="url(#clip0_1746_113)">
<path d="M251.001 345.247C251.001 312.961 251.001 296.828 257.087 284.404C262.912 272.511 272.521 262.902 284.414 257.077C296.829 251 312.962 251 345.248 251H1349.75C1382.03 251 1398.18 251 1410.6 257.086C1422.48 262.911 1432.09 272.521 1437.92 284.413C1444 296.828 1444 312.971 1444 345.256V1349.76C1444 1382.04 1444 1398.19 1437.92 1410.61C1432.09 1422.49 1422.48 1432.1 1410.6 1437.93C1398.18 1444.01 1382.03 1444.01 1349.75 1444.01H345.248C312.962 1444.01 296.829 1444.01 284.405 1437.93C272.512 1432.1 262.903 1422.49 257.077 1410.61C250.991 1398.19 250.991 1382.04 250.991 1349.76V345.247H251.001Z" fill="white"/>
</g>
<defs>
<clipPath id="clip0_1746_113">
<rect width="1193" height="1193" fill="white" transform="translate(251 251)"/>
</clipPath>
</defs>
</svg>
