<svg width="1819" height="1695" viewBox="0 0 1819 1695" fill="none" xmlns="http://www.w3.org/2000/svg">
<g filter="url(#filter0_d_1462_41)">
<path d="M1540.92 850.421C1540.92 856.82 1540.83 863.218 1540.65 869.616H1539.91H1233.72V855.631H938.308C938.308 852.706 938.399 849.781 938.399 846.948C938.399 844.114 938.399 841.099 938.308 838.265H1233.72V824.372H1234.18H1540.37C1540.74 833.055 1540.92 841.738 1540.92 850.421ZM933.098 787.445L1222.21 751.89L1223.94 765.783L1529.22 728.217C1526.3 713.227 1522.83 698.42 1518.89 683.887L1218.36 720.904L1220.1 734.798L929.625 770.536C930.905 776.203 932.093 781.869 933.098 787.628V787.445ZM918.017 731.507L1194.33 662.499L1197.71 676.026L1490.92 602.813C1484.89 588.646 1478.4 574.661 1471.46 561.042L1186.83 632.153L1190.21 645.68L911.619 715.329C913.904 720.722 916.006 726.114 918.017 731.598V731.507ZM893.521 679.134L1151.82 581.608L1156.76 594.678L1430.05 491.486C1421.19 478.507 1411.86 465.893 1401.99 453.645L1140.76 552.268L1145.7 565.338L884.29 664.053C887.488 668.988 890.596 674.016 893.521 679.134ZM859.611 630.691L1087.75 511.777L1094.15 524.208L1346.42 392.68C1334.81 381.437 1322.75 370.744 1310.31 360.415L1073.21 483.991L1079.62 496.422L847.637 617.346C851.659 621.734 855.681 626.121 859.519 630.691H859.611ZM804.587 578.409L1011.16 447.064L1018.65 458.855L1246.6 313.891C1232.25 304.751 1217.63 296.251 1202.55 288.299L994.429 420.649L1001.92 432.44L789.414 567.532C794.624 571.005 799.651 574.661 804.678 578.409H804.587ZM755.778 547.881L928.894 405.933L937.759 416.719L1132.72 256.765C1116.17 250.459 1099.18 244.792 1081.99 239.856L909.059 381.712L917.926 392.498L738.503 539.654C744.353 542.214 750.111 544.956 755.778 547.881ZM691.157 522.745L827.894 386.648L837.675 396.519L1011.43 223.861C992.601 220.753 973.498 218.468 954.12 217.005L805.958 364.437L815.738 374.308L671.323 517.992C677.996 519.364 684.576 520.917 691.157 522.745ZM615.568 511.32L724.611 379.152L735.396 388.019L877.343 216C855.773 217.005 834.475 219.108 813.544 222.215L700.48 359.227L711.265 368.093L593.174 511.228C596.465 511.137 599.847 511.045 603.137 511.045C607.341 511.045 611.455 511.045 615.568 511.228V511.32ZM550.215 515.25L634.214 385.277L645.913 392.863L747.461 235.651C724.244 241.684 701.577 248.996 679.458 257.496L607.981 368.185L619.681 375.771L526.634 519.82C534.403 517.992 542.263 516.439 550.215 515.159V515.25ZM477.642 535.45L538.059 422.203L550.307 428.784L630.283 278.976C604.599 291.498 579.921 305.665 556.339 321.387L510.364 407.487L522.703 414.068L451.593 547.333C460.002 543.037 468.685 539.106 477.55 535.541L477.642 535.45ZM425.543 562.048L451.227 489.109L464.389 493.77L514.294 352.097C488.976 372.206 465.212 394.142 443.183 417.815L421.704 478.78L434.866 483.442L401.23 578.866C409.091 572.925 417.134 567.35 425.451 562.139L425.543 562.048ZM361.47 614.238L372.804 561.225L386.423 564.15L409.274 457.393C385.234 487.921 363.938 520.734 345.749 555.375L355.894 557.569L335.055 645.315C343.19 634.438 352.056 624.019 361.47 614.238ZM314.398 676.209V606.013C297.397 650.891 285.332 706.737 278.843 761.487C286.795 731.142 298.86 702.533 314.398 676.209ZM279.3 934.237C285.972 980.943 297.672 1026 313.941 1068.87V1017.05C298.951 991.455 287.16 963.668 279.3 934.237ZM337.248 1051.68L355.438 1136.51L345.292 1138.7C363.481 1173.43 384.778 1206.16 408.816 1236.69L385.966 1129.93L372.347 1132.85L360.83 1079.2C352.513 1070.43 344.561 1061.29 337.248 1051.59V1051.68ZM400.59 1114.76L434.409 1210.73L421.247 1215.39L442.726 1276.35C464.754 1300.03 488.519 1321.97 513.837 1342.07L463.932 1200.4L450.77 1205.06L424.995 1131.75C416.677 1126.46 408.542 1120.88 400.682 1114.94L400.59 1114.76ZM451.044 1146.47L522.338 1280.1L509.998 1286.69L555.974 1372.79C579.555 1388.5 604.234 1402.67 629.918 1415.2L549.941 1265.39L537.602 1271.97L477.002 1158.44C468.137 1154.88 459.453 1150.86 450.953 1146.56L451.044 1146.47ZM526.085 1174.07L619.224 1318.31L607.524 1325.89L679 1436.59C701.12 1445.08 723.788 1452.39 747.003 1458.43L645.456 1301.22L633.756 1308.8L549.667 1178.65C541.715 1177.37 533.763 1175.81 525.994 1173.98L526.085 1174.07ZM592.626 1182.85L710.717 1325.98L699.932 1334.85L812.996 1471.87C833.927 1474.97 855.223 1477.07 876.794 1478.08L734.847 1305.97L724.061 1314.84L615.02 1182.67C611.089 1182.85 607.068 1182.85 603.045 1182.85C599.572 1182.85 596.008 1182.85 592.534 1182.67L592.626 1182.85ZM670.957 1176.09L815.281 1319.68L805.501 1329.55L953.664 1476.98C973.041 1475.52 992.144 1473.24 1010.97 1470.13L837.308 1297.38L827.437 1307.34L690.792 1171.34C684.302 1173.07 677.629 1174.71 670.957 1176.09ZM738.229 1154.61L917.468 1301.67L908.603 1312.46L1081.53 1454.31C1098.72 1449.38 1115.72 1443.71 1132.26 1437.41L937.211 1277.45L928.345 1288.23L755.413 1146.38C749.746 1149.31 743.988 1152.04 738.138 1154.61H738.229ZM789.049 1126.64L1001.28 1261.64L993.789 1273.43L1201.91 1405.78C1216.99 1397.83 1231.71 1389.23 1245.96 1380.19L1018.01 1235.23L1010.52 1247.01L804.221 1115.85C799.195 1119.6 794.167 1123.25 788.957 1126.73L789.049 1126.64ZM847.546 1076.92L1079.25 1197.66L1072.85 1210.09L1309.94 1333.66C1322.38 1323.33 1334.44 1312.64 1346.05 1301.4L1093.78 1169.87L1087.38 1182.3L859.519 1063.57C855.681 1068.14 851.75 1072.62 847.637 1076.92H847.546ZM884.198 1030.12L1145.24 1128.74L1140.31 1141.81L1401.54 1240.43C1411.31 1228.19 1420.64 1215.57 1429.6 1202.59L1156.3 1099.4L1151.37 1112.47L893.43 1015.04C890.505 1020.15 887.397 1025.18 884.198 1030.12ZM911.528 978.932L1189.66 1048.4L1186.29 1061.93L1470.91 1133.04C1477.95 1119.42 1484.43 1105.43 1490.47 1091.27L1197.25 1018.05L1193.87 1031.58L917.926 962.663C915.915 968.147 913.721 973.54 911.528 978.932ZM929.625 923.725L1219.64 959.372L1217.9 973.265L1518.43 1010.28C1522.37 995.659 1525.84 980.852 1528.77 965.953L1223.48 928.387L1221.75 942.28L933.098 906.725C932.093 912.483 930.905 918.15 929.625 923.817V923.725Z" fill="white"/>
</g>
<defs>
<filter id="filter0_d_1462_41" x="233.921" y="216" width="1351.92" height="1351.92" filterUnits="userSpaceOnUse" color-interpolation-filters="sRGB">
<feFlood flood-opacity="0" result="BackgroundImageFix"/>
<feColorMatrix in="SourceAlpha" type="matrix" values="0 0 0 0 0 0 0 0 0 0 0 0 0 0 0 0 0 0 127 0" result="hardAlpha"/>
<feOffset dy="44.9213"/>
<feGaussianBlur stdDeviation="22.4607"/>
<feComposite in2="hardAlpha" operator="out"/>
<feColorMatrix type="matrix" values="0 0 0 0 0 0 0 0 0 0 0 0 0 0 0 0 0 0 0.25 0"/>
<feBlend mode="normal" in2="BackgroundImageFix" result="effect1_dropShadow_1462_41"/>
<feBlend mode="normal" in="SourceGraphic" in2="effect1_dropShadow_1462_41" result="shape"/>
</filter>
</defs>
</svg>
