<svg width="1695" height="1695" viewBox="0 0 1695 1695" fill="none" xmlns="http://www.w3.org/2000/svg">
<path d="M1370.91 1063.11V351.904C1369.42 292.513 1321.91 245 1262.51 245H523.061C362.697 247.97 235 378.63 235 538.986C235 592.438 249.848 639.951 272.121 680.04C291.424 714.19 321.121 745.37 349.333 769.126C358.242 776.55 353.788 773.581 379.03 788.428C413.182 809.215 453.273 819.609 453.273 819.609V1244.26C454.758 1265.04 456.242 1284.34 462.182 1302.16C478.515 1361.55 520.091 1407.58 576.515 1429.85C600.273 1438.76 627 1444.7 655.212 1446.18L1244.7 1449.15C1362 1449.15 1458.52 1354.13 1458.52 1235.35C1458.52 1165.56 1424.36 1101.72 1370.91 1063.11Z" fill="#FFEEDA"/>
<path d="M1385.76 1239.8C1382.79 1315.52 1320.42 1376.4 1244.7 1376.4L837.848 1374.92C870.514 1337.8 889.817 1288.8 889.817 1235.35C889.817 1152.2 840.817 1094.29 840.817 1094.29H1246.18C1323.39 1094.29 1387.24 1158.14 1387.24 1235.35L1385.76 1239.8Z" fill="#EBC28E"/>
<path d="M387.939 709.735C340.424 665.192 307.758 607.286 307.758 538.986V531.562C312.212 415.749 407.242 320.724 523.061 317.754H1264C1283.3 319.239 1298.15 332.602 1298.15 351.904V979.965C1314.48 982.934 1323.39 985.904 1339.73 990.358C1353.09 994.813 1370.91 1005.21 1370.91 1005.21V351.904C1369.42 292.513 1321.91 245 1262.51 245H523.061C362.697 247.97 235 378.63 235 538.986C235 632.527 278.061 712.705 346.364 767.642C350.818 772.096 355.273 776.55 368.636 776.55C390.909 776.55 405.758 758.733 404.273 740.916C404.273 724.583 398.333 718.644 387.939 709.735Z" fill="#101010"/>
<path d="M1244.7 1021.54H664.122C625.516 1021.54 594.334 1052.72 594.334 1092.81V1175.96C595.819 1214.56 628.486 1247.23 667.092 1247.23H710.152V1175.96H667.092V1094.29C667.092 1094.29 677.486 1094.29 690.849 1094.29C763.607 1094.29 818.546 1162.59 818.546 1235.35C818.546 1300.68 759.152 1382.34 661.152 1376.4C573.546 1370.46 526.031 1293.25 526.031 1235.35V527.108C526.031 495.928 499.304 469.202 468.122 469.202H410.213V541.956H453.273V1236.83C450.304 1377.89 554.243 1449.15 661.152 1449.15L1246.18 1450.64C1363.49 1450.64 1460 1355.61 1460 1236.83C1458.52 1118.05 1363.49 1021.54 1244.7 1021.54ZM1385.76 1239.8C1382.79 1315.52 1320.42 1376.4 1244.7 1376.4L837.849 1374.92C870.516 1337.8 889.819 1288.8 889.819 1235.35C889.819 1152.2 840.819 1094.29 840.819 1094.29H1246.18C1323.39 1094.29 1387.24 1158.14 1387.24 1235.35L1385.76 1239.8Z" fill="#101010"/>
<path d="M1088.79 553.834H650.757V482.565H1088.79C1108.09 482.565 1124.42 498.897 1124.42 518.2C1124.42 537.502 1109.57 553.834 1088.79 553.834Z" fill="#101010"/>
<path d="M1088.79 895.332H650.757V822.578H1088.79C1108.09 822.578 1124.42 838.911 1124.42 858.213C1124.42 879 1109.57 895.332 1088.79 895.332Z" fill="#101010"/>
<path d="M1166 724.583H650.757V651.829H1166C1185.3 651.829 1201.64 668.162 1201.64 687.464C1201.64 708.251 1185.3 724.583 1166 724.583Z" fill="#101010"/>
</svg>
