<svg width="1463" height="2129" viewBox="0 0 1463 2129" fill="none" xmlns="http://www.w3.org/2000/svg">
<path d="M798.778 359.364C808.529 358.591 811.857 366.626 817.977 372.578C840.202 398.87 868.782 419.144 902.911 426.44C912.561 427.146 921.001 426.911 929.306 432.627C936.568 437.502 935.795 446.311 934.282 453.943C926.481 464.669 914.578 461.945 903.012 461.071C882.165 459.894 862.596 453.17 844.103 443.756C819.692 430.24 795.483 409.696 782.874 384.413C776.485 373.418 785.9 358.086 798.778 359.364Z" fill="#725BF1"/>
<path d="M631.936 378.461C628.54 395.373 612.468 410.503 600.464 422.137C570.068 448.9 530.526 464.164 489.841 461.441C477.064 458.348 474.711 441.705 483.991 433.4C490.749 427.583 502.887 427.146 511.293 426.205C528.677 421.599 547.876 415.345 561.931 403.745C576.86 392.112 589.872 377.755 602.683 363.903C614.351 353.043 633.718 362.188 631.936 378.461Z" fill="#725BF1"/>
<path d="M644.808 462.92C649.683 457.238 658.963 462.483 662.494 467.425C683.845 494.323 693.529 529.357 695.109 563.248C695.076 584.767 691.209 606.756 684.383 627.164C672.783 660.652 648.506 690.273 613.907 701.167C606.51 704.058 598.138 703.285 590.404 705.403C560.042 707.42 530.15 692.593 510.783 669.461C493.433 648.38 483.144 622.995 478.168 596.299C476.487 581.001 476.419 565.535 476.924 550.169C477.159 545.429 482.64 544.454 485.901 542.335C496.291 541.495 506.076 538.603 516.331 537.191C564.48 524.247 612.764 502.56 644.808 462.92Z" fill="#725BF1"/>
<path d="M770.296 464.097C777.727 472.401 784.687 480.908 793.362 488.036C821.068 512.681 859.701 526.567 894.805 536.821C903.278 538.065 911.213 540.991 919.787 541.495C927.084 542.066 934.414 544.185 937.642 551.38C939.928 583.388 934.078 615.161 919.922 643.975C906.741 671.008 884.146 692.795 855.33 702.209C839.191 705 825.237 708.227 808.829 703.52C787.074 700.73 766.563 686.238 753.215 669.226C737.983 649.624 725.643 625.651 722.785 600.771C713.303 555.011 723.02 500.879 754.089 464.87C758.057 460.331 766.395 458.381 770.296 464.097Z" fill="#725BF1"/>
<path d="M650.698 495.87C660.954 510.092 665.661 532.518 668.452 549.767C671.074 576.261 668.082 602.453 656.515 626.627C656.112 628.577 654.834 629.552 652.716 629.552C654.733 602.621 639.905 576.496 613.275 568.931C598.312 565.737 578.743 569.099 570.976 583.59C578.945 593.173 593.336 608.437 588.864 622.054C574.271 621.449 562.94 613.111 549.389 610.32C539.975 633.587 546.431 656.416 559.712 676.421C533.687 662.435 514.253 639.033 506.721 610.32C502.383 595.56 501.139 581.17 500.164 565.872C502.619 564.123 505.208 563.047 507.965 562.644C536.041 558.239 562.604 548.96 588.561 537.494C608.668 527.408 627.195 514.194 644.209 499.501C646.125 497.45 648.277 496.24 650.698 495.87Z" fill="#F8F7FC"/>
<path d="M762.36 496.407C766.16 494.995 769.757 499.938 772.683 501.888C796.858 522.397 822.883 539.377 853.313 548.992C872.714 556.49 892.35 560.121 912.356 565.097C911.314 577.739 912.76 589.743 908.624 601.88C902.202 634.561 883.272 661.66 852.943 676.252C866.628 656.483 873.353 632.409 863.265 609.378C850.018 613.614 839.796 621.314 825.035 621.011C823.152 618.12 822.917 614.455 824.262 610.05C828.599 600.737 833.374 592.466 840.771 585.204C843.495 580.564 837.274 577.302 834.383 574.68C811.048 559.18 778.903 570.645 767.303 595.156C760.881 607.092 760.074 619.734 759.939 632.981C746.927 610.017 744.54 585.876 744.809 559.886C746.086 538.469 750.02 514.53 762.36 496.407Z" fill="#F8F7FC"/>
<path d="M697.906 745.985C721.107 744.741 744.307 752.81 765.894 760.712C774.838 764.746 786.438 767.638 793.264 774.833C795.752 780.549 798.61 785.39 795.785 791.778C791.683 801.058 781.697 806.27 771.879 802.571C746.156 790.232 720.064 780.918 691.181 781.154C665.493 782.364 640.14 791.711 617.444 803.412C611.426 803.378 606.954 804.521 602.145 800.016C590.982 793.527 592.495 773.992 604.297 769.285C622.286 761.014 641.452 752.777 661.021 749.381C672.285 745.01 686.003 746.321 697.906 745.985Z" fill="#725BF1"/>
<path d="M536.474 0.984472C562.667 -1.46988 588.322 0.749216 613.843 6.70029C642.188 13.7273 665.422 28.0505 689.9 43.2813C716.026 60.9666 736.671 83.6284 755.87 108.442C764.982 122.764 776.448 135.238 785.123 149.898C794.538 165.834 806.272 180.595 803.717 200.264C801.06 210.787 795.21 221.58 785.661 227.363C775.473 235.029 761.72 234.054 749.885 231.667C737.646 227.263 729.576 215.596 723.625 204.635C702.038 164.961 672.684 127.035 634.051 102.726C612.599 88.7725 585.935 78.9208 560.045 80.1983C525.849 78.2819 492.662 96.4377 466.133 116.409C430.659 146.064 407.628 188.698 400.298 234.189C398.953 249.655 399.759 265.323 399.625 280.822C399.759 492.777 399.557 703.218 399.793 915.407C402.281 916.954 405.24 917.559 408.636 917.257C591.348 917.156 774.094 917.088 956.806 917.29C963.767 916.752 972.98 918.972 979.099 915.374C979.637 756.509 978.426 597.678 978.83 438.847C977.72 388.447 978.426 337.98 978.224 287.547C979.132 256.749 976.04 228.271 985.253 198.65C993.524 162.506 1011.28 128.312 1034.54 99.5313C1056.84 75.626 1078.05 53.1659 1108.11 38.8429C1133.8 25.932 1161.27 16.4841 1189.42 10.8692C1207.61 10.5666 1227.68 8.1803 1245.43 12.2149C1294.59 17.9308 1339.11 44.8283 1375.26 77.5763C1391.4 92.8407 1401.08 111.333 1415.13 128.043C1425.39 145.157 1437.22 160.993 1444.45 179.787C1451.01 195.623 1459.05 209.879 1462.14 226.959C1461.87 247.973 1449.09 265.826 1427.61 268.953C1411.3 271.576 1393.88 262.767 1386.55 247.906C1371.25 212.771 1356.86 177.4 1330.37 149.292C1316.35 130.531 1297.72 115.939 1276.91 105.348C1247.96 88.7721 1212.28 87.394 1180.37 94.8917C1132.96 110.291 1088.78 146.267 1071.36 193.909C1065.92 208.737 1061.17 224.707 1059.22 240.408C1058.38 295.313 1059.26 350.286 1059.16 405.225C1059.39 579.018 1059.7 752.811 1059.83 926.604L1060.74 929.596C1069.48 934.774 1080.04 937.296 1089.32 941.532C1138.68 961.369 1183.63 994.453 1221.06 1031.98C1257.64 1069.43 1287.36 1114.35 1309.99 1161.46C1329.02 1199.89 1341.43 1240.77 1349.67 1282.76C1364.13 1353.71 1354.04 1429.36 1306.63 1486.25L1299.87 1485.1C1293.65 1472.56 1289.25 1457.43 1281.08 1446C1274.92 1439.07 1269.31 1431.74 1263.32 1424.65C1289.25 1382.66 1289.95 1330.24 1278.69 1283.47C1269.64 1241.98 1254.51 1201.47 1233.67 1164.41C1203.34 1112.74 1162.45 1063.11 1111.51 1030.7C1099.44 1022.97 1086.49 1017.11 1074.09 1010.05C1069.51 1006.86 1065.01 1006.22 1059.63 1005.55C1059.16 1010.52 1058.92 1015.5 1058.92 1020.51C1058.89 1129.21 1059.06 1237.95 1059.19 1346.65C1058.96 1352.19 1059.8 1358.41 1057.85 1363.66L1054.45 1365C1028.32 1360.36 1005.49 1347.96 984.378 1332.36C972.509 1325.09 955.294 1319.04 941.642 1324.12C924.494 1327.95 912.894 1341.8 908.354 1358.25C907.178 1366.45 907.548 1374.96 907.312 1383.23C902.168 1385.92 895.308 1384.81 889.558 1385.08C767.403 1385.28 645.214 1385.08 523.058 1385.18C513.274 1385.01 503.254 1385.68 493.503 1384.5C495.52 1365.68 491.653 1347.92 479.179 1333.4C464.586 1319.88 441.015 1318.1 424.237 1328.66C411.09 1336.66 397.641 1344.12 384.629 1352.36C364.152 1364.3 342.162 1367.73 318.928 1369.91C320.138 1357.77 319.466 1345.4 319.768 1333.2C319.298 1222.18 319.533 1111.26 319.466 1000.24L318.154 997.244C298.249 1000.94 279.151 1012.51 260.523 1020.38C206.422 1050.43 161.5 1098.99 129.255 1151.34C107.904 1186.27 91.6966 1224.6 81.2733 1264.14C73.1699 1298.97 67.1179 1335.05 71.6571 1370.82C77.743 1400.17 92.2687 1433.09 115.973 1452.22C106.29 1469.84 101.381 1488.57 96.8084 1507.96C94.9255 1512.77 94.8579 1518.49 89.3436 1520.61C78.2813 1514.15 70.9513 1498.85 58.6786 1495.36C46.8094 1484.66 37.2597 1471.01 29.0555 1457.4C-0.163568 1406.12 -5.67717 1346.92 5.11606 1289.56C14.5308 1229.67 35.6124 1171.47 67.3534 1119.73C97.783 1069.53 136.518 1022.29 184.734 988.267C206.455 971.254 231.203 956.629 256.454 945.433C276.494 936.288 297.711 931.109 318.255 923.376L319.431 919.946C319.364 702.411 319.365 484.909 318.995 267.373C319.029 253.353 318.927 239.198 320.037 225.211C328.611 174.946 347.441 124.446 383.25 87.0577C419.866 39.684 477.431 8.7512 536.474 0.984472ZM439 989.208C426.458 989.309 413.715 988.502 401.207 989.578L399.93 993.311C400.199 1098.78 399.997 1204.32 400.3 1309.83L402.35 1311.95C594.41 1312.22 787.378 1311.91 979.505 1312.08C980.177 1205.3 979.067 1098.45 979.403 990.755L976.949 989.175C797.666 989.141 618.316 989.242 439 989.208Z" fill="#725BF1"/>
<path d="M1058.93 1020.51C1058.93 1015.5 1059.16 1010.52 1059.63 1005.55C1065.01 1006.22 1069.52 1006.86 1074.09 1010.05C1069.65 1007.5 1065.28 1007.26 1060.27 1007.13L1059.7 1010.29C1059.5 1127.87 1060.41 1246.52 1059.57 1363.96C1064.88 1369.24 1071 1368.06 1077.86 1369.24C1097.02 1372.67 1116.02 1372.84 1134.88 1378.55C1157.41 1385.55 1178.46 1397.35 1194.87 1414.5C1198.36 1419.37 1207.88 1415.34 1212.35 1413.59C1230.98 1408.44 1247.99 1413.62 1263.33 1424.65C1269.31 1431.74 1274.93 1439.07 1281.08 1446C1289.25 1457.43 1293.65 1472.56 1299.88 1485.1L1306.63 1486.25C1304.55 1488.73 1302.77 1491.46 1301.35 1494.38C1308.35 1523.1 1310.33 1552.55 1302.57 1581.36C1296.78 1602.81 1286.29 1624.77 1265.81 1635.63C1252.1 1643.77 1236.86 1642.59 1221.77 1639.83C1203.85 1659.77 1183.87 1676.58 1158.39 1686.26C1128.23 1697.43 1096.18 1706.57 1064 1708.39L1060 1713.03C1060.64 1734.38 1060 1755.79 1060.3 1777.14C1061.04 1779.94 1061.78 1782.76 1062.56 1785.55C1068.54 1788.64 1075.1 1788.54 1081.19 1791.17C1097.22 1795.57 1111.61 1803.94 1124.32 1814.57C1138.45 1827.61 1146.99 1844.99 1142.55 1864.5C1141.47 1867.59 1138.78 1872.43 1140.73 1875.62C1147.19 1882.52 1146.37 1888.14 1155.36 1900.62C1164.35 1913.11 1178.48 1968.59 1168.86 2018.12C1159.09 2050.56 1142.6 2062.7 1103.36 2079.12L1050.86 2098.07C1020.23 2107.52 988.451 2115.92 956.811 2121.2C924.599 2126.01 891.95 2131.12 859.335 2126.68C811.757 2121.1 764.65 2105.5 729.681 2071.37C713.34 2056.34 702.446 2034.89 703.118 2012.37C701.538 1984.32 717.139 1961.9 736.574 1943.47C766.466 1918.76 801.703 1907.7 839.093 1900.4C853.989 1899.03 868.279 1898.52 883.141 1900.34L886.301 1899.23C894.438 1889.54 902.172 1879.93 911.317 1871.19C904.189 1858.17 907.282 1839.45 915.823 1827.54C929.71 1806.3 957.046 1793.22 981.289 1788.58C983.777 1802.87 981.154 1816.85 982.802 1831.21C981.759 1826.7 982.533 1821.86 980.885 1817.52C963.771 1821.09 944.101 1831.24 935.728 1847.38C932.03 1860.19 942.487 1872.03 952.07 1879.12C983.441 1898.35 1022.24 1900.81 1057.75 1894.72C1079.1 1890.55 1107.21 1881.61 1116.02 1859.45C1120.02 1845.67 1105.63 1833.06 1095.04 1826.97C1085.39 1822.7 1073.32 1815.68 1062.96 1815.98C1062.59 1819.91 1062.12 1823.85 1061.58 1827.75C1063.57 1813.12 1062.39 1797.65 1059.93 1783.13C1058.22 1760.97 1060.17 1738.51 1059.06 1716.32C1058.09 1707.95 1046.92 1709.23 1040.87 1708.76C1019.86 1709.8 1001.29 1702.97 981.726 1696.38C957.449 1685.99 936.636 1669.59 930.954 1642.56C926.314 1629.68 930.517 1619.29 932.198 1606.65C922.413 1597.84 912.393 1590.84 906.207 1578.74C898.204 1565.22 897.935 1551.37 898.877 1536.14C887.411 1536.28 875.541 1536.58 864.244 1534.63C833.915 1533.28 801.569 1533.38 771.845 1526.79C752.781 1522.69 732.741 1514.49 721.779 1497.44C710.885 1480.09 714.92 1456.29 729.849 1442.47C743.87 1427.81 763.002 1425.73 781.933 1423C798.812 1423.17 816.431 1421.56 833.007 1424.68C856.208 1426.16 880.182 1425.32 902.979 1428.15C913.604 1427.54 926.246 1429.86 936.266 1427.54C934.72 1423.2 930.08 1420.14 927.222 1416.61C918.143 1406.76 912.528 1395.4 907.316 1383.23C907.552 1374.96 907.182 1366.45 908.359 1358.25C912.898 1341.8 924.498 1327.95 941.646 1324.12C955.297 1319.04 972.513 1325.09 984.382 1332.36C1005.5 1347.96 1028.33 1360.36 1054.45 1365L1057.85 1363.66C1059.8 1358.41 1058.96 1352.19 1059.2 1346.65C1059.06 1237.95 1058.89 1129.21 1058.93 1020.51Z" fill="#3C3380"/>
<path d="M479.18 1333.4C491.655 1347.92 495.521 1365.68 493.504 1384.5C488.359 1394.89 484.594 1405.45 476.221 1414.02C472.489 1418.87 465.663 1422.83 463.679 1428.65C476.625 1427.78 490.175 1429.49 502.851 1426.8C523.9 1425.52 546.327 1427.1 566.838 1423.47C594.577 1423 619.762 1420.68 646.93 1427.88C662.363 1432.89 676.889 1443.51 682.84 1459.04C690.136 1477.54 682.268 1501.88 665.12 1512.3C633.245 1532.88 586.777 1532.51 549.958 1534.09C533.718 1536.85 517.881 1535.6 501.372 1536.48C502.313 1544.98 502.683 1553.42 501.506 1561.89C497.875 1581.13 485.569 1595.48 469.631 1606.14C473.666 1626.55 472.892 1646.79 461.124 1664.61C446.8 1686.7 423.465 1695.88 399.525 1703.55C397.34 1702.81 395.188 1702.37 393.069 1702.23C372.189 1714.17 344.113 1707.68 321.215 1708.52C308.371 1703.78 293.98 1703.68 281.001 1698.7C242.502 1688.35 207.028 1672.98 182.079 1640.5C169.84 1640.4 154.171 1644.71 140.991 1637.98C118.631 1628.8 105.013 1604.39 99.2973 1582C93.4804 1563.84 94.8926 1545.82 93.7494 1527.43C81.0059 1517.75 70.3136 1506.18 58.6797 1495.36C70.9524 1498.85 78.2824 1514.15 89.3447 1520.61C94.859 1518.49 94.9262 1512.77 96.8092 1507.96C101.382 1488.56 106.291 1469.84 115.975 1452.22C120.312 1444.96 125.02 1438.06 130.904 1431.98C146.942 1414.76 170.681 1407.27 193.411 1414.09C196.504 1415.64 199.732 1416.45 203.161 1416.55C225.152 1393.75 253.228 1379.8 284.43 1374.69C295.392 1371.09 307.665 1372.6 318.929 1369.91C342.163 1367.73 364.153 1364.3 384.63 1352.36C397.642 1344.12 411.092 1336.66 424.239 1328.66C441.017 1318.1 464.587 1319.88 479.18 1333.4Z" fill="#3C3380"/>
<path d="M449.156 1347.15C461.53 1346.75 470.305 1358.21 468.893 1370.15C469.868 1386.89 457.797 1400.41 445.592 1410.23C437.488 1416.11 428.713 1423.04 419.029 1425.86C396.703 1427.47 376.495 1421.52 354.908 1418.56C342.736 1418.56 339.139 1433.12 348.284 1440.65C355.749 1444.62 366.777 1445.8 375.15 1446.54C389.373 1450.61 404.571 1448.02 418.693 1451.72C458.638 1452.89 500.197 1453.5 539.84 1449.9C569.63 1449.6 599.892 1446.77 629.582 1448.86C642.493 1449.83 658.666 1456.79 661.188 1470.98C663.407 1482.95 651.269 1494.42 640.779 1497.88C621.916 1506.02 602.817 1505.75 583.013 1508.87C560.686 1510.59 538.427 1509.51 516.37 1512.24C486.109 1512.57 456.049 1512.57 425.821 1512.2C413.212 1513.34 413.952 1532.54 425.619 1535.3C441.826 1536.65 458.571 1536.01 474.912 1536.31C480.729 1542.66 478.442 1559.58 474.004 1566.8C463.244 1588.63 434.261 1595.89 412.069 1597.37C403.663 1596.96 395.526 1605.13 397.947 1613.74C404.066 1625.34 414.961 1619.76 425.586 1620.16C432.512 1620.73 439.977 1614.75 446.298 1617.37C451.442 1630.32 444.953 1646.49 436.312 1656.61C425.249 1668.98 408.168 1675.67 392.601 1680.21C350.571 1688.75 307.566 1684.01 267.553 1669.18C242.335 1660.61 219.169 1648.24 202.188 1627.22C192.202 1613.77 188.167 1598.24 185.477 1582.04C184.435 1576.25 186.452 1567.71 182.081 1563.31C178.349 1558.13 174.583 1556.78 168.396 1557.63C164.294 1560.38 160.797 1563.44 160.697 1568.75C159.553 1585.83 163.655 1600.46 167.858 1616.7C159.217 1622.01 144.557 1614.04 138.437 1606.88C119.137 1584.69 116.918 1552.38 119.474 1524.41C122.634 1502.92 127.745 1479.25 139.177 1460.52C149.5 1444.35 165.101 1431.91 185.41 1436.25L186.083 1440.32C179.291 1454.1 168.699 1471.99 170.716 1487.89C171.187 1496.53 181.073 1498.25 187.797 1495.86C193.614 1491.99 194.724 1484.73 195.867 1478.34C206.761 1442.44 234.602 1412.18 271.521 1402.56C289.543 1397.18 309.012 1396.37 327.471 1393.18C359.615 1389.92 391.188 1376.87 418.424 1359.73C428.41 1353.64 436.749 1346.21 449.156 1347.15Z" fill="#F8F7FC"/>
<path d="M950.051 1347.45C965.989 1345.2 975.37 1355.15 988.013 1362.58C1005.03 1373.54 1023.52 1381.14 1042.55 1387.7C1062.86 1394.42 1085.96 1393.48 1106.44 1397.99C1126.01 1399.74 1145.34 1406.8 1161.85 1417.39C1181.92 1429.96 1195.88 1451.78 1203.71 1473.74C1206.2 1480.9 1206.23 1490.01 1211.95 1495.09C1218.71 1499.66 1230.27 1497.37 1231.05 1488.03C1231.82 1471.28 1222 1453.09 1214.23 1438.97C1217.5 1435.07 1221.3 1436.32 1225.8 1435.81C1237.03 1434.2 1248.67 1443.28 1255.86 1451.04C1272.64 1472.26 1278.25 1498.62 1281.68 1524.84C1283.43 1549.76 1282.66 1579.41 1268.17 1600.86C1261.01 1611.49 1247.22 1621.81 1233.84 1617.24C1237.23 1599.75 1242.78 1583.38 1240.66 1564.92C1234.37 1553.52 1219.24 1555.2 1217.46 1568.38C1216.62 1595.05 1208.72 1620.53 1188.78 1639.13C1162.72 1662.59 1125 1673.76 1091.34 1680.85C1054.79 1686.33 1008.96 1687.44 976.917 1666.12C959.6 1654.56 950.959 1637.88 954.826 1616.87C964.812 1616.67 973.622 1621.1 983.709 1621.04C989.425 1621.17 998.1 1623.12 1001.73 1617.34C1003.48 1612.53 1004.52 1603.22 998.806 1600.59C992.518 1594.84 981.523 1598.51 973.588 1595.42C955.599 1592.02 936.635 1584.52 927.557 1567.48C921.908 1559.21 923.69 1546.16 924.733 1536.71C939.931 1536.11 955.162 1536.17 970.394 1535.77C976.581 1535.23 984.785 1532.17 985.155 1524.91C986.231 1518.72 979.943 1511.7 973.554 1512.23C943.293 1512.64 913.065 1512.54 882.804 1512.27C859.267 1508.33 834.082 1512.03 810.478 1507.43C798.744 1506.55 787.177 1506.59 775.779 1503.16C761.219 1499.32 744.206 1494.55 739.936 1477.97C737.784 1460.59 753.99 1452.29 768.449 1449.43C787.278 1447.11 806.713 1448.45 825.677 1448.59C843.464 1450 861.889 1448.45 879.441 1451.58C915.284 1452.45 951.262 1453.33 987.105 1451.65C1000.49 1448.45 1014.44 1450.27 1027.45 1446.6C1036.73 1445.02 1050.59 1444.86 1056.07 1436.01C1056.74 1431 1058.29 1425.05 1053.24 1421.76C1047.73 1415.94 1039.96 1420.01 1033.47 1421.52C1017.06 1423.74 996.923 1427.68 980.077 1425.46C960.105 1415.23 940.704 1402.49 932.903 1380.3C927.927 1366.52 934.181 1349.1 950.051 1347.45Z" fill="#F8F7FC"/>
<path d="M981.718 1696.38C1001.29 1702.97 1019.85 1709.8 1040.86 1708.76C1046.92 1709.23 1058.08 1707.95 1059.05 1716.32C1060.16 1738.51 1058.21 1760.97 1059.93 1783.13C1062.38 1797.65 1063.56 1813.12 1061.57 1827.75C1058.52 1843.45 1046.95 1855.72 1032.36 1861.67C1025.87 1862.28 1018.81 1862.28 1012.28 1861.77C998.665 1855.45 986.56 1846.61 982.794 1831.21C981.147 1816.85 983.769 1802.87 981.281 1788.58C982.794 1758.01 981.785 1727.05 981.718 1696.38Z" fill="#725BF1"/>
<path d="M393.065 1702.23C395.184 1702.37 397.336 1702.81 399.521 1703.55C401.471 1731.65 398.311 1760.5 401.034 1788.48C399.555 1803.74 399.05 1818.67 395.89 1833.8C393.166 1840.52 386.273 1844.22 387.45 1851.21C379.75 1862.91 364.014 1863.92 351.405 1862.14C329.987 1855.99 317.277 1836.99 319.833 1814.7C320.808 1805.49 320.808 1796.14 319.765 1786.93C320.438 1766.79 320.001 1746.68 319.665 1726.58C319.833 1720.69 319.16 1714.04 321.211 1708.52C344.109 1707.68 372.185 1714.17 393.065 1702.23Z" fill="#725BF1"/>
<path d="M249.028 1822.47C266.277 1802.39 293.747 1789.95 319.739 1786.93C320.781 1796.14 320.781 1805.49 319.806 1814.7C302.187 1818.6 281.576 1825.36 270.143 1840.22C264.663 1846.2 264.629 1854.31 266.815 1861.7C275.321 1877.94 296.168 1887.26 312.98 1892.03C342.771 1899.9 375.218 1899.66 404.706 1890.55C423.401 1884.47 440.381 1877.34 446.602 1857.03C449.022 1843.75 435.943 1832.86 425.587 1827.14C417.853 1823.34 408.136 1817.12 399.427 1818.33C401.848 1832.25 395.123 1840.72 387.424 1851.21C386.247 1844.22 393.14 1840.52 395.863 1833.8C399.024 1818.67 399.528 1803.74 401.008 1788.48C429.016 1792.98 456.857 1810.6 470.34 1836.02C476.897 1847.62 472.56 1859.49 471.921 1870.98C480.226 1880.77 488.867 1890.32 497.576 1899.73C514.892 1900.5 532.343 1897.58 549.928 1901.55C574.541 1906.42 597.943 1912.98 619.832 1925.65C643.772 1938.03 664.754 1958.91 675.513 1983.79C684.794 2010.55 679.246 2041.15 660.685 2062.66C625.145 2104.09 572.355 2121.6 519.7 2127.42C467.314 2131.52 411.565 2119.65 361.062 2106.68C348.991 2104.15 338.859 2101.62 324.513 2097.7L277.83 2079.62C239.327 2065.79 222.584 2054.2 212.33 2017.62C208.355 1980.62 205.647 1949.95 227.348 1899.73C234.241 1892.84 234.468 1880.97 241.563 1874.18C235.309 1856.76 236.755 1836.92 249.028 1822.47Z" fill="#3C3380"/>
<path d="M319.837 1814.7C317.281 1836.99 329.991 1855.99 351.41 1862.14C364.019 1863.92 379.755 1862.92 387.454 1851.21C395.154 1840.72 401.879 1832.25 399.458 1818.33C408.167 1817.12 417.884 1823.34 425.617 1827.14C435.974 1832.86 449.053 1843.75 446.632 1857.03C440.412 1877.34 423.432 1884.47 404.737 1890.55C375.249 1899.66 342.802 1899.9 313.011 1892.03C296.199 1887.26 275.352 1877.94 266.845 1861.7C264.66 1854.31 264.694 1846.21 270.174 1840.22C281.606 1825.36 302.218 1818.6 319.837 1814.7Z" fill="#F8F7FC"/>
<path d="M980.88 1817.52C982.528 1821.86 981.754 1826.7 982.797 1831.21C986.563 1846.61 998.667 1855.45 1012.28 1861.77C1018.81 1862.28 1025.87 1862.28 1032.36 1861.67C1046.95 1855.72 1058.52 1843.45 1061.58 1827.75C1062.12 1823.85 1062.59 1819.91 1062.96 1815.98C1073.31 1815.68 1085.38 1822.7 1095.03 1826.97C1105.62 1833.06 1120.02 1845.67 1116.01 1859.45C1107.21 1881.61 1079.1 1890.55 1057.74 1894.72C1022.24 1900.81 983.436 1898.35 952.065 1879.12C942.482 1872.03 932.025 1860.19 935.723 1847.38C944.096 1831.24 963.766 1821.09 980.88 1817.52Z" fill="#F8F7FC"/>
<path d="M452.481 1895.43C456.549 1896.6 469.124 1906.89 469.124 1911.36C466.973 1914.59 462.064 1915.6 458.903 1917.85C436.711 1930.56 420.841 1949.32 407.526 1970.81C404.735 1976.66 400.061 1983.69 401.036 1990.38C404.802 1994.92 408.736 2001.34 415.461 2000.56C422.858 2001.34 427.464 1995.62 430.121 1989.5C448.311 1952.75 487.719 1924.34 529.816 1927.81C555.504 1929.79 580.386 1936.82 603.049 1949.26C623.794 1959.71 646.659 1978.14 651.097 2002.18C653.821 2014.25 649.55 2028.03 643.666 2038.59C618.381 2072.75 576.183 2089.36 535.935 2097.5C525.814 2098.41 516.232 2098.77 506.279 2100.86C457.154 2101.63 404.97 2089.7 357.661 2077.05C324.004 2066.43 290.649 2053.25 259.345 2036.84C236.38 2022.99 238.061 1995.35 239.54 1971.99C243.441 1947.37 250.199 1921.45 262.27 1899.43C265.834 1897.51 269.533 1901.55 272.492 1903.19C291.456 1915.06 312.908 1921.42 335.032 1923.74C374.608 1928.44 420.706 1921.18 452.481 1895.43Z" fill="#F8F7FC"/>
<path d="M929.872 1895.56C942.145 1903.43 953.611 1911.57 967.666 1916.17C1014.81 1931.91 1073.48 1928.95 1115.31 1900.34L1118.37 1900.1C1129.53 1914.49 1134.84 1934.43 1139.58 1951.75C1142.44 1972.62 1147.02 1991.86 1140.46 2013.04C1138.61 2023.26 1131.62 2032.1 1122.3 2036.67C1075.46 2061.45 1025.57 2079.41 973.684 2089.56C930.814 2098.41 890.062 2103.18 846.25 2096.49C824.63 2092.86 803.211 2085.06 783.541 2075.1C765.922 2067.14 750.254 2054.06 739.393 2038.05C730.516 2024.71 731.088 2009 733.912 1993.84C743.125 1972.25 763.165 1957.16 783.608 1946.94C815.82 1932.28 852.302 1922.02 887.405 1931.64C916.255 1940.89 940.229 1965.19 953.914 1991.69C957.074 1996.46 960.369 2001.71 966.892 2000.97C978.123 2001.71 985.554 1988.7 979.098 1979.28C965.951 1952.05 944.129 1927.77 916.826 1914.19C914.372 1913.35 913.565 1911.77 914.338 1909.41C919.718 1905.82 924.224 1897.38 929.872 1895.56Z" fill="#F8F7FC"/>
<line x1="1067.14" y1="1572.99" x2="1137.23" y2="1564.34" stroke="#3C3380" stroke-width="11" stroke-linecap="round"/>
<line x1="5.5" y1="-5.5" x2="76.115" y2="-5.5" transform="matrix(0.992465 0.122527 0.122527 -0.992465 1062.36 1496.12)" stroke="#3C3380" stroke-width="11" stroke-linecap="round"/>
<line x1="1067.86" y1="1537.62" x2="1137.86" y2="1537.62" stroke="#3C3380" stroke-width="11" stroke-linecap="round"/>
<line x1="5.5" y1="-5.5" x2="76.115" y2="-5.5" transform="matrix(-0.992465 -0.122527 -0.122527 0.992465 324.359 1579.12)" stroke="#3C3380" stroke-width="11" stroke-linecap="round"/>
<line x1="319.575" y1="1502.26" x2="249.492" y2="1510.91" stroke="#3C3380" stroke-width="11" stroke-linecap="round"/>
<line x1="5.5" y1="-5.5" x2="75.5" y2="-5.5" transform="matrix(-1 0 0 1 324.359 1543.12)" stroke="#3C3380" stroke-width="11" stroke-linecap="round"/>
</svg>
