<svg width="2384" height="2358" viewBox="0 0 2384 2358" fill="none" xmlns="http://www.w3.org/2000/svg">
<path d="M1576.37 1.95007C1611.86 7.67913 1645.56 16.5796 1675.94 36.529C1717.41 63.7421 1746.74 109.063 1761.09 155.987C1768.29 179.551 1776.3 204.206 1777.91 228.896C1779.54 248.538 1763.62 266.203 1746.77 273.808C1721.36 284.038 1690.81 267.192 1682.69 241.82C1676.01 221.769 1674 200.83 1666.6 180.915C1656.33 152.815 1640.65 126.932 1612.89 113.326C1577.63 92.285 1534.73 91.603 1496.84 105.619C1469.42 116.668 1449.3 137.163 1433.45 161.613C1413.29 194.044 1400.37 231.76 1393.75 269.272C1383.35 321.243 1379.84 373.759 1378.3 426.651C1375.06 509.756 1381 592.555 1378.34 675.592C1377.69 703.18 1378.58 730.529 1376.94 758.084C1373.73 819.978 1371.48 884.191 1358.49 944.892C1345.09 942.982 1330.29 942.641 1318.46 950.28C1299.56 962.454 1288.24 988.644 1299.22 1009.79C1305.94 1025.47 1318.97 1032.5 1333.26 1040.17C1327.66 1066.4 1317.43 1091.09 1310.95 1117C1304.17 1139.82 1293.6 1160.07 1283.94 1181.69C1259.05 1237.93 1222.49 1290.78 1184.98 1339.28C1165.07 1363.56 1143.75 1386.27 1122.44 1409.29C1102.59 1404.65 1080.97 1394.73 1060.78 1396.53C1039.06 1398.34 1019.59 1416.82 1020.48 1439.4C1019.08 1457.71 1027.43 1472.2 1040.77 1483.97C1020.13 1498.5 1002.54 1516.37 982.009 1531.17C956.877 1549.27 932.801 1568.61 907.122 1585.83C882.092 1603.73 857.3 1622.9 831.281 1639.68C823.847 1644.35 817.435 1650.11 811.263 1656.32C794.349 1651.24 777.366 1646.63 760.793 1640.5C748.925 1636.2 737.501 1632.92 724.782 1636.06C711.618 1639.44 696.307 1646.74 691.908 1660.72C688.191 1673.51 687.202 1687.96 690.544 1700.92C693.067 1711.43 704.252 1718.69 712.641 1724.59C676.255 1751.22 639.494 1777.17 602.903 1803.53C575.69 1821.51 550.727 1842.44 523.412 1860.28C487.264 1885.41 451.526 1911.16 415.651 1936.67C399.487 1948.5 383.63 1960.61 366.613 1971.18C360.407 1941.17 341.446 1907.99 318.359 1887.7C340.866 1868.43 365.556 1853.32 389.257 1835.45C417.936 1813.76 448.354 1794.6 477.375 1773.35C502.474 1756.61 525.765 1737.48 550.625 1720.43C585.033 1695.67 619.374 1670.88 654.055 1646.53C681.745 1624.81 712.096 1607.14 740.195 1586C775.559 1559.33 812.593 1535.05 848.365 1508.93C864.802 1496.96 881.478 1485.33 897.983 1473.43C878.068 1475.34 859.346 1481.51 839.704 1484.99C812.218 1490.14 784.8 1495.73 757.314 1500.95C725.088 1506.75 694.874 1518.68 662.171 1522.37C663.058 1496.18 656.954 1469.2 643.142 1446.76C662.955 1440.97 683.109 1437.73 703.263 1433.57C741.866 1425.86 780.094 1416.38 818.765 1409.12C881.751 1395.68 948.078 1382.65 1008.27 1359.57C1030.43 1350.94 1051.13 1345.35 1067.16 1326.49C1124.76 1263.06 1176.25 1190.35 1210.11 1111.41C1229.18 1062.88 1247.01 1013.09 1257.75 962.011C1269.08 900.151 1277.16 837.472 1279.78 774.589C1281.42 752.968 1282.82 731.416 1282.61 709.693C1284.01 663.043 1284.46 616.528 1282.03 569.877C1281.39 528.955 1280.77 488.033 1281.86 447.112C1281.49 388.593 1286.37 330.518 1294.86 272.648C1298.34 252.665 1303.48 232.954 1307.92 213.141C1320.26 168.297 1339.6 123.215 1368.65 86.556C1397.64 52.3862 1433.55 23.6386 1477.2 11.021C1510 2.35925 1542.4 -3.13106 1576.37 1.95007Z" fill="#7959F5"/>
<path d="M2214.89 117.997C2258.68 130.342 2296.5 157.043 2323.74 193.362C2349.83 225.178 2359.38 260.917 2371.62 299.213C2376.67 316.502 2380.05 334.44 2382.77 352.241C2384.21 362.744 2385.16 372.633 2381.04 382.693C2374.52 400.324 2358.05 413.078 2339.53 415.567C2314.47 417.852 2290.22 399.471 2286.51 374.373C2282.72 345.591 2276.62 317.73 2265.91 290.687C2255.95 265.214 2241.97 242.263 2219.19 226.338C2189.79 206.695 2153.03 197.692 2117.91 202.194C2085.68 206.798 2055.81 223.098 2036.2 249.356C2008.34 287.141 1997.63 332.973 1992.52 378.84C1982.8 445.713 1986.24 509.619 1988.15 576.697C1989.45 607.423 1988.8 638.08 1991.53 668.771C1992.76 721.015 1992.35 773.361 1991.83 825.638C1989.38 897.252 1985.25 968.694 1976.66 1039.86C1972.53 1074.58 1968.85 1109.3 1962.47 1143.67C1959.23 1165.49 1952.48 1186.4 1948.63 1208.09C1943.79 1232.13 1937.48 1255.83 1929.7 1279.09C1919.61 1312.03 1908.93 1344.6 1893.86 1375.63C1883.26 1400.59 1872.1 1424.67 1859.45 1448.67C1851.37 1463 1842.71 1476.98 1834.22 1491.03C1837.83 1502.83 1843.02 1513.88 1847.86 1525.16C1867.02 1574.85 1876.26 1628.49 1878.04 1681.59C1880.22 1749.99 1862.01 1818.54 1831.86 1879.58C1825.49 1892.98 1819.18 1906.42 1812.63 1919.75C1794.05 1900.01 1768.33 1883.67 1742.08 1876.51C1758 1854.45 1768.44 1827.99 1779.14 1803.09C1799.64 1753.23 1801.38 1701.88 1797.01 1648.82C1794.9 1620.65 1788.35 1592.75 1779.35 1566.05C1752.61 1599.61 1726.93 1631.97 1694.16 1660.24C1676.63 1675.76 1659.48 1691.61 1641.03 1706.07C1600.52 1738.16 1561.81 1772.37 1520.82 1803.91C1497.19 1823.52 1474 1843.54 1449.45 1862.09C1404.23 1900.04 1358.09 1936.8 1312.19 1973.91C1262.78 2015.58 1211.66 2055.03 1162.38 2096.88C1130.4 2122.01 1099.57 2148.51 1067.82 2173.95L1067.51 2179.44C1064.1 2157.44 1052.68 2135.99 1041.22 2117.13C1034.67 2105.95 1025.43 2097.28 1015.06 2089.65C1035.87 2074.13 1054.45 2055.99 1075.32 2040.54C1121.5 2004.05 1166.34 1965.82 1212.58 1929.47C1226.49 1919.99 1239.35 1909.93 1252.04 1898.92C1256.67 1895.17 1261.38 1891.62 1266.09 1888C1239.28 1876.14 1210.12 1869.73 1182.47 1859.94C1131.18 1842.03 1079.11 1826.76 1027.55 1809.71C977.928 1793.27 928.037 1777.58 878.317 1761.42C834.087 1748.26 791.153 1731.58 746.48 1719.61C735.363 1715.96 719.711 1712.38 712.345 1702.66C702.251 1686.16 707.332 1661.84 726.224 1654.07C740.172 1648.51 757.802 1656.56 771.34 1660.65C807.795 1671.7 843.397 1685.2 880.056 1695.67C914.362 1706.45 948.43 1717.97 982.702 1728.85C1024.44 1740.75 1065.09 1755.96 1106.7 1768.31C1141.07 1779.97 1175.72 1790.54 1210.36 1801.35C1238.57 1810.73 1266.67 1820.41 1294.94 1829.55C1303.77 1832.28 1313.42 1837.47 1322.76 1837.36C1328.83 1835.83 1334.12 1830.41 1339.2 1826.86C1350.83 1817.99 1363.1 1810.18 1374.09 1800.43C1413.85 1766.16 1455.08 1733.73 1495.04 1699.7C1506.13 1690.28 1518.06 1682 1529.32 1672.79C1543.77 1660.48 1558.13 1648.13 1573.31 1636.68C1578.01 1632.82 1582.55 1628.7 1587.08 1624.64C1545.48 1613.9 1504.63 1600.66 1463.09 1589.89C1410.51 1573.11 1356.86 1560.15 1304.07 1544.06C1267.35 1533.04 1229.26 1524.79 1193.07 1512.14C1149.08 1498.29 1103.83 1488.2 1059.94 1474.18C1041.36 1468.11 1036.58 1445.88 1043.98 1429.54C1050.9 1417.71 1064.27 1411.2 1077.88 1414.44C1105.33 1420.51 1132.13 1429.61 1159.38 1436.5C1190.11 1445.2 1220.7 1455.8 1251.87 1462.89C1269.05 1466.85 1286.04 1471.42 1302.71 1477.15C1333.37 1487.58 1364.67 1494.4 1395.43 1503.78C1431.51 1514.86 1468.27 1523.56 1504.35 1534.68C1551.14 1547.47 1597.48 1561.92 1644.14 1575.19C1648.5 1570.83 1652.83 1566.43 1656.86 1561.72C1667.29 1548.22 1680.42 1537.41 1690.92 1523.97C1718.65 1489.53 1744.19 1453.52 1766.32 1415.22C1789.2 1373.85 1807.93 1330.58 1825.35 1286.59C1833.81 1265.55 1839.4 1243.79 1846.08 1222.17C1852.8 1201.3 1855.36 1179.51 1862.25 1158.64C1863.37 1153.56 1864.16 1148.38 1865.01 1143.26C1843.9 1138.42 1823.1 1132.31 1801.96 1127.74C1772.73 1122.39 1743.4 1116.9 1714.69 1109.19C1724.75 1090.33 1734.57 1072.12 1738.32 1050.78C1784.53 1058.25 1829.51 1072.19 1875.34 1081.2C1876.16 1075.77 1877.01 1070.32 1877.63 1064.86C1882.81 1013.67 1892.16 962.795 1893.21 910.892C1897.88 812.032 1897.58 713.069 1893.42 614.209C1893.14 565.239 1890.21 516.542 1891.3 467.572C1892.7 424.741 1892.09 381.909 1901.12 339.453C1905.32 316.229 1910.57 293.381 1918.04 271.011C1927.93 242.024 1942.8 215.766 1960.5 190.906C1994.97 145.04 2047.08 117.315 2103.11 107.835C2140.86 101.219 2178.75 106.028 2214.89 117.997Z" fill="#7959F5"/>
<path d="M1491.06 447.792C1502.79 444.007 1510.05 454.34 1516.46 462.217C1529.52 480.188 1544.08 496.967 1556.97 515.04C1579.51 499.831 1598.71 480.495 1620.33 464.263C1629.37 457.886 1642.13 463.854 1643.35 474.732C1644.82 481.894 1641.75 486.395 1636.4 490.692C1616.69 506.208 1596.5 521.588 1578.46 539.082C1592.06 557.531 1606.05 575.571 1620.68 593.235C1625.28 599.68 1631.52 605.682 1630.46 614.242C1631.72 622.528 1620.71 627.337 1613.89 626.825C1605.02 624.268 1597.96 614.651 1592.44 607.66C1579.99 591.121 1566.83 575.059 1554.08 558.758C1535.32 572.74 1517.65 587.949 1500.3 603.568C1493.37 609.774 1486.32 613.082 1476.84 610.968C1469.64 610.252 1468.45 603.568 1467.97 597.6C1468.65 588.29 1477.21 582.357 1483.69 576.798C1500.98 563.396 1517.48 549.142 1533.78 534.58C1518.23 513.676 1499.75 494.409 1484.85 473.027C1479.29 465.661 1480.55 450.009 1491.06 447.792Z" fill="#7959F5"/>
<path d="M1724.72 477.563C1738.63 488.885 1746.64 503.719 1758.27 517.018C1765.98 525.817 1773.48 534.717 1780.71 543.925C1800.8 527.351 1820.85 510.539 1840.94 494.034C1850.28 486.191 1864.91 493.386 1865.49 505.288C1864.87 515.416 1856.59 520.531 1849.67 526.635C1832.55 540.105 1816.14 554.428 1799.95 568.989C1811.91 584.846 1824.09 600.533 1837.05 615.606C1842.64 622.529 1849.43 629.86 1852.77 638.181C1853.76 644.149 1850.14 650.765 1848.2 656.323C1842.57 656.255 1837.05 656.289 1831.42 655.71C1825.62 653.05 1821.22 646.809 1817.23 642.001C1803.56 623.927 1788.96 606.637 1775.32 588.598C1753.5 605.307 1732.05 626.484 1708.83 641.319C1701.9 641.762 1689.12 639.852 1689.39 630.543C1687.85 620.619 1693.68 615.333 1700.57 609.536C1718.89 594.975 1736.58 579.663 1755.07 565.34C1740.54 542.492 1721.82 522.441 1706.06 500.513C1702.18 495.057 1701.77 487.623 1706.03 482.269C1710.57 475.585 1717.76 477.802 1724.72 477.563Z" fill="#7959F5"/>
<path d="M1875.34 1081.19C1829.51 1072.19 1784.53 1058.24 1738.32 1050.78L1739.68 1032.5C1785.55 1043.78 1831.52 1054.56 1877.63 1064.86C1877.01 1070.32 1876.16 1075.77 1875.34 1081.19Z" fill="#7959F5"/>
<path d="M1744 1131.49C1729.44 1127.78 1715.46 1123.07 1700.32 1122.18L1714.68 1109.19C1743.39 1116.9 1772.72 1122.39 1801.94 1127.74C1823.09 1132.31 1843.89 1138.42 1865 1143.26C1864.14 1148.37 1863.36 1153.56 1862.23 1158.64C1822.92 1149.12 1783.46 1140.36 1744 1131.49Z" fill="#7959F5"/>
<path d="M1503.18 978.89L1521.09 1080.82C1493.29 1075.7 1466.25 1067.52 1438.53 1062.03C1412.95 1055.96 1387.31 1050.16 1361.69 1044.26C1353.2 1042.29 1344.71 1040.38 1336.19 1038.57C1327.59 1064.69 1320.74 1091.26 1310.95 1117C1317.43 1091.08 1327.66 1066.4 1333.25 1040.17C1318.97 1032.5 1305.94 1025.47 1299.22 1009.79C1288.24 988.644 1299.56 962.454 1318.45 950.279C1330.29 942.641 1345.09 942.982 1358.49 944.891C1385.7 953.28 1413.77 958.873 1441.53 965.079C1462.02 970.024 1482.76 973.673 1503.18 978.89Z" fill="#7959F5"/>
<path d="M1477.72 811.042C1460.12 791.093 1463.33 758.56 1477.75 737.826C1493.68 715.967 1518.91 703.383 1544.04 695.131C1584.15 682.445 1628.89 682.991 1670.46 686.435C1709.37 692.266 1751.01 701.917 1785.28 721.901C1816.55 739.224 1841.99 766.062 1853.31 800.368C1861.73 829.389 1845.74 866.525 1814.67 873.687C1794.59 880.2 1776.65 875.358 1757.08 870.276C1748.69 893.295 1745.38 917.268 1743.13 941.549C1741.77 972.138 1744.22 1001.98 1739.68 1032.5L1738.32 1050.78C1734.57 1072.12 1724.75 1090.33 1714.69 1109.19C1709.08 1114.27 1705.94 1117.11 1700.33 1122.18C1688.87 1135.25 1673.66 1141.49 1657.47 1146.46C1617.74 1157.17 1573.78 1144.79 1545.31 1115.23C1534.91 1105.13 1528.39 1093.13 1521.09 1080.82C1506.24 1060.03 1503.15 1037.16 1503.19 978.89C1505.13 929.34 1514.38 878.324 1535.28 833.072C1513.56 832.901 1492.14 828.638 1477.72 811.042Z" fill="#3D307F"/>
<path d="M1668.82 779.532C1662.64 792.15 1651.56 800.709 1645.08 813.088C1631.71 837.914 1620.12 865.673 1616.33 893.772C1614.19 909.63 1611.29 925.692 1611.01 941.719C1610.57 948.505 1613.27 954.064 1615.82 960.1C1619.88 960.202 1623.97 960.339 1628.07 960.509C1630.42 953.211 1632.4 945.88 1633.11 938.241C1635.29 915.29 1639.35 892.477 1644.71 870.072C1649.62 848.827 1661.01 828.741 1674.07 811.485C1683.69 799.993 1696.06 787.035 1711.27 783.863C1736.85 778.032 1763.11 785.875 1783.06 802.414C1799.08 814.691 1810.07 833.072 1808.63 853.805C1796.46 854.078 1784.32 853.976 1772.11 853.362C1770.88 847.258 1772.28 835.766 1766.42 832.049C1757.89 827.581 1752.95 835.288 1748.34 841.256C1729.69 869.526 1723.28 904.958 1721.47 938.241C1717.51 983.562 1723.69 1024.01 1709.43 1068.37C1700.12 1100.94 1669.84 1126.86 1635.67 1128.19C1614.42 1127.67 1589.97 1126.07 1573.54 1110.97C1558.12 1097.26 1542.71 1079.56 1536.84 1059.4C1532.72 1045.46 1529.82 1031.07 1528.08 1016.61C1524.77 990.109 1528.59 961.566 1530.26 934.728C1532.21 904.446 1542.4 878.188 1552.43 849.918C1561.16 824.751 1578.79 800.675 1601.98 787.171C1622.03 774.997 1646.48 776.293 1668.82 779.532Z" fill="#7959F5"/>
<path d="M1406.6 974.015C1438.96 980.426 1464.77 986.832 1496.86 994.641C1498.12 1017.18 1502.89 1039.21 1504.57 1061.68C1484.68 1056.4 1470.54 1055.11 1450.8 1049.38C1434.6 1044.78 1418.3 1041.02 1401.76 1037.89C1383 1034.41 1364.96 1028.41 1346.31 1024.62C1337.31 1022.44 1328.71 1021.59 1322.2 1014.29C1308.49 1000.78 1314.49 974.867 1328.68 964.057C1353.13 958.703 1382.49 968.967 1406.6 974.015Z" fill="#7959F5"/>
<path d="M1060.79 1396.53C1080.98 1394.73 1102.6 1404.65 1122.44 1409.29C1154.81 1418.73 1187.2 1427.8 1219.8 1436.33C1265.16 1449.08 1310 1463.47 1355.56 1475.44C1455.85 1504.7 1556.56 1532.63 1656.85 1561.72C1652.83 1566.43 1648.49 1570.83 1644.13 1575.19C1597.48 1561.93 1551.13 1547.47 1504.35 1534.68C1468.27 1523.56 1431.51 1514.87 1395.43 1503.78C1364.67 1494.4 1333.36 1487.58 1302.7 1477.15C1286.03 1471.42 1269.05 1466.85 1251.86 1462.89C1220.69 1455.8 1190.1 1445.2 1159.38 1436.5C1132.13 1429.61 1105.32 1420.51 1077.87 1414.44C1064.27 1411.2 1050.9 1417.71 1043.98 1429.54C1036.58 1445.88 1041.35 1468.11 1059.94 1474.18C1103.82 1488.2 1149.08 1498.29 1193.07 1512.14C1229.25 1524.79 1267.34 1533.04 1304.07 1544.06C1356.86 1560.15 1410.5 1573.11 1463.08 1589.89C1504.62 1600.66 1545.47 1613.9 1587.08 1624.64C1582.54 1628.7 1578.01 1632.82 1573.3 1636.68C1518.84 1622.29 1464.93 1605.92 1410.57 1591.01C1340.25 1569.73 1268.98 1551.35 1198.66 1529.87C1168.79 1520.59 1138.13 1514.66 1108.56 1504.29C1086.19 1496.04 1062.7 1493.55 1040.77 1483.97C1027.44 1472.2 1019.08 1457.71 1020.48 1439.4C1019.59 1416.82 1039.07 1398.34 1060.79 1396.53Z" fill="#7959F5"/>
<path d="M547.865 1423.54C559.187 1416.34 569.281 1409.42 583.365 1409.73C609.657 1409.73 628.14 1427.26 643.145 1446.76C656.956 1469.2 663.06 1496.18 662.174 1522.37C659.411 1542.21 652.898 1558.68 637.143 1571.71C628.72 1580.03 619.445 1578.67 608.771 1581.19C604.61 1582.97 601.814 1588.15 598.779 1591.42C589.265 1604.01 576.818 1612.91 563.109 1620.44C554.345 1625.25 544.796 1628.93 537.226 1635.58C521.505 1649.39 520.311 1669.92 502.954 1682.95C490.848 1693.49 477.071 1693.62 461.827 1693.97C453.404 1689.43 443.003 1685.44 437.41 1677.43C431.954 1669.62 429.397 1659.22 427.419 1650.04C427.794 1633.3 433.83 1618.64 440.787 1603.7C425.475 1610.93 410.743 1618.09 397.648 1629C384.246 1640.12 372.618 1651.24 356.453 1658.74C348.405 1662.18 338.448 1661.84 329.82 1662.29C318.703 1657.07 308.541 1653.52 302.3 1642.06C294.184 1630.81 297.39 1620.03 298.174 1607.25C281.771 1598.34 273.996 1584.09 273.484 1565.64C275.155 1546.65 285.079 1532.56 296.639 1518.24C294.593 1508.52 292.649 1500.37 297.049 1490.93C303.801 1467.94 323.716 1453.17 343.563 1441.82C405.014 1406.69 481.197 1399.43 547.865 1423.54Z" fill="#3D307F"/>
<path d="M624.216 1463.85C635.095 1485.33 643.347 1514.8 634.276 1538.12C629.979 1549.27 621.045 1554.05 611.258 1559.67C611.019 1545.76 614.361 1533.69 606.483 1521.17C601.812 1521.04 597.14 1520.93 592.502 1520.8C588.512 1538.5 588.648 1559.88 580.021 1575.94C566.755 1597.63 534.154 1602.85 516.626 1621.91C504.929 1633.78 501.144 1648.58 491.698 1661.54C486.071 1668.59 477.75 1673.64 468.509 1670.4C458.108 1667.61 449.923 1658.7 450.571 1647.52C449.548 1624.71 472.328 1605.2 487.64 1591.01C486.207 1585.93 485.048 1580.78 483.923 1575.63C471.578 1575.57 457.767 1574.64 445.899 1578.12C422.403 1584.84 399.351 1596.13 380.8 1612.16C370.74 1620.61 360.202 1632.21 347.38 1636.16C338.445 1638.31 327.124 1637.77 321.838 1629C318.462 1620.65 320.235 1611.68 325.282 1604.42C332.955 1593.13 338.548 1581.87 349.528 1573.62C365.59 1561.24 383.255 1550.43 402.283 1543.34C408.251 1540.58 414.628 1538.74 416.265 1531.4C417.8 1523.7 410.434 1515.68 402.42 1518.72C383.05 1523.32 364.908 1534.92 347.892 1544.94C330.909 1555.1 321.633 1570.76 307.208 1583.37C303.184 1580.07 299.365 1577.3 298.206 1571.92C296.296 1560.15 303.184 1547.19 310.312 1538.26C333.16 1513.94 361.805 1501.33 393.076 1491.4C406.512 1488.71 403.75 1466.1 389.018 1469.78C364.806 1473.77 339.98 1486.29 318.598 1498.05C327.328 1479.54 347.721 1466.17 365.045 1456.41C399.351 1437.15 442.387 1433.12 480.99 1435.68C503.667 1436.02 528.903 1438.85 549.295 1449.46C561.572 1455.63 566.823 1466.47 576.576 1475.31C585.204 1477.28 586.125 1471.93 591.172 1466.75C588.512 1453.38 580.498 1446.46 571.223 1437.42C592.502 1426.71 614.361 1446.15 624.216 1463.85Z" fill="#F7F5FB"/>
<path d="M518.844 1457.47C518.333 1464.74 517.208 1468.59 512.774 1474.39C499.168 1473.26 487.573 1474.18 474.444 1477.76C467.181 1478.89 460.701 1482.71 455.279 1475.51C454.665 1471.56 453.472 1466.27 457.871 1464.05C475.092 1454.23 499.782 1455.56 518.844 1457.47Z" fill="#3D307F"/>
<path d="M528.126 1488.44C532.73 1489.56 539.959 1490.93 536.89 1497.44C536.481 1500.1 534.469 1502.01 530.854 1503.17C520.624 1507.7 509.268 1507.29 499.003 1512.27C491.092 1515.99 483.044 1518.79 474.621 1521.14C472.063 1516.78 469.164 1513.23 469.608 1507.81C475.064 1500.17 482.805 1496.89 491.262 1493.65C503.266 1489.39 515.27 1485.88 528.126 1488.44Z" fill="#3D307F"/>
<path d="M724.799 1636.06C737.519 1632.92 748.943 1636.2 760.81 1640.49C777.384 1646.63 794.366 1651.24 811.281 1656.32C840.028 1666.14 869.219 1674.7 898.001 1684.45C940.969 1697.89 983.903 1711.63 1026.63 1725.95C1093.88 1746.96 1160.89 1769.09 1227.9 1790.98C1265.41 1801.49 1301.97 1815.26 1339.21 1826.86C1334.13 1830.41 1328.84 1835.83 1322.77 1837.36C1313.43 1837.46 1303.78 1832.28 1294.94 1829.55C1266.67 1820.41 1238.57 1810.73 1210.37 1801.35C1175.72 1790.54 1141.08 1779.97 1106.7 1768.31C1065.1 1755.96 1024.45 1740.75 982.709 1728.85C948.437 1717.97 914.37 1706.45 880.063 1695.67C843.404 1685.2 807.802 1671.7 771.348 1660.65C757.809 1656.56 740.179 1648.51 726.231 1654.07C707.339 1661.84 702.258 1686.16 712.352 1702.66C719.718 1712.38 735.371 1715.96 746.488 1719.61C791.161 1731.58 834.095 1748.26 878.324 1761.42C928.044 1777.58 977.935 1793.27 1027.55 1809.71C1079.11 1826.76 1131.19 1842.03 1182.48 1859.94C1210.13 1869.72 1239.29 1876.14 1266.09 1888C1261.39 1891.62 1256.68 1895.16 1252.04 1898.92C1108.44 1851.11 963.408 1805.85 819.431 1759.03C783.556 1748.32 748.022 1736.73 712.659 1724.59C704.27 1718.69 693.085 1711.43 690.561 1700.92C687.219 1687.96 688.208 1673.5 691.925 1660.72C696.324 1646.74 711.636 1639.44 724.799 1636.06Z" fill="#7959F5"/>
<path d="M208.379 1705.36C241.764 1726.06 269.08 1759.3 280.197 1797.26C289.166 1821.88 294.11 1847.66 294.008 1873.92C302.465 1877.91 310.718 1882.27 318.356 1887.7C341.443 1907.99 360.404 1941.17 366.61 1971.18C370.054 1991.84 370.02 2011.93 359.688 2030.75C350.617 2049.58 333.975 2058.24 315.321 2065.4C310.377 2075.05 306.012 2085.08 300.487 2094.42C292.814 2107.31 280.913 2116.89 269.25 2125.96C245.14 2141.24 213.494 2157.85 184.201 2151.81C156.92 2148.81 135.777 2132.65 117.328 2113.48C82.8171 2077.88 58.4345 2029.46 38.1782 1984.61C22.4915 1951.19 12.5339 1914.74 5.06563 1878.69C0.530128 1845.99 -3.45974 1810.08 4.75873 1777.72C11.0675 1753.37 23.9238 1733.42 44.2142 1718.38C63.8908 1701.54 87.2503 1693.76 111.94 1687.45C145.325 1680.91 179.222 1688.48 208.379 1705.36Z" fill="#3D307F"/>
<path d="M155.33 1711.32C176.712 1713.51 197.309 1723.81 213.61 1737.55C241.232 1762.68 260.295 1797.46 266.774 1834.26C272.265 1870.89 269.775 1907.37 258.965 1942.81C260.772 1945.19 262.546 1947.61 264.353 1950.03C267.252 1951.26 270.15 1952.49 273.049 1953.72C276.084 1950.82 281.608 1948.02 282.597 1943.69C287.099 1929.23 289.247 1913.96 290.952 1898.95C303.058 1906.08 313.971 1914.33 321.575 1926.37C336.375 1949.42 346.538 1978.48 344.321 2006.06C341.764 2022.13 331.704 2032.29 317.62 2039.38C317.79 2026.63 317.722 2014.76 312.982 2002.72C307.73 2002.28 302.513 2001.9 297.261 2001.56C295.624 2003.3 293.953 2005.04 292.316 2006.78C293.442 2025.54 296.988 2041.97 290.407 2060.29C284.575 2080.34 270.866 2094.49 254.361 2106.42C256.68 2090.09 256.612 2074.64 253.747 2058.38C249.212 2026.49 234.548 1998.6 230.047 1966.95C224.352 1918.15 225 1872.62 211.257 1825.26C202.254 1799.1 187.659 1775.33 168.63 1755.25C150.863 1734.21 126.549 1722.54 100.086 1716.34C118.057 1708.63 136.268 1709.58 155.33 1711.32Z" fill="#F7F5FB"/>
<path d="M85.6186 1737.44C109.728 1739.97 133.054 1753.64 150.787 1769.7C184.308 1805.1 197.403 1852.3 201.121 1899.84C202.621 1928.89 204.053 1957.13 209.919 1985.74C218.274 2016.26 230.209 2044.46 231.3 2077.13C231.539 2091.35 232.392 2107.55 223.218 2119.45C215.989 2128.9 202.178 2130.81 191.129 2129.24C172.305 2127.46 154.708 2115.63 140.386 2104C120.436 2086.06 106.386 2059.16 91.791 2036.69C76.8887 2010.09 62.1909 1985.4 52.847 1956.58C37.1944 1916.27 26.5548 1874.91 23.7584 1831.63C22.9741 1802.48 25.3612 1773.46 45.447 1750.61C56.2231 1741.43 71.296 1735.47 85.6186 1737.44Z" fill="#7959F5"/>
<path d="M1742.08 1876.51C1768.34 1883.67 1794.05 1900.01 1812.64 1919.75C1819.66 1929.44 1827.23 1940.25 1830.81 1951.77C1833.95 1963.4 1833.54 1976.09 1830.51 1987.72C1827.44 1998.73 1816.29 2006.71 1807.93 2013.84C1807.9 2029.35 1807.79 2044.53 1803.57 2059.64C1796.54 2090.16 1777.92 2116.31 1754.94 2137.05C1747.33 2144.48 1739.15 2149.32 1737.24 2160.68C1731.85 2188.54 1729.46 2221.58 1710.3 2244.26C1703.78 2251.53 1695.12 2259.54 1685.3 2261.62C1670.91 2262.88 1656.55 2260.26 1645.85 2249.85C1637.42 2238.53 1634.25 2225.61 1632.51 2211.83C1626.82 2233.04 1615.53 2251.05 1595.24 2260.77C1576.01 2262.95 1557.59 2260.66 1545.86 2243.61C1535.8 2228.92 1537.3 2213.78 1538.05 2196.86C1523.73 2211.49 1501.53 2214.46 1484.44 2202.79C1470.36 2193.86 1467.84 2174.22 1468.65 2159.04C1471.18 2128.45 1486.39 2098.65 1503.13 2073.41C1493.79 2070.62 1482.5 2068.54 1475.03 2061.96C1464.15 2052.47 1455.35 2037.64 1456.65 2022.81C1458.7 2009.88 1465.21 1995.32 1477.15 1988.74C1498.42 1974.76 1524.24 1983.01 1547.91 1970.77C1574.2 1960.03 1589 1936.53 1614.51 1924.76C1626.95 1918.08 1640.15 1916.17 1653.83 1913.55C1657.75 1900.76 1661.74 1889.3 1673.47 1881.63C1694.61 1867.58 1718.72 1870.92 1742.08 1876.51Z" fill="#3D307F"/>
<path d="M839.119 1888.72C878.609 1888.21 918.269 1908.7 944.084 1938.06C978.936 1973.74 993.463 2026.73 993.156 2075.53C1000.62 2079.96 1008.02 2084.53 1015.05 2089.65C1025.42 2097.28 1034.66 2105.95 1041.21 2117.13C1052.66 2135.99 1064.09 2157.44 1067.5 2179.44C1067.87 2198.5 1069.34 2216.06 1060.27 2233.62C1051.3 2253.44 1033.74 2261.72 1014.37 2268.68C1004.65 2294.32 990.428 2317.1 966.796 2332.04C951.723 2341.49 934.706 2348.2 917.894 2353.9C897.876 2360.38 877.381 2356.56 859 2347.22C824.558 2331.39 798.743 2298.11 779.578 2266.39C740.941 2205.86 714.308 2138.21 704.009 2067C700.872 2038.43 698.894 2006.44 706.328 1978.41C712.296 1955.49 726.618 1936.26 745.34 1922.04C771.462 1901.95 805.734 1887.25 839.119 1888.72Z" fill="#3D307F"/>
<path d="M1695.63 1897.35C1709.98 1892.47 1727.92 1896.9 1742.07 1901.06C1768.2 1908.63 1791.11 1926.95 1804.68 1950.44C1810.89 1961.18 1809.9 1972.1 1807.75 1983.83C1805.16 1985.7 1802.57 1987.55 1799.98 1989.42C1795.78 1980.59 1791.83 1970.26 1785.18 1962.99C1780.34 1961.29 1774.95 1960.95 1769.9 1960.13C1768.71 1964.63 1765.19 1969.98 1766.56 1974.62C1770.92 1987.58 1780.44 1998.56 1783.2 2012.71C1786.41 2033.24 1782.38 2055.13 1773.65 2073.89C1762.36 2096.09 1745.76 2113.76 1726.69 2129.44C1710.19 2147.17 1712.3 2180.22 1704.05 2202.04C1699.72 2212.85 1695.59 2228 1685.4 2234.68C1680.76 2238.29 1674.35 2237.99 1668.89 2236.79C1661.46 2232.56 1658.9 2225.27 1658.15 2217.15C1655.56 2192.7 1663.54 2165.79 1668.89 2141.89C1670.73 2132.95 1679.5 2120.17 1674.66 2111.61C1670.05 2109.59 1662.34 2107.04 1658.93 2112.29C1648.06 2126.75 1638.34 2142.33 1629.44 2158.09C1617.36 2179.61 1612.73 2206.82 1599.32 2227.18C1592.06 2237.78 1574.16 2242.22 1566.08 2230.18C1558.98 2219.84 1561.95 2202.52 1563.35 2190.72C1570.99 2156.14 1586.71 2122.42 1604.95 2092.27C1610.68 2083.71 1600.59 2076.48 1592.81 2076.55C1586.37 2079.69 1581.11 2086.13 1576.34 2091.38C1558.64 2111.3 1545.24 2133.91 1533.68 2157.81C1528.8 2167.5 1522.84 2179.81 1512.4 2184.41C1505.41 2188.34 1495.93 2184.35 1493.47 2176.81C1488.15 2164.02 1493.44 2150.93 1496.92 2138.41C1511.58 2093.46 1539.95 2059.29 1572.35 2026.05C1572.32 2023.01 1572.32 2020.01 1572.28 2016.97C1568.7 2014.38 1565.12 2011.79 1561.57 2009.2C1544.08 2016.26 1536.07 2032.63 1523.07 2045.14C1517.52 2052.51 1504.73 2048.42 1497.16 2046.58C1482.15 2043.71 1474.51 2022.09 1486.11 2011.45C1494.33 2003.54 1507.69 2002.55 1518.47 2001.19C1540.5 1999 1561.64 1991.19 1580.26 1979.33C1590.7 1972.61 1598.71 1964.15 1608.63 1956.75C1622.21 1946.21 1638.71 1938.51 1655.83 1936.15C1673.87 1933.39 1693.55 1937.48 1712.06 1938.51C1714.52 1935.71 1716.91 1932.91 1719.33 1930.12C1717.01 1924.97 1716.98 1920.09 1711.38 1917.33C1702 1912.79 1689.69 1913.34 1679.46 1912.15C1684.24 1905.91 1687.72 1899.9 1695.63 1897.35Z" fill="#F7F5FB"/>
<path d="M816.423 1914.47C831.394 1913.1 847.387 1911.67 862.222 1914.5C884.831 1920.3 905.906 1933.46 922.786 1949.39C941.678 1968.21 952.318 1991.77 961.389 2016.46C971.585 2047.12 971.79 2082.01 967.664 2113.75C965.345 2126.92 960.639 2139.06 960.809 2152.66C968.891 2154.61 974.654 2158.77 981.679 2151.64C988.772 2136.6 989.966 2117.81 991.126 2101.41C1006.64 2112.7 1020.9 2125.14 1029.52 2142.67C1042.11 2167.33 1049.44 2195.53 1039.07 2222.37C1035.32 2232.6 1027.31 2237.27 1018.61 2242.8C1017.59 2232.09 1018.85 2218.92 1014.04 2209.14C1009.57 2200.3 997.23 2202.56 993.206 2210.54C993.069 2224.58 996.957 2236.93 993.854 2251.18C990.478 2266.46 984.237 2282.01 973.529 2293.67C967.664 2299.98 960.571 2305.27 954.057 2310.86C955.08 2297.84 955.796 2284.43 955.08 2271.37C952.352 2240.41 939.632 2215.1 933.153 2185.54C926.912 2157.98 927.901 2129.58 924.764 2101.04C921.763 2056.98 912.658 2014.93 886.638 1978.37C866.382 1947.92 835.213 1928.65 800.43 1918.76C805.75 1917.33 811.103 1915.97 816.423 1914.47Z" fill="#F7F5FB"/>
<path d="M811.809 1947.51C834.896 1957.54 855.493 1974.55 869.645 1995.39C884.173 2015.85 891.436 2042.55 896.756 2066.83C906.339 2111.78 901.223 2158.09 912.954 2201.81C917.66 2217.43 925.265 2231.34 928.164 2247.67C931.335 2265.54 933.074 2284.33 930.687 2302.41C929.357 2317.44 916.33 2332.62 900.712 2333.34C885.537 2334.02 870.6 2329.38 858.085 2320.86C837.556 2306.74 822.653 2288.08 809.081 2267.49C788.995 2239.22 771.876 2209.24 760.179 2176.54C736.615 2122.01 722.054 2065.37 725.157 2005.52C726.521 1985.02 734.74 1961.46 752.302 1949.32C769.182 1938.17 793.804 1940.01 811.809 1947.51Z" fill="#7959F5"/>
<path d="M1670.83 1964.02C1677.41 1969.61 1681.33 1971.01 1677.72 1980.45C1668.51 1987.58 1657.91 1992.59 1648.9 2000.1C1643.34 2004.12 1637.41 2010.22 1630.21 2010.33C1622.13 2010.36 1619.34 1998.29 1625.65 1994.26C1638.6 1982.36 1654.73 1971.21 1670.83 1964.02Z" fill="#3D307F"/>
<path d="M1701.8 1984.03C1708.39 1984.27 1711.01 1995.25 1706.1 1999.52C1693.93 2014.66 1682.26 2031.09 1667.57 2043.92C1663.95 2041.46 1660.37 2039.35 1657.23 2036.24C1657.64 2026.63 1664.16 2021.2 1669.92 2014.35C1677.08 2006.64 1683.7 1998.49 1690.35 1990.34C1693.59 1986.83 1696.31 1982.77 1701.8 1984.03Z" fill="#3D307F"/>
<path d="M1740.06 2005.28C1741.62 2020.63 1731.33 2029.53 1727.4 2044.77C1724.85 2050.5 1724.13 2062.78 1717.11 2064.55C1710.39 2068.33 1703.19 2059.91 1705.07 2053.23C1707.73 2038.05 1715.5 2022.88 1723.07 2009.51C1727.27 2002.52 1733.2 2004.26 1740.06 2005.28Z" fill="#3D307F"/>
</svg>
