<svg width="2834" height="3042" viewBox="0 0 2834 3042" fill="none" xmlns="http://www.w3.org/2000/svg">
<path d="M1825.7 198.962C1843.36 136.806 1885.74 82.0873 1938.77 45.8333C1985.13 15.5371 2039.72 -1.5757 2095.32 0.114459C2142.14 -0.646114 2188.49 10.6357 2228.34 35.6501C2286.44 72.2421 2326.92 129.919 2347.66 194.821C2351.89 210.075 2352.19 225.793 2344.03 239.822C2330.72 264.54 2297.26 274.681 2272.28 262.301C2258.13 254.737 2249.68 241.892 2243.85 227.357C2231.55 195.793 2216.13 164.102 2190.48 141.201C2165.59 119.82 2132.04 108.792 2099.55 107.44C2047.28 105.031 1994.46 129.919 1961.46 170.187C1942.53 192.708 1932.56 220.596 1925.97 248.864C1920.43 272.611 1923.1 297.118 1931.46 319.808C1954.41 383.95 1977.01 448.134 2001.73 511.6C2030.72 592.136 2061.06 672.123 2089.79 752.743C2129.72 862.139 2168.38 972.253 2209.58 1081.23C2220.23 1112.45 2231.17 1143.55 2242.54 1174.57C2230.75 1191.59 2217.78 1207.4 2201.38 1220.24C2181.52 1229.07 2165 1240.78 2159.68 1263.09C2155.45 1289.41 2159.21 1316.03 2153.04 1342.36C2122.7 1347.55 2092.07 1345.15 2061.61 1349.67C1950.18 1357.57 1839.18 1368.55 1727.8 1376.5C1678.49 1380.34 1629.18 1384.78 1579.87 1388.62C1561.02 1389.43 1542.22 1390.99 1523.5 1393.65C1558.4 1509.51 1595.67 1624.91 1631.33 1740.6L1631.88 1748.84C1604.12 1769.33 1578.81 1790.63 1555.27 1815.98C1542.26 1812.81 1539.05 1804.91 1533.64 1794.01C1514.58 1736.88 1498.65 1678.53 1479.34 1621.44C1452.47 1529.58 1421.46 1438.95 1394.33 1347.17C1383.89 1310.29 1370.33 1274.45 1360.48 1237.4C1347.26 1195.4 1334.07 1153.44 1321.74 1111.18C1307.03 1066.31 1292.71 1021.39 1279.23 976.14C1225.52 804.631 1171.9 632.827 1118.41 461.233C1095.25 388.852 1109.28 311.78 1146.76 246.963C1187.92 177.412 1263.09 127.341 1343.16 116.355C1382.92 111.919 1425.22 112.806 1463.71 124.679C1512.68 141.496 1556.96 168.962 1587.51 211.596C1608.3 241.131 1628.21 273.836 1638.05 308.822C1645.44 334.133 1636.02 361.767 1612.4 374.57C1585.15 391.725 1547.54 376.471 1536.39 347.316C1527.81 324.245 1519.91 301.766 1504.53 282.118C1485.05 256.723 1456.7 232.892 1424.67 226.216C1382.33 217.3 1337.75 222.286 1299.89 243.836C1253.41 271.639 1219.48 320.823 1216.52 375.711C1212.55 413.782 1229.03 443.909 1238.79 480.289C1269.72 572.952 1295.96 667.094 1326.93 759.715C1337.12 792.209 1346.08 824.998 1356.93 857.28H1356.93L1392.68 970.816V970.816C1403.03 1010.79 1417.82 1052.03 1429.91 1091.83C1449.77 1157.03 1470.98 1221.76 1490.16 1287.17C1709.5 1270.61 1928.46 1251 2147.8 1234.99C2106.86 1119.17 2063.84 1004.58 2021.67 889.266C2025.46 889.176 2017.89 889.206 2021.67 889.266L1981.87 779.025C1980.41 779.23 1983.33 778.824 1981.87 779.025C1970.34 741.588 1955.34 705.165 1942.45 668.193C1917.77 605.868 1897.32 542.022 1873.19 479.486C1858.57 440.528 1845.14 401.105 1830.05 362.316C1809.98 310.048 1809.43 252.329 1825.7 198.962Z" fill="#795BF9"/>
<path d="M1851.57 568.768C1873.29 578.402 1895.51 593.148 1908.87 613.134C1914.78 621.712 1913.85 632.149 1908.02 640.431C1901.05 650.656 1886.47 652.684 1876.63 645.374C1855.25 629.952 1841.05 610.346 1812.32 608.064C1796.05 607.219 1779.36 611.909 1766.17 621.501C1756.5 628.388 1748.89 638.318 1738.88 644.571C1722.86 651.797 1703.43 638.318 1704.1 620.867C1704.44 606.374 1720.67 594.416 1731.02 586.007C1764.91 559.345 1811.6 551.655 1851.57 568.768Z" fill="#795BF9"/>
<path d="M1555.36 645.248C1572.77 655.305 1567.19 687.967 1546.02 688.854C1531.74 689.784 1518.13 678.713 1503.72 677.023C1479.17 672.882 1454.79 679.896 1438.61 699.291C1425.76 711.84 1422.38 730.348 1410.93 743.277C1394.54 757.559 1367.96 743.911 1369.86 722.446C1374.21 698.826 1391.24 676.727 1408.23 660.417C1445.62 623.191 1511.33 616.431 1555.36 645.248Z" fill="#795BF9"/>
<path d="M1956.95 822.59C1953.44 810.716 1947.95 797.153 1945.16 785.068C1927.88 748.476 1899.9 718.264 1863.14 700.856C1831.11 686.785 1790.04 689.701 1760.38 708.461C1725.82 729.715 1705.62 772.772 1700 811.815C1693.16 851.996 1704.48 889.138 1716.05 927.126L1716.31 927.971C1737.86 973.732 1773.73 1011.47 1824.78 1021.9C1858.54 1028.41 1894.07 1017.04 1919.17 993.972C1947.31 967.521 1960.45 928.436 1965.78 890.957C1963.54 868.351 1963.37 844.139 1956.95 822.59Z" fill="#795BF9"/>
<path d="M1507.03 1069.69C1546.96 1090.27 1598.84 1083.85 1631.72 1053C1665.31 1021.1 1679.04 976.859 1678.58 931.267C1675.87 910.182 1674.27 887.281 1667.84 866.872C1662.99 850.308 1653.56 833.829 1645.79 818.533C1626.14 792.462 1602.43 767.659 1571.17 756.124C1526.59 740.405 1473.18 756.42 1445.55 795.082C1431.09 812.871 1427.63 834.167 1418.21 854.491C1414.15 876.59 1411.36 898.351 1413.73 920.872C1415.25 934.225 1420.19 949.014 1421.88 962.366C1436.8 1007.79 1463.8 1047.3 1507.03 1069.69Z" fill="#795BF9"/>
<path d="M1791.93 727.476C1822.53 716.955 1856.54 725.617 1879.99 747.293C1911.64 777.167 1930.32 818.491 1934.16 861.675C1937.33 895.858 1930.53 931.225 1909.36 958.901C1894.44 978.254 1871.33 993.846 1846.06 993.212C1818.81 994.057 1793.62 981.592 1774.69 962.535C1755.85 943.774 1744.14 920.366 1736.37 895.14C1724.88 859.351 1725.3 819.083 1738.78 783.885C1748.92 759.04 1765.86 736.73 1791.93 727.476Z" fill="#F8F7FC"/>
<path d="M1509.9 783.42C1531.41 776.786 1554.9 779.997 1574.38 791.025C1606.24 808.35 1627.62 840.463 1638.69 874.308C1653.73 919.266 1652.63 972.802 1625.51 1013.03C1608.56 1039.35 1577.67 1056.04 1546.07 1051.01C1513.45 1045.9 1488.31 1023.08 1470.43 996.549C1441.7 950.281 1433.5 889.055 1455.26 838.35C1465.87 814.181 1483.62 791.237 1509.9 783.42Z" fill="#F8F7FC"/>
<path d="M1796.34 871.013C1819.03 860.492 1843.79 874.436 1855.49 894.507C1869.77 916.225 1872.39 954.507 1851.77 973.099C1830.22 991.944 1797.81 979.691 1782.9 958.691C1766 931.859 1766.12 888.507 1796.34 871.013Z" fill="#3B2F7F"/>
<path d="M1525.5 929.663C1538.98 924.846 1553.22 927.972 1564.84 935.747C1589.39 952.057 1599.32 987.466 1590.1 1014.8C1583.68 1034.37 1562.64 1046.33 1542.57 1041.51C1514.47 1034.96 1494.69 1003.9 1497.65 975.719C1499.34 957.17 1506.57 936.761 1525.5 929.663Z" fill="#3B2D7E"/>
<path d="M1876.57 1089.17C1887.26 1091.5 1897.19 1095.76 1900.36 1107.21C1903.28 1116.55 1899.48 1126.14 1891.62 1131.68C1883.8 1135.69 1875.43 1133.28 1867.28 1131.89C1838.59 1125.43 1808.17 1124.28 1779.26 1129.95C1748.88 1136.92 1723.49 1152.26 1699.02 1171.02C1687.74 1179.34 1671.77 1178.37 1664.37 1165.61C1657.83 1154.5 1663.57 1143.59 1672.53 1136.16C1697.76 1115.41 1728.14 1100.45 1759.4 1091.37C1798.19 1079.92 1837.19 1082.16 1876.57 1089.17Z" fill="#795BF9"/>
<path d="M2242.54 1174.57C2252.47 1202.2 2262.61 1229.71 2272.29 1257.43C2269.16 1259.28 2265.99 1261.14 2262.86 1263C2258.64 1250.24 2252.81 1238.75 2241.61 1230.76C2229.74 1221.26 2216.04 1220.12 2201.38 1220.24C2217.78 1207.4 2230.75 1191.59 2242.54 1174.57Z" fill="#795BF9"/>
<path d="M990.438 1556.29L1093.58 1587.68C1103.93 1562.8 1119.19 1541.29 1134.95 1519.61C1180.16 1459.19 1240.45 1412.62 1308.4 1380.34C1336.37 1367.16 1364.17 1354.44 1394.34 1347.17C1384.6 1312.72 1372.12 1279.19 1362.5 1244.73C1319.55 1256.26 1279.14 1274.25 1239.86 1294.91C1131.06 1350.81 1040.72 1444.65 990.438 1556.29Z" fill="#795BF9"/>
<path d="M1362.5 1244.73C1362.52 1244.72 1362.54 1244.71 1362.57 1244.71L1360.5 1237.4C1361.15 1239.85 1361.82 1242.29 1362.5 1244.73Z" fill="#795BF9"/>
<path d="M1986.91 1771.87C1975.33 1771.19 1963.71 1770.9 1952.13 1770.52L1885.16 1687.45C1857.82 1671.14 1824.19 1665.68 1795.2 1681.28C1782.48 1687.7 1775.93 1698.56 1769.05 1710.43C1744.96 1711.74 1721.55 1712.63 1698.06 1719.35C1675.33 1726.32 1653.94 1736.54 1633.66 1748.88L1631.34 1740.6L1631.89 1748.84C1604.13 1769.33 1578.82 1790.63 1555.28 1815.98C1542.27 1812.81 1539.06 1804.91 1533.65 1794.01C1535.89 1799.71 1538.17 1805.42 1540.49 1811.08C1512.86 1803.18 1485.35 1794.9 1458.27 1785.31C1474.28 1742.12 1460.59 1688.33 1425.39 1658.54C1416.9 1651.23 1405.91 1652.71 1401.22 1663.19C1389.22 1689.68 1378.91 1717.11 1368.43 1744.23C1352.12 1741.32 1337.46 1737.09 1323.35 1728.22C1331.76 1700.97 1343.8 1674.85 1351.91 1647.56C1354.62 1638.43 1352.55 1629.9 1342.83 1626.89C1320.1 1623.56 1295.21 1632.3 1275.48 1643.12C1247.38 1659.22 1229.76 1685.8 1222.45 1717.02C1186.36 1705.32 1149.98 1694.46 1113.94 1682.71C1123.02 1670.8 1129.53 1658.84 1128.56 1643.33C1127.5 1618.23 1112.16 1602.35 1093.57 1587.68L990.43 1556.29C957.176 1559.04 925.95 1565.84 902.753 1591.7C886.231 1611.26 885.133 1634.16 886.569 1658.63C877.527 1667.04 868.907 1675.7 861.513 1685.59C850.527 1704.3 820.907 1707.81 801.85 1714.4C787.61 1671.85 768.173 1631.75 748.61 1591.49C744.934 1584.68 742.398 1578.43 734.455 1575.77C691.82 1559.16 648.933 1542.98 606.002 1527.18C593.876 1521.43 581.918 1530.18 570.636 1534.23C483.593 1570.11 395.704 1604.25 308.492 1639.66C292.731 1646.21 275.618 1651.06 260.872 1659.68C253.519 1664.54 251.026 1674.6 256.942 1681.7C266.998 1693.74 278.449 1704.47 287.83 1717.11C256.435 1734.69 224.829 1752.01 193.688 1770.01C184.983 1775.16 182.406 1781.08 185.068 1791.14C195.674 1804.02 214.223 1811 227.744 1820.8C252.928 1838.71 277.224 1858.4 298.647 1880.72C274.773 1889.04 250.731 1896.81 226.857 1905.01C219.505 1907.21 216.42 1913.63 212.068 1919.42C142.56 2024.89 74.1509 2130.56 4.93877 2236.28C-1.90639 2246 -2.70918 2257.33 9.45998 2262.82C77.489 2286.99 145.856 2310.86 214.519 2333.13C213.674 2458.2 214.603 2583.32 214.308 2708.39C212.533 2722.92 226.815 2724.06 236.956 2728.37C282.801 2742.28 327.506 2759.47 373.225 2773.88C513.466 2820.95 654.257 2867.56 794.625 2914.42C876.175 2943.87 959.373 2968.97 1041.18 2997.79C1079.29 3009.95 1117.19 3022.67 1155.05 3035.64C1166.21 3038.9 1178.59 3044.98 1190.08 3040.29C1272.01 3010.71 1354.66 2982.66 1436.89 2953.97C1493.04 2933.64 1549.54 2914.5 1605.94 2895.02C1685.85 2865.53 1766.68 2838.91 1846.83 2810.14C1892.6 2794.67 1937.6 2777.26 1983.44 2762.01C1993.63 2758.46 2004.74 2755.42 2014.08 2749.92C2023.37 2745.36 2020.75 2733.61 2021.64 2725.08C2020.88 2600.05 2022.7 2474.93 2021.22 2349.9C2047.2 2340.65 2073.57 2332.54 2099.51 2323.24C2136.95 2308.79 2174.81 2295.61 2213.05 2283.4C2220.36 2279.68 2227.16 2276.89 2229.32 2268.1C2229.15 2261.34 2225.14 2254.54 2221.92 2248.75C2195.85 2211.48 2170.42 2173.92 2144.6 2136.52C2123.81 2108.63 2105.6 2078.93 2085.49 2050.58C2065.29 2020.07 2043.19 1990.87 2023.37 1960.11C2011.63 1956.27 2004.23 1951.11 1992.57 1958.59C1996.46 1961.55 2000.34 1964.42 2004.23 1967.34C2001.4 1971.65 1998.53 1975.91 1995.74 1980.22C2003.94 1985.12 2007.95 1992.6 2013.23 2000.17C2041.33 2042.29 2069.81 2084.13 2099.13 2125.41C2128.12 2169.82 2159.56 2212.49 2188.42 2256.99C2146.88 2274.18 2103.23 2287.49 2060.68 2301.9C1992.4 2327.34 1922.55 2349.14 1854.14 2374.03C1710.69 2423.55 1567.07 2472.74 1423.91 2522.98C1419.14 2524.12 1412.89 2527.5 1408.11 2526.31C1395.98 2509.75 1385.55 2492 1373 2475.65C1315.62 2394.14 1259.84 2311.5 1201.83 2230.41C1248.98 2215.66 1296.05 2200.71 1343.17 2185.87C1361.46 2227.07 1358.72 2267.8 1363.32 2311.28C1368.9 2316.69 1375.32 2318.93 1374.9 2327.85C1376.59 2336.64 1375.03 2350.75 1382 2357.17C1389.31 2364.82 1403.17 2359.5 1404.35 2349.19C1404.86 2336.59 1403.12 2323.83 1402.36 2311.28C1406.76 2309.68 1411.15 2308.03 1415.51 2306.38C1417.79 2316.27 1419.35 2326.79 1423.32 2336.17C1427.29 2346.31 1444.66 2346.61 1447.7 2335.37C1449.48 2323.16 1444.28 2309.47 1442.51 2297.26C1448.34 2295.19 1454.13 2293.16 1460 2291.17C1462.87 2300.09 1464.31 2311.79 1470.52 2318.93C1476.82 2325.52 1486.75 2323.88 1492.11 2317.03C1493.84 2305.45 1488.44 2292.23 1485.31 2281.11C1490.34 2277.48 1495.37 2273.89 1500.44 2270.42C1504.07 2280.35 1506.27 2290.79 1510.03 2300.64C1513.7 2307.35 1521.22 2307.27 1527.77 2305.54C1534.62 2301.82 1534.32 2293.96 1535.13 2287.2C1532.13 2277.06 1528.7 2267.04 1525.66 2256.9C1529.42 2255.09 1533.18 2253.31 1536.94 2251.49C1541.25 2258.76 1544.68 2266.79 1549.75 2273.55C1554.35 2277.14 1562.51 2275.58 1568.04 2276.34C1574.63 2260.83 1568.25 2249.13 1563.18 2234.55C1565.42 2229.35 1569.27 2223.99 1569.48 2218.28C1563.18 2184.94 1549.03 2157.1 1537.45 2126.42C1611.27 2103.86 1684.79 2080.03 1758.35 2056.58C1760.38 2049.65 1762.45 2042.67 1764.57 2035.75C1755.57 2032.83 1746.27 2032.96 1740.82 2024.34C1735.37 2016.27 1728.61 2011.15 1720.33 2006.08C1716.9 2017.11 1713.14 2027.93 1709.09 2038.75C1695.95 2043.56 1682.68 2047.66 1669.11 2051.04C1660.83 2010.14 1674.02 1973.25 1691.97 1937.17L1692.06 1936.99C1696.09 1928.93 1700.4 1920.33 1696.45 1911.26C1691.42 1904.84 1685.51 1899.77 1677.31 1904.93C1665.95 1912.96 1660.37 1929.94 1654.58 1942.15C1640.76 1972.53 1638.69 2003.51 1617.61 2027.84C1609.32 2038.24 1589.21 2043.35 1580.13 2031.48C1572.56 2017.79 1574.55 2001.18 1577.72 1986.52C1586.47 1949.5 1603.16 1914.73 1627.83 1885.7C1635.31 1878.01 1634.55 1865.84 1624.32 1861.07C1615.79 1857.05 1608.14 1862.8 1602.35 1868.63C1572.14 1900.15 1556 1942.32 1543.53 1983.39C1536.06 1972.49 1531.41 1961.12 1532.42 1947.65C1535.17 1913.59 1551.31 1881.39 1570.28 1853.59C1597.03 1813.45 1637.76 1782.22 1680.69 1761.09C1710.1 1747.36 1746.31 1741.78 1778.51 1743.94C1796.89 1744.66 1809.19 1754.88 1825.03 1762.11C1839.1 1766.88 1848.1 1744.87 1837.92 1735.91C1827.95 1727.38 1815.14 1721.97 1804.03 1714.99C1824.61 1699.23 1849.24 1703.08 1869.36 1717.23C1899.36 1738.57 1921.67 1775.29 1922.26 1812.52C1922.01 1827.68 1912.65 1835.61 1902.15 1844.51L1901.26 1845.26C1899.23 1832.42 1898.3 1816.74 1891.03 1805.55C1884.78 1796.25 1870.71 1799.25 1865.72 1808.04C1866.14 1826.76 1870.79 1843.32 1863.82 1861.7C1866.69 1869.52 1869.48 1877.29 1872.31 1885.11C1877.81 1884.56 1883.3 1883.97 1888.84 1883.55L1892 1883.38C1900.07 1875.26 1910.05 1874.76 1920.31 1869.73C1935.19 1862.25 1945.62 1848.48 1950.7 1832.76C1957.62 1813.19 1953.95 1791.73 1951.92 1771.62C1963.58 1772.29 1975.2 1772.8 1986.91 1771.87Z" fill="#3C2E7E"/>
<path d="M2262.87 1263C2258.64 1250.24 2252.81 1238.75 2241.62 1230.76C2229.74 1221.26 2216.05 1220.12 2201.39 1220.24C2181.53 1229.07 2165.01 1240.78 2159.68 1263.09C2155.46 1289.41 2159.22 1316.03 2153.05 1342.36C2122.71 1347.55 2092.08 1345.15 2061.61 1349.67C1950.19 1357.57 1839.19 1368.55 1727.81 1376.5C1678.5 1380.34 1629.19 1384.78 1579.87 1388.62C1561.03 1389.43 1542.23 1390.99 1523.51 1393.65C1571.85 1391.41 1620.23 1386.26 1668.52 1382.71C1756.07 1375.78 1843.12 1369.4 1930.75 1361.58C2004.49 1354.78 2078.47 1350.43 2152.25 1344.17C2143.46 1389.81 2127.95 1434.94 2104.46 1475.16C2051.39 1565.5 1973.94 1633.44 1885.16 1687.45L1952.13 1770.52C1955.51 1768.4 1958.89 1766.25 1962.23 1764.05C2040.27 1714.78 2113.59 1651.28 2167.33 1575.85L2168.25 1574.44C2191.52 1538.65 2216.18 1500.7 2229.49 1459.99C2252.69 1397.37 2264.09 1329.68 2262.87 1263Z" fill="#7A5CF7"/>
<path d="M2272.29 1257.43C2309.48 1355.33 2343.91 1454.25 2380.04 1552.53C2428.08 1685.12 2436.87 1713.77 2484.7 1846.45C2492.1 1865.71 2494.97 1885.66 2485.34 1904.8C2471.44 1933.91 2429.06 1942.79 2404.13 1922.8C2390.65 1912.7 2385.53 1898.63 2380.04 1883.38C2372.18 1860.39 2406.96 1941.44 2399.1 1918.5C2371.22 1953.44 2344.59 1991.84 2321.18 2029.79C2282.05 2098.28 2242.38 2172.31 2221.93 2248.75C2195.86 2211.48 2170.42 2173.92 2144.6 2136.52C2161.55 2102.55 2176.34 2067.69 2194.88 2034.52C2225.9 1970.8 2265.28 1912.53 2306.18 1854.86C2292.2 1854.98 2278.21 1855.49 2264.22 1856.63C2168.18 1864.28 2072.14 1871.42 1976.05 1878.69C1947.95 1880.93 1920.23 1883.42 1892.01 1883.38C1900.08 1875.26 1910.05 1874.76 1920.32 1869.73C1935.19 1862.25 1945.63 1848.48 1950.7 1832.76C1957.63 1813.19 1953.95 1791.73 1951.92 1771.62C1963.59 1772.29 1975.21 1772.8 1986.91 1771.87C1975.33 1771.19 1963.71 1770.9 1952.14 1770.52C1955.52 1768.4 1958.9 1766.25 1962.23 1764.05L1960.33 1769.21C2083.59 1759.53 2206.97 1750.74 2330.27 1741.23C2296.21 1647.68 2263.93 1553.42 2229.49 1459.99C2252.69 1397.37 2264.1 1329.68 2262.87 1263C2266 1261.14 2269.17 1259.28 2272.29 1257.43Z" fill="#7A5CF7"/>
<path d="M588.262 1559.88C598.741 1579.91 608.671 1600.15 617.84 1620.77C621.685 1628.59 624.685 1636.32 633.601 1639.45C641.333 1642.19 648.812 1639.02 656.207 1636.66C679.024 1628.29 701.038 1618.06 724.024 1610.12C758.504 1675.45 785.335 1744.02 796.279 1817.42C797.124 1841.08 790.236 1863.65 793.405 1887.56C780.518 1865.17 763.574 1850.72 738.771 1843.11C718.447 1836.77 697.869 1835 678.221 1844.46C670.911 1848.65 666.77 1854.39 670.911 1862.8C678.094 1876.79 689.291 1888.79 698.503 1901.5C702.094 1905.94 705.728 1910.34 709.362 1914.77C702.855 1925.12 694.954 1930.24 684.221 1935.65C680.925 1931.97 677.629 1928.34 674.376 1924.62C663.347 1912.62 654.516 1898.8 643.404 1886.93C636.263 1879.83 627.094 1881.39 621.22 1889.08C604.868 1914.43 605.079 1945.11 613.15 1973.38C620.375 1992.1 631.108 2007.01 647.671 2018.59C643.953 2023.11 640.361 2027.72 636.727 2032.32C612.812 2024.72 588.98 2016.56 564.895 2009.38C526.698 1998.22 488.965 1985.67 450.979 1973.84C447.176 1971.86 438.218 1970.84 437.964 1965.6C416.119 1859.97 367.104 1760.8 296.836 1678.95C393.133 1637.42 491.458 1600.36 588.262 1559.88Z" fill="#E3E3E2"/>
<path d="M625.984 1567.15C646.9 1575.13 667.731 1583.42 688.732 1591.19C674.661 1597.28 660.506 1603.11 646.182 1608.64C641.28 1599.73 636.506 1590.77 632.069 1581.6C629.956 1576.82 627.928 1572.01 625.984 1567.15Z" fill="#E3E3E2"/>
<path d="M1055.67 1605.51C1070.88 1613.5 1089 1626.18 1093.78 1643.63C1097.12 1652.97 1088.03 1666.44 1077.85 1659.73C1054.99 1646.33 1032.68 1634.04 1006.19 1629.35C976.608 1623.56 948.889 1629.56 920.875 1638.94C922.607 1626.35 924.002 1615.15 935.072 1607.08C971.622 1582.49 1017.47 1587.77 1055.67 1605.51Z" fill="#F8F7FC"/>
<path d="M693.261 1650.56C700.318 1656.09 700.402 1668.35 693.303 1673.84C684.134 1679.25 673.529 1682.37 663.726 1686.43C597.767 1713.94 531.175 1739.59 464.878 1766.5C452.244 1771.53 439.272 1778.71 425.92 1781.25C413.201 1779.35 407.751 1769.75 414.131 1758.22C432.807 1747.7 454.399 1742.04 474.09 1733.5C541.02 1705.44 608.795 1679.67 675.768 1651.87C681.81 1649.92 687.092 1647.39 693.261 1650.56Z" fill="#3C2D7D"/>
<path d="M1018.74 1667.59C1046.29 1677.68 1076.93 1690.95 1089.6 1719.52C1107.65 1757.42 1124.25 1799.84 1127.51 1841.97C1128.1 1852.66 1128.86 1866.09 1123.62 1875.81C1120.32 1882.45 1110.98 1885.79 1104.6 1881.56C1096.07 1876.4 1090.87 1866.6 1086.52 1857.94C1077.65 1839.09 1068.82 1820.46 1063.36 1800.31C1060.87 1791.56 1057.24 1783.95 1047.43 1782.18C1036.32 1779.81 1026.43 1788.69 1026.81 1799.71C1028.25 1818.05 1030.03 1836.22 1030.58 1854.64C1035.22 1902.77 1044.01 1954.11 1042.62 2002.58C1042.45 2013.9 1033.2 2021.93 1022.08 2021.08C1007.25 2019.35 993.688 2008.24 987.392 1994.97C983.42 1983.98 983.843 1971.1 982.659 1959.52C979.744 1938.81 977.462 1918.15 975.223 1897.41C972.223 1884.81 956.166 1881.6 947.081 1889.5C942.898 1893.77 941.673 1899.39 942.18 1905.22C944.124 1930.53 948.56 1956.35 948.772 1981.83C943.617 1992.39 934.912 1990.49 924.898 1990.24C912.771 1983.27 903.01 1974.81 900.56 1960.28C897.475 1934 899.25 1907 897.856 1880.59C897.264 1873.19 889.996 1866.43 882.644 1866.14C875.207 1867.32 866.757 1871.67 866.123 1880.08C863.841 1900.83 865.573 1922.08 864.813 1942.96L858.432 1939.28C840.559 1925.93 829.488 1903.32 826.784 1881.43C825.305 1864.74 826.996 1848.22 830.122 1831.83C839.165 1779.47 865.278 1733.88 899.715 1694.12C907.067 1685.71 915.813 1678.78 925.912 1673.92C955.067 1660.53 988.11 1656.51 1018.74 1667.59Z" fill="#F8F7FC"/>
<path d="M1316.75 1658.88C1308.72 1678.87 1299 1698.73 1293.34 1719.56C1290.09 1732.78 1295.79 1744.32 1306.36 1752.14C1320.09 1761.73 1336.57 1767.9 1352.5 1772.88C1368.17 1777.74 1386.68 1773.81 1394.96 1758.6C1405.27 1739.67 1410.22 1718.33 1420.65 1699.32C1434.43 1724.04 1439.2 1752.39 1428.55 1779.26C1419.72 1803.09 1400.5 1819.83 1377.89 1830.26C1366.1 1835.17 1351.74 1834.19 1339.52 1838.12C1330.44 1841.21 1326.81 1852.07 1323.38 1860.1C1311.43 1893.1 1298.03 1925.46 1286.33 1958.55C1280.03 1977.6 1261.9 1987.53 1246.1 1997.84C1242.72 1980.98 1237.57 1964.42 1234.73 1947.48C1237.14 1936.32 1243.06 1925.67 1247.41 1915.15C1258.23 1891.62 1267.23 1867.41 1277.03 1843.45C1280.37 1834.07 1284.76 1822.83 1278.68 1813.57C1270.65 1801.28 1260.55 1791.77 1255.48 1777.53C1245.04 1752.98 1249.31 1727.54 1260.21 1704.09C1268.45 1684.57 1285.02 1671.73 1303.95 1663.32C1308.21 1661.8 1312.48 1660.32 1316.75 1658.88Z" fill="#B2B6BB"/>
<path d="M710.157 1707.52C723.002 1702.4 732.002 1720.99 723.467 1729.36C717.467 1733.54 710.199 1736.12 703.481 1738.95C666.213 1753.28 630.001 1770.18 592.606 1784.25C549.676 1799.88 508.056 1818.85 465.253 1834.95C458.492 1837.02 452.45 1839.73 446.238 1834.62C439.393 1829.63 440.407 1816.91 448.182 1813.19C456.633 1808.54 466.098 1805.54 475.013 1801.91C553.902 1770.47 630.762 1738.23 710.157 1707.52Z" fill="#3C2F7E"/>
<path d="M1869.36 1717.23C1899.36 1738.57 1921.67 1775.29 1922.26 1812.52C1922.01 1828.11 1912.12 1836.05 1901.26 1845.26C1899.23 1832.42 1898.31 1816.74 1891.04 1805.55C1884.78 1796.25 1870.71 1799.25 1865.73 1808.04C1866.15 1826.76 1870.8 1843.32 1863.83 1861.7C1853.98 1883.67 1839.57 1903.24 1819.88 1917.26C1796.64 1932.52 1775.35 1941.86 1748.18 1948.03C1730.6 1958.5 1727.56 1988.21 1720.33 2006.08C1716.91 2017.11 1713.15 2027.93 1709.09 2038.75C1695.95 2043.56 1682.68 2047.66 1669.12 2051.04C1660.84 2010.14 1674.02 1973.25 1691.98 1937.17C1696.03 1929.05 1700.43 1920.39 1696.46 1911.26C1691.43 1904.84 1685.51 1899.77 1677.32 1904.93C1665.95 1912.96 1660.37 1929.94 1654.58 1942.15C1640.77 1972.53 1638.7 2003.51 1617.61 2027.84C1609.33 2038.24 1589.22 2043.35 1580.13 2031.48C1572.57 2017.79 1574.55 2001.18 1577.72 1986.52C1586.47 1949.5 1603.16 1914.73 1627.84 1885.7C1635.32 1878.01 1634.56 1865.84 1624.33 1861.07C1615.79 1857.05 1608.15 1862.8 1602.36 1868.63C1572.15 1900.15 1556 1942.32 1543.54 1983.39C1536.06 1972.49 1531.41 1961.12 1532.43 1947.65C1535.17 1913.59 1551.31 1881.39 1570.29 1853.59C1597.03 1813.45 1637.77 1782.22 1680.7 1761.09C1710.11 1747.36 1746.32 1741.78 1778.51 1743.94C1796.9 1744.66 1809.19 1754.88 1825.04 1762.11C1839.11 1766.88 1848.11 1744.87 1837.92 1735.91C1827.95 1727.38 1815.15 1721.97 1804.04 1714.99C1824.61 1699.23 1849.25 1703.08 1869.36 1717.23Z" fill="#F8F7FC"/>
<path d="M1127.85 1719.69C1157.94 1728.6 1187.51 1739 1217.89 1747.19C1219.16 1761.77 1220.56 1775.76 1226.94 1789.11C1232.51 1802.25 1241.51 1812.81 1248.61 1825.03C1248.36 1834.41 1243.75 1843.91 1240.37 1852.58C1233.4 1868.04 1229.26 1883.46 1219.8 1897.7C1214.98 1884.69 1214.01 1867.79 1206.4 1856.25C1195.37 1847.34 1176.78 1847.12 1163.34 1843.91C1159.63 1821.81 1156.08 1799.93 1148.98 1778.59C1142.89 1758.39 1132.92 1740.01 1127.85 1719.69Z" fill="#AD7D55"/>
<path d="M306.882 1740.85C331.389 1772.84 350.784 1809.22 367.474 1845.77C384.376 1881.48 398.193 1919.67 404.996 1958.67C393.714 1955.29 390.038 1953.6 384.418 1943.08C346.051 1877.88 291.501 1828.11 229.219 1786.23C254.36 1769.97 280.431 1754.84 306.882 1740.85Z" fill="#C1C4C5"/>
<path d="M823.317 1740.6C823.697 1748.8 819.683 1752.39 814.908 1758.43C813.134 1754.21 812.035 1749.9 811.57 1745.54C815.331 1743.6 819.261 1741.95 823.317 1740.6Z" fill="#816889"/>
<path d="M934.661 1745.08C935.718 1754.54 926.633 1763.67 922.408 1771.78C913.238 1785.9 913.154 1801.15 899.548 1812.31C892.787 1807.11 885.266 1806.18 887.21 1795.78C890.379 1776.31 901.872 1757.67 914.675 1742.97C920.76 1735.53 930.098 1737.09 934.661 1745.08Z" fill="#392C79"/>
<path d="M991.196 1750.44C995.463 1760.67 983.379 1773.22 979.576 1782.47C973.407 1793.29 970.069 1806.94 961.871 1816.28C952.491 1818.43 943.913 1809.47 946.744 1800.13C950.463 1782.64 962.167 1760.92 974.886 1748.25C979.829 1742.58 988.28 1743.05 991.196 1750.44Z" fill="#423387"/>
<path d="M741.382 1767.77C746.284 1772.38 750.255 1782.98 744.34 1788.14C735.593 1795.36 722.917 1798.45 712.607 1802.97C640.987 1833.52 568.774 1862.67 496.182 1890.81C488.745 1893.69 480.886 1897.45 472.942 1898.38C462.379 1896.77 457.773 1883.67 464.365 1875.64C470.153 1871.25 477.801 1868.97 484.477 1866.26C561.929 1835.38 639.001 1803.47 716.579 1772.92C724.016 1770.47 733.565 1765.02 741.382 1767.77Z" fill="#3C2F7D"/>
<path d="M1748.09 1780.24C1758.02 1779.22 1764.19 1793.33 1757.26 1799.33C1745.94 1804.32 1733.35 1805.97 1721.85 1810.79C1709.35 1815.81 1698.06 1824.1 1685.43 1828.07C1676.35 1824.81 1673.01 1814.17 1680.95 1807.78C1698.15 1792.4 1725.28 1782.14 1748.09 1780.24Z" fill="#3C2E7C"/>
<path d="M799.574 1807.87C804.264 1815.26 808.447 1823.29 814.109 1830.01C819.307 1831.24 824.842 1831.28 830.124 1831.83C826.997 1848.22 825.307 1864.74 826.785 1881.43C818.968 1880.55 811.997 1877.17 804.94 1882.19C795.898 1887.81 785.841 1894.95 780.475 1904.38C778.827 1920.39 785.292 1933.66 775.7 1948.62C776.883 1932.39 776.545 1917.77 768.052 1903.41C758.207 1887.35 744.052 1875.39 725.883 1869.9C730.784 1866.9 740.418 1864.36 741.686 1857.9C741.137 1852.95 739.869 1847.97 738.77 1843.11C763.573 1850.71 780.517 1865.17 793.405 1887.56C790.236 1863.64 797.123 1841.08 796.278 1817.42L799.574 1807.87Z" fill="#362A75"/>
<path d="M1452.94 1815.64C1481.03 1824.64 1509.73 1832.12 1537.32 1842.6C1530.43 1856.38 1523.33 1870.02 1516.11 1883.63C1493.33 1878.56 1471.78 1874.55 1449.68 1885.02C1420.4 1897.66 1407.05 1928.5 1392.01 1954.36C1367.41 1957.83 1342.65 1958.8 1318.19 1963.15C1327.48 1936.53 1337.46 1910.21 1346.5 1883.46C1349.79 1876.45 1351.36 1866.18 1360.82 1865.59C1388.16 1860.98 1413.47 1850.84 1431.85 1829.25C1437.47 1824.43 1444.4 1811.16 1452.94 1815.64Z" fill="#AC7C54"/>
<path d="M1782.6 1814.8C1793.76 1812.35 1798.19 1822.87 1793.92 1832C1784.8 1839.98 1773.6 1845.39 1764.35 1853.38C1754.38 1859.8 1744.07 1880.72 1730.54 1873.15C1723.49 1861.15 1732.95 1850.67 1740.6 1842.1C1752.39 1830.69 1766.76 1819.66 1782.6 1814.8Z" fill="#372B77"/>
<path d="M738.754 1843.11C739.852 1847.97 741.12 1852.95 741.669 1857.9C740.402 1864.36 730.768 1866.9 725.866 1869.9C721.472 1869.9 717.12 1869.86 712.725 1869.86C714.88 1872.81 717.077 1875.77 719.275 1878.69C718.218 1884.35 716.908 1889.93 715.345 1895.42C711.12 1899.05 703.641 1899.65 698.486 1901.5C689.274 1888.79 678.077 1876.79 670.894 1862.8C666.753 1854.39 670.894 1848.64 678.204 1844.46C697.852 1835 718.43 1836.77 738.754 1843.11Z" fill="#403183"/>
<path d="M1863.82 1861.7C1866.69 1869.52 1869.48 1877.29 1872.31 1885.11C1877.81 1884.56 1883.3 1883.97 1888.83 1883.54C1884.69 1891.36 1880.55 1899.18 1876.37 1907C1919.97 1920.56 1964.05 1932.86 2007.53 1946.8C2014.96 1948.95 2019.06 1954.15 2023.37 1960.11C2011.62 1956.26 2004.23 1951.11 1992.57 1958.59C1996.45 1961.55 2000.34 1964.42 2004.23 1967.33C2001.4 1971.64 1998.53 1975.91 1995.74 1980.22C1965.78 1991.25 1935.27 2000.42 1904.81 2009.93C1905.65 2003.97 1906.54 1997.97 1907.38 1992.01C1901.43 1988.8 1895.47 1985.55 1889.55 1982.29C1909.45 1975.02 1929.61 1970.33 1948.83 1961.55C1917.69 1951.45 1886.3 1941.05 1854.52 1933.15C1848.06 1936.74 1841.85 1940.71 1835.64 1944.77C1832.3 1933.24 1828.62 1925.67 1819.88 1917.26C1839.57 1903.24 1853.97 1883.67 1863.82 1861.7Z" fill="#372A76"/>
<path d="M712.74 1869.86C717.135 1869.86 721.487 1869.9 725.881 1869.9C744.051 1875.39 758.206 1887.35 768.051 1903.41C758.417 1923.43 753.896 1943.12 737.839 1959.39C723.262 1977.52 713.079 2002.28 686.754 2004.99C668.12 1998.48 651.049 1985.89 643.19 1967.29C637.951 1955.67 637.571 1943.63 636.43 1931.12L643.655 1932.9C647.12 1936.96 650.373 1941.14 653.669 1945.36C662.331 1956.31 673.064 1967.84 688.487 1965.69C701.67 1962.6 713.839 1953.82 724.065 1945.28C733.614 1937.08 740.501 1926.69 739.867 1913.59C738.135 1900.19 726.98 1889.38 719.29 1878.69C717.093 1875.77 714.895 1872.81 712.74 1869.86Z" fill="#D08365"/>
<path d="M882.645 1866.14C889.997 1866.43 897.265 1873.19 897.856 1880.59C899.251 1907 897.476 1934 900.56 1960.28C903.011 1974.81 912.772 1983.26 924.899 1990.24C921.138 1996.02 917.335 2001.77 913.575 2007.56C914.758 2012.33 915.983 2017.11 917.209 2021.88C894.265 2013.9 880.955 1998.64 866.926 1979.88C865.954 2001.52 867.307 2023.03 868.49 2044.62C864.053 2060.08 848.123 2062.24 846.137 2079.48C827.123 2057.25 808.404 2034.9 790.024 2012.17C786.939 2008.53 783.855 2004.94 780.812 2001.26C791.292 1996.02 796.658 1989.77 802.954 1980.18C813.095 1992.9 823.362 2005.41 835.109 2016.69C834.222 1998.35 836.123 1977.77 830.165 1960.24C845.546 1958.76 857.504 1959.39 868.87 1947.14C865.363 1944.52 861.898 1941.9 858.433 1939.28L864.814 1942.95C865.574 1922.08 863.842 1900.83 866.123 1880.08C866.757 1871.67 875.208 1867.32 882.645 1866.14Z" fill="#392B7A"/>
<path d="M826.77 1881.43C829.474 1903.32 840.545 1925.93 858.418 1939.28C861.883 1941.9 865.348 1944.52 868.855 1947.14C857.489 1959.39 845.531 1958.76 830.15 1960.24C823.643 1953.14 817.136 1946.29 812.404 1937.8C810.206 1933.74 808.051 1929.73 805.939 1925.67C805.727 1942.79 803.53 1957.91 798.248 1974.14C799.812 1976.17 801.375 1978.2 802.939 1980.18C796.643 1989.77 791.277 1996.03 780.798 2001.27C775.727 1994.38 767.361 1986.18 766.516 1977.35C768.121 1967.34 771.882 1957.96 775.685 1948.62C785.276 1933.66 778.812 1920.39 780.46 1904.38C785.826 1894.96 795.882 1887.81 804.925 1882.19C811.981 1877.17 818.953 1880.55 826.77 1881.43Z" fill="#423386"/>
<path d="M1159.23 1875.64C1167.51 1876.11 1175.75 1877.12 1183.99 1878.14C1195.53 1914.52 1206.22 1952.12 1213.02 1989.73C1194.56 1985.93 1176.34 1980.98 1157.92 1976.89C1149.34 1984.07 1140.94 1991.46 1133.12 1999.49C1085.96 2047.87 1038.05 2095.41 991.991 2144.8C972.892 2139.56 954.173 2133.27 935.328 2127.27C928.314 2125.07 921.933 2122.32 916.609 2117.13C923.708 2104.75 928.44 2097.86 942.469 2092.91C943.736 2087.46 944.919 2082.06 946.103 2076.6C949.314 2078.04 952.483 2079.52 955.652 2080.96C953.624 2075.17 951.596 2069.38 949.567 2063.55C961.187 2055.6 971.075 2046.27 980.497 2035.87C999.512 2051.51 1025.33 2061.73 1049.16 2050.66C1068.6 2038.83 1076.41 2011.41 1076.41 1989.9C1075.99 1957.24 1070.5 1924.49 1067.92 1891.95C1077.34 1901.34 1086.26 1912.74 1099.74 1916.21C1114.27 1919.63 1130.46 1917.18 1141.49 1906.49C1150.06 1898.42 1154.08 1886.04 1159.23 1875.64Z" fill="#7193B1"/>
<path d="M719.285 1878.69C726.975 1889.38 738.13 1900.2 739.862 1913.59C740.496 1926.69 733.609 1937.08 724.059 1945.28C713.834 1953.82 701.665 1962.61 688.481 1965.69C673.059 1967.84 662.326 1956.31 653.664 1945.37C658.523 1943.59 663.34 1941.82 668.199 1940.08C670.27 1934.93 672.298 1929.77 674.369 1924.62C677.622 1928.34 680.918 1931.97 684.214 1935.65C694.946 1930.24 702.848 1925.13 709.355 1914.77C705.721 1910.34 702.087 1905.94 698.496 1901.51C703.651 1899.65 711.13 1899.06 715.355 1895.42C716.918 1889.93 718.228 1884.35 719.285 1878.69Z" fill="#372A75"/>
<path d="M643.392 1886.93C654.505 1898.8 663.336 1912.62 674.365 1924.62C672.294 1929.77 670.266 1934.93 668.196 1940.08C663.336 1941.81 658.519 1943.59 653.66 1945.36C650.364 1941.14 647.111 1936.95 643.646 1932.9L636.421 1931.12L633.674 1930.49C633.125 1942.74 633.59 1955.42 631.477 1967.5C628.815 1972.36 618.04 1971.73 613.139 1973.38C605.068 1945.11 604.857 1914.43 621.209 1889.08C627.082 1881.39 636.252 1879.83 643.392 1886.93Z" fill="#413284"/>
<path d="M975.221 1897.41C977.46 1918.15 979.742 1938.81 982.657 1959.52C973.784 1954.83 966.052 1951.91 955.953 1951.19C954.263 1961.67 952.699 1971.9 948.77 1981.83C948.558 1956.35 944.122 1930.53 942.178 1905.22C941.671 1899.39 942.896 1893.77 947.08 1889.5C956.164 1881.6 972.221 1884.81 975.221 1897.41Z" fill="#352876"/>
<path d="M582.754 1902.01C594.162 1900.87 603.12 1916.88 594.12 1925.04C584.866 1930.53 573.923 1933.4 563.908 1937.38C543.626 1945.02 523.682 1953.43 503.612 1961.63C494.654 1964.59 486.795 1969.02 477.499 1964.46C472.09 1958.29 469.639 1944.94 479.569 1941.86C498.203 1933.11 518.189 1927.19 537.161 1919.17C552.288 1913.63 567.077 1905.73 582.754 1902.01Z" fill="#3A2D7A"/>
<path d="M323.359 1906.91C332.401 1916.59 339.246 1927.49 344.95 1939.45C325.429 1934.63 301.429 1930.87 285.203 1918.41C297.668 1913.84 310.387 1909.83 323.359 1906.91Z" fill="#AA7A58"/>
<path d="M768.039 1903.41C776.532 1917.77 776.87 1932.39 775.687 1948.62C771.884 1957.96 768.123 1967.34 766.518 1977.35C767.363 1986.18 775.729 1994.38 780.8 2001.27C783.842 2004.94 786.926 2008.53 790.011 2012.17C781.222 2020.62 772.814 2029.32 764.87 2038.58L759.335 2031.39C752.025 2021.42 744.757 2011.62 735.503 2003.34C731.531 2003.93 727.602 2004.6 723.63 2005.32C711.207 2006.89 699.08 2008.03 686.742 2004.99C713.066 2002.28 723.25 1977.52 737.827 1959.39C753.884 1943.13 758.405 1923.43 768.039 1903.41Z" fill="#D69273"/>
<path d="M1504.12 1913.84C1498.96 1941.18 1495.08 1974.56 1511.47 1998.94C1518.82 2010.43 1530.49 2012.34 1540.54 2020.11C1546.2 2033.72 1547.51 2046.52 1559.43 2056.7C1572.44 2068.79 1587.82 2070.69 1604.81 2072.12C1578.11 2081.46 1551.02 2089.58 1523.85 2097.39C1507.67 2071.45 1492.37 2047.74 1463.77 2034.05C1437.48 2020.66 1410.23 2023.7 1382.98 2032.03C1401.48 2002.62 1416.99 1971.6 1434.27 1941.48C1440.95 1929.69 1449.19 1919.59 1461.86 1913.93C1476.15 1907.08 1489.5 1910.67 1504.12 1913.84Z" fill="#D3BC96"/>
<path d="M1819.88 1917.27C1828.62 1925.67 1832.3 1933.24 1835.64 1944.77C1832.13 1947.1 1828.62 1949.42 1825.12 1951.7C1839.48 1964.89 1846.54 1975.15 1852.67 1993.75C1865.09 1990.28 1877.34 1986.48 1889.55 1982.29C1895.47 1985.55 1901.43 1988.8 1907.38 1992.01C1906.54 1997.97 1905.65 2003.97 1904.81 2009.93C1878.65 2018.42 1852.5 2026.91 1826.26 2035.15C1811.13 2030 1803.4 2025.18 1793.38 2012.72C1803.4 2009.68 1813.24 2006.13 1823.05 2002.41C1818.86 1980.6 1805.59 1974.18 1785.27 1970.8C1770.61 1966.07 1759.71 1971.56 1746.31 1976.67C1746.74 1967.13 1747.5 1957.58 1748.17 1948.03C1775.34 1941.86 1796.64 1932.52 1819.88 1917.27Z" fill="#3E2F7E"/>
<path d="M633.684 1930.49L636.43 1931.12C637.571 1943.63 637.951 1955.67 643.191 1967.29C651.05 1985.89 668.121 1998.48 686.755 2004.98C699.093 2008.03 711.22 2006.89 723.643 2005.32C707.206 2014.96 691.234 2011.53 673.065 2012.55C669.093 2016.94 665.163 2021.29 661.234 2025.69C656.67 2023.45 652.149 2021.04 647.67 2018.59C631.106 2007.01 620.374 1992.1 613.148 1973.38C618.05 1971.73 628.825 1972.36 631.487 1967.5C633.599 1955.42 633.135 1942.74 633.684 1930.49Z" fill="#362976"/>
<path d="M805.94 1925.67C808.053 1929.73 810.208 1933.74 812.405 1937.8C817.138 1946.29 823.645 1953.14 830.152 1960.24C836.11 1977.77 834.208 1998.35 835.096 2016.69C823.349 2005.41 813.081 1992.9 802.94 1980.18C801.377 1978.2 799.813 1976.17 798.25 1974.14C803.532 1957.91 805.729 1942.79 805.94 1925.67Z" fill="#E3E3E3"/>
<path d="M1854.52 1933.15C1886.29 1941.05 1917.69 1951.45 1948.83 1961.55C1929.6 1970.34 1909.45 1975.03 1889.55 1982.29C1877.34 1986.48 1865.08 1990.28 1852.66 1993.74C1846.53 1975.15 1839.48 1964.88 1825.11 1951.7C1828.62 1949.42 1832.12 1947.1 1835.63 1944.77C1841.84 1940.72 1848.05 1936.74 1854.52 1933.15Z" fill="#AB7B56"/>
<path d="M236.61 1939.2C278.442 1952.21 320.484 1964.46 362.02 1978.36C422.57 1998.35 483.67 2016.48 544.431 2035.79C577.685 2046.61 610.939 2057.34 644.319 2067.73C658.306 2072.08 672.249 2076.69 686.278 2080.87C729.968 2095.24 773.828 2109.06 817.688 2122.92C930.844 2158.28 1043.07 2195.13 1156.1 2230.45C1131.38 2265.1 1109.16 2301.4 1085.37 2336.68C1074.68 2352.78 1064.11 2368.92 1053.93 2385.36C1017.68 2441.09 981.802 2497.08 945.422 2552.68C899.618 2535.82 853.223 2520.99 807.124 2504.72C614.15 2438.76 421.514 2371.54 228.413 2306.13C166.342 2283.19 102.961 2264 40.5938 2242.03C53.777 2217.82 70.5941 2195.89 84.7914 2172.23C135.201 2094.69 185.441 2016.18 236.61 1939.2Z" fill="#DAAE84"/>
<path d="M1748.17 1948.02C1747.5 1957.57 1746.74 1967.12 1746.31 1976.67C1759.71 1971.56 1770.61 1966.07 1785.27 1970.8C1777.84 1973.21 1770.44 1975.83 1763.05 1978.41C1757.72 1994.55 1752.74 2010.77 1748.34 2027.17C1763.26 2022.01 1778.17 2016.98 1793.39 2012.72C1803.4 2025.18 1811.13 2030 1826.26 2035.15C1803.53 2042.04 1781.13 2049.9 1758.36 2056.58C1760.38 2049.65 1762.46 2042.67 1764.57 2035.74C1755.57 2032.83 1746.27 2032.96 1740.82 2024.34C1735.37 2016.26 1728.61 2011.15 1720.33 2006.08C1727.55 1988.21 1730.6 1958.5 1748.17 1948.02Z" fill="#352772"/>
<path d="M1785.27 1970.8C1805.6 1974.18 1818.87 1980.6 1823.05 2002.41C1813.25 2006.13 1803.4 2009.68 1793.39 2012.72C1778.17 2016.99 1763.26 2022.01 1748.34 2027.17C1752.74 2010.77 1757.72 1994.55 1763.05 1978.41C1770.44 1975.83 1777.84 1973.21 1785.27 1970.8Z" fill="#DABC92"/>
<path d="M866.919 1979.88C880.947 1998.64 894.257 2013.9 917.201 2021.88C933.3 2025.43 947.243 2020.87 962.328 2015.84C968.328 2022.56 974.202 2029.49 980.497 2035.87C971.075 2046.26 961.187 2055.6 949.567 2063.55C951.596 2069.38 953.624 2075.17 955.652 2080.96C952.483 2079.52 949.314 2078.04 946.103 2076.6C944.919 2082.05 943.736 2087.46 942.469 2092.91C928.44 2097.86 923.708 2104.74 916.609 2117.12C903.173 2100.77 889.271 2084.76 875.961 2068.28C869.876 2061.35 869.369 2053.41 868.482 2044.62C867.299 2023.03 865.947 2001.52 866.919 1979.88Z" fill="#7897B5"/>
<path d="M1336.14 1982.8C1349.07 1979.97 1363.18 1976.5 1372.82 1988.25C1354.06 1990.74 1335.29 1993.24 1316.7 1996.7C1322.75 1990.79 1327.44 1984.74 1336.14 1982.8Z" fill="#3B2B66"/>
<path d="M1995.75 1980.22C2003.94 1985.12 2007.96 1992.6 2013.24 2000.17C2041.34 2042.29 2069.82 2084.13 2099.14 2125.41C2128.13 2169.82 2159.57 2212.49 2188.43 2256.99C2146.89 2274.18 2103.24 2287.49 2060.69 2301.9C1992.41 2327.34 1922.56 2349.14 1854.15 2374.03C1710.7 2423.55 1567.08 2472.74 1423.92 2522.98C1419.15 2524.12 1412.89 2527.5 1408.12 2526.31C1395.99 2509.75 1385.56 2492 1373.01 2475.65C1315.63 2394.14 1259.85 2311.49 1201.84 2230.41C1248.99 2215.66 1296.06 2200.7 1343.18 2185.87C1361.47 2227.07 1358.73 2267.8 1363.33 2311.28C1368.91 2316.69 1375.33 2318.93 1374.91 2327.85C1376.6 2336.64 1375.04 2350.75 1382.01 2357.17C1389.32 2364.82 1403.18 2359.49 1404.36 2349.18C1404.87 2336.59 1403.13 2323.83 1402.37 2311.28C1406.77 2309.68 1411.16 2308.03 1415.51 2306.38C1417.8 2316.27 1419.36 2326.79 1423.33 2336.17C1427.3 2346.31 1444.67 2346.61 1447.71 2335.37C1449.49 2323.16 1444.29 2309.47 1442.51 2297.25C1448.35 2295.18 1454.13 2293.16 1460.01 2291.17C1462.88 2300.09 1464.32 2311.79 1470.53 2318.93C1476.83 2325.52 1486.75 2323.87 1492.12 2317.03C1493.85 2305.45 1488.45 2292.23 1485.32 2281.11C1490.35 2277.48 1495.37 2273.89 1500.45 2270.42C1504.08 2280.35 1506.28 2290.79 1510.04 2300.64C1513.71 2307.35 1521.23 2307.27 1527.78 2305.54C1534.63 2301.82 1534.33 2293.96 1535.14 2287.2C1546.25 2284.62 1559.18 2283.56 1568.05 2276.34C1574.64 2260.83 1568.26 2249.13 1563.19 2234.55C1565.43 2229.35 1569.28 2223.99 1569.49 2218.28C1563.19 2184.94 1549.04 2157.1 1537.46 2126.42C1611.28 2103.86 1684.8 2080.03 1758.36 2056.58C1781.14 2049.9 1803.53 2042.04 1826.27 2035.15C1852.51 2026.91 1878.66 2018.42 1904.82 2009.93C1935.28 2000.42 1965.79 1991.25 1995.75 1980.22Z" fill="#DAAE84"/>
<path d="M1372.82 1988.25C1365.43 2000.93 1358.37 2013.81 1350.85 2026.41C1331.45 2020.2 1311.47 2016.48 1292.24 2009.76C1299.72 2003.8 1307.37 1999.28 1316.71 1996.7C1335.3 1993.24 1354.06 1990.74 1372.82 1988.25Z" fill="#CBB68E"/>
<path d="M723.636 2005.32C727.608 2004.6 731.537 2003.93 735.509 2003.34C744.763 2011.62 752.03 2021.42 759.34 2031.39C757.016 2036.17 754.65 2040.94 752.284 2045.72C747.467 2047.66 742.692 2049.6 737.918 2051.55C733.777 2045.76 729.763 2039.89 725.706 2034.05C703.1 2037.35 681.804 2036.25 661.227 2025.69C665.156 2021.29 669.086 2016.94 673.058 2012.55C691.227 2011.53 707.199 2014.96 723.636 2005.32Z" fill="#443386"/>
<path d="M564.896 2009.38C588.981 2016.56 612.812 2024.72 636.728 2032.32C641.292 2033.8 645.813 2035.28 650.334 2036.8C646.531 2041.58 639.179 2046.94 638.461 2053.37C639.982 2058.27 642.263 2063.04 644.334 2067.73C610.953 2057.34 577.699 2046.6 544.445 2035.79C550.361 2032.2 556.995 2028.86 561.939 2024.04C564.727 2020.15 563.924 2013.94 564.896 2009.38Z" fill="#352774"/>
<path d="M1187.12 2014.91C1228.44 2025.86 1270.1 2035.32 1311.34 2046.56C1285.52 2050.83 1259.12 2055.44 1236.09 2068.87C1219.95 2079.82 1205.03 2100.69 1184.75 2104.41C1163.28 2106.35 1143.93 2102.21 1123.31 2111.47C1095 2121.94 1078.9 2143.16 1061.07 2166.01C1049.16 2163.06 1037.28 2159.85 1025.58 2156.13C1032.34 2146.7 1039.9 2138.21 1048.14 2130.06C1083.55 2092.2 1120.82 2056.15 1156.14 2018.21C1164.89 2007.31 1175.66 2012.84 1187.12 2014.91Z" fill="#DC7769"/>
<path d="M790.016 2012.17C808.397 2034.9 827.115 2057.25 846.129 2079.48C852.848 2087.25 859.144 2095.28 865.144 2103.6C850.904 2100.77 837.129 2096.38 823.228 2092.2C812.453 2088.56 801.847 2087.8 794.875 2077.75C784.988 2064.6 775.396 2051.25 764.875 2038.58C772.819 2029.32 781.227 2020.62 790.016 2012.17Z" fill="#D18364"/>
<path d="M647.663 2018.59C652.142 2021.04 656.663 2023.45 661.226 2025.69C681.804 2036.25 703.1 2037.35 725.706 2034.06C729.762 2039.89 733.776 2045.76 737.917 2051.55C741.762 2056.83 745.607 2062.11 749.41 2067.44C739.396 2065.03 729.509 2062.37 719.706 2059.24C696.424 2052.14 673.311 2044.79 650.325 2036.8C645.803 2035.28 641.282 2033.8 636.719 2032.32C640.353 2027.72 643.944 2023.11 647.663 2018.59Z" fill="#E2E8EB"/>
<path d="M759.331 2031.39L764.866 2038.58C775.387 2051.25 784.979 2064.61 794.866 2077.75C801.838 2087.8 812.444 2088.56 823.219 2092.2C819.331 2098.75 815.486 2105.25 811.599 2111.76C813.627 2115.48 815.655 2119.2 817.684 2122.92C773.824 2109.06 729.964 2095.24 686.273 2080.87C693.795 2080.37 701.231 2079.56 708.71 2078.76C712.344 2072.25 716.02 2065.75 719.696 2059.24C729.499 2062.37 739.387 2065.03 749.401 2067.44C745.598 2062.11 741.753 2056.83 737.908 2051.55C742.683 2049.6 747.457 2047.66 752.274 2045.72C754.64 2040.94 757.007 2036.17 759.331 2031.39Z" fill="#372978"/>
<path d="M650.326 2036.8C673.313 2044.79 696.426 2052.14 719.708 2059.24C716.032 2065.75 712.355 2072.25 708.722 2078.76C701.243 2079.56 693.806 2080.37 686.285 2080.87C672.256 2076.69 658.313 2072.08 644.326 2067.73C642.256 2063.04 639.974 2058.27 638.453 2053.37C639.171 2046.94 646.524 2041.58 650.326 2036.8Z" fill="#403185"/>
<path d="M1640.12 2053.79L1640.29 2061.39C1630.78 2066.51 1619.59 2068.2 1609.02 2070.01C1619.08 2064.01 1629.35 2058.39 1640.12 2053.79Z" fill="#77679B"/>
<path d="M1440.01 2058.18C1463.08 2064.22 1478.42 2080.83 1490.21 2100.73C1511.12 2136.6 1525.36 2176.79 1536.81 2216.55C1507.19 2233.16 1481.93 2251.07 1451.5 2262.82C1431.35 2270.34 1412.08 2278.75 1390.99 2283.4C1390.74 2249 1386.43 2212.03 1372.57 2180.3C1361.08 2155.87 1340.8 2131.87 1313.42 2125.62C1303.19 2123.93 1288.4 2122.2 1279.61 2128.96C1270.95 2134.75 1272.05 2148.69 1280.75 2153.84C1293.18 2156.59 1309.7 2152.28 1319.71 2160.52C1280.25 2173.45 1240.7 2186.17 1201.1 2198.76C1190.33 2201.55 1179.81 2206.7 1168.78 2202.52C1143.55 2193.65 1118.12 2185.28 1092.98 2176.15C1104.39 2162.17 1117.23 2147.72 1133.75 2139.65C1145.5 2134.11 1161.51 2136.82 1174.32 2136.31C1196.84 2136.69 1218.81 2124.73 1235.03 2109.77C1248.3 2097.6 1261.99 2087 1279.78 2082.39C1311.18 2074.2 1346.12 2078.34 1374.85 2093.55C1382.84 2097.06 1393.45 2104.24 1402.15 2100.01C1409.84 2097.22 1411.15 2087.34 1408.78 2080.53C1403.92 2073.22 1394.92 2068.45 1388.16 2062.91C1405.53 2057.76 1421.84 2053.28 1440.01 2058.18Z" fill="#7190A0"/>
<path d="M2719.55 2138.93C2745.79 2151.99 2763.07 2179.11 2777.01 2203.96C2816.1 2281.33 2836.09 2367.86 2833 2454.65C2831.23 2490.69 2823.54 2526.95 2801.06 2556.1C2778.32 2584.92 2745.28 2602.5 2711.01 2613.95C2672.18 2627.6 2630.39 2631.78 2589.53 2627.26C2558.6 2622.74 2526.74 2608.67 2509.25 2581.54C2491.67 2555.64 2488.08 2523.06 2498.14 2493.57C2509 2459.72 2534.77 2435.93 2565.53 2419.75C2548.76 2414.81 2536.5 2409.06 2523.28 2397.57C2516.56 2391.36 2511.19 2397.69 2504.77 2400.69L2509.17 2395.75C2524.17 2391.06 2532.41 2386.12 2543.81 2375.47C2565.15 2393.26 2595.49 2395.33 2616.11 2375.47C2630.44 2363.09 2631.7 2347.12 2639.9 2331.57C2651.44 2323.07 2665.38 2331.06 2665.34 2345C2663.69 2369.05 2647.46 2391.57 2628.24 2405.34C2659.8 2404.2 2695.84 2408.47 2721.49 2428.54C2732.06 2436.86 2731.21 2451.14 2719.08 2457.27C2711.48 2460.95 2705.82 2453.85 2699.31 2450.72C2678.31 2436.74 2652.32 2434.2 2627.73 2436.14C2600.56 2438.43 2574.62 2446.96 2554.67 2466.1C2536.55 2484.74 2522.9 2508.15 2525.39 2535.06C2527.63 2566.03 2555.52 2589.32 2584.42 2595.48C2613.28 2601.32 2644.72 2597.68 2673.41 2592.27C2707.84 2585.17 2742.87 2569.24 2767.72 2543.93C2785.89 2525.93 2796.37 2501 2799.75 2475.91C2809.09 2379.27 2786.44 2281.03 2736.66 2197.83C2723.77 2177.51 2703.41 2160.61 2678.56 2159.04C2654.22 2157.35 2632.04 2166.73 2613.62 2182.11C2633.01 2197.37 2655.15 2221.79 2656.8 2247.52C2656.63 2261.55 2640.53 2266.11 2631.7 2256.18C2623 2243.17 2619.07 2228.64 2607.15 2217.52C2585.69 2194.54 2548.17 2190.35 2524.08 2211.65C2507.65 2225.89 2503.76 2244.82 2501.52 2265.57L2508.66 2261.8C2496.07 2271.69 2484.24 2282.51 2471.14 2291.76C2470.38 2273.3 2469.15 2255.09 2474.05 2236.96C2482.8 2205.01 2507.22 2177.3 2539.72 2168.59C2553.87 2164.49 2566.97 2166.78 2581.29 2166.27C2592.36 2159.55 2601.58 2150.21 2613.36 2144.42C2645.6 2126.8 2686.13 2121.18 2719.55 2138.93Z" fill="#3B2D82"/>
<path d="M2678.56 2159.04C2703.41 2160.6 2723.77 2177.51 2736.66 2197.83C2786.43 2281.03 2809.08 2379.27 2799.74 2475.9C2796.36 2501 2785.89 2525.93 2767.72 2543.93C2742.87 2569.24 2707.84 2585.17 2673.41 2592.27C2644.71 2597.68 2613.28 2601.31 2584.42 2595.48C2555.52 2589.31 2527.63 2566.03 2525.39 2535.06C2522.9 2508.14 2536.54 2484.74 2554.67 2466.1C2574.62 2446.96 2600.56 2438.43 2627.73 2436.14C2652.32 2434.2 2678.31 2436.74 2699.31 2450.72C2705.81 2453.85 2711.48 2460.95 2719.08 2457.27C2731.21 2451.14 2732.05 2436.86 2721.49 2428.54C2695.84 2408.47 2659.8 2404.2 2628.24 2405.34C2647.46 2391.57 2663.69 2369.04 2665.33 2345C2665.38 2331.06 2651.43 2323.07 2639.9 2331.56C2631.7 2347.11 2630.43 2363.09 2616.11 2375.47C2595.49 2395.33 2565.15 2393.26 2543.81 2375.47C2559.36 2360.89 2587.12 2348.47 2593.08 2327.13C2601.57 2301.06 2591.09 2271.06 2566.08 2258.55C2547.49 2248.24 2526.36 2250.94 2508.66 2261.8L2501.52 2265.56C2503.76 2244.82 2507.64 2225.89 2524.08 2211.65C2548.16 2190.35 2585.69 2194.54 2607.15 2217.52C2619.07 2228.63 2623 2243.17 2631.7 2256.18C2640.53 2266.11 2656.63 2261.55 2656.8 2247.52C2655.15 2221.79 2633.01 2197.37 2613.62 2182.11C2632.04 2166.73 2654.22 2157.35 2678.56 2159.04Z" fill="#F8F8FC"/>
<path d="M1536.95 2251.5C1541.26 2258.76 1544.68 2266.79 1549.75 2273.55C1554.35 2277.14 1562.51 2275.58 1568.04 2276.34C1559.17 2283.57 1546.24 2284.62 1535.13 2287.2C1532.13 2277.06 1528.71 2267.04 1525.66 2256.9C1529.42 2255.09 1533.19 2253.31 1536.95 2251.5Z" fill="#E1BA99"/>
<path d="M2566.08 2258.55C2591.09 2271.06 2601.57 2301.06 2593.08 2327.13C2587.12 2348.47 2559.36 2360.89 2543.81 2375.47C2532.4 2386.12 2524.16 2391.06 2509.16 2395.75L2504.77 2400.69C2493.4 2411.47 2479.2 2419.71 2465.89 2428.12C2429.68 2450.47 2391.27 2469.06 2351 2482.79C2312.89 2495.38 2270.85 2501.26 2231 2495.6C2185.2 2489 2144.47 2459.22 2122.96 2418.48C2107.79 2389.03 2099.72 2356.37 2099.51 2323.24C2136.94 2308.79 2174.8 2295.61 2213.04 2283.4C2209.11 2309.51 2203.92 2338.5 2216.42 2363.13C2223.57 2378.68 2239.12 2388.23 2255.93 2389.67C2282.81 2391.78 2306.98 2384.09 2331.4 2373.82C2380.96 2351.81 2428.41 2325.4 2471.13 2291.76C2484.23 2282.51 2496.06 2271.69 2508.65 2261.8C2526.36 2250.95 2547.49 2248.24 2566.08 2258.55Z" fill="#795CF9"/>
<path d="M1194.3 2275.66C1198.74 2281.66 1203.09 2287.75 1207.48 2293.83C1207.02 2303.34 1208.12 2310.78 1212.22 2319.48C1223.41 2343.99 1231.65 2369.64 1243.36 2393.89C1285.65 2479.62 1321.82 2568.48 1365.18 2653.71C1384.44 2650.92 1401.81 2643.44 1420.06 2637.23C1523.59 2602.92 1626.98 2568.06 1730.38 2533.41C1797.6 2509.83 1866.01 2489.85 1932.82 2465.17C1951.83 2458.41 1971.27 2452.96 1990.45 2446.58C1990.7 2518.28 1990.54 2589.99 1990.58 2661.69C1990.2 2683.62 1991.68 2705.17 1989.18 2727.06C1964.59 2735.13 1940.42 2744.43 1915.87 2752.58C1863.18 2769.57 1812.05 2790.74 1759.36 2807.68C1605.98 2861.39 1452.81 2916.4 1298.84 2968.37C1263.72 2980.08 1229.37 2995.88 1193.37 3004.54C1192.4 2822.68 1193.2 2640.74 1193.2 2458.88C1193.54 2397.86 1191.77 2336.63 1194.3 2275.66Z" fill="#CA9971"/>
<path d="M1160.5 2279.68C1162.65 2321.09 1162.52 2362.54 1162.36 2403.99C1161.81 2604.61 1162.82 2805.32 1162.1 3005.94C1157.71 3004.71 1153.36 3003.49 1148.96 3002.18C1151.58 2999.64 1154.16 2997.11 1156.78 2994.57C1155.98 2951.22 1156.4 2907.87 1156.74 2864.52C1157.62 2727.91 1155.51 2591.22 1158.47 2454.65C1159.19 2422.16 1155.3 2389.92 1156.14 2357.47C1156.52 2339.97 1157.67 2322.78 1155.64 2305.33C1155.13 2300.34 1154.45 2295.4 1153.65 2290.45C1156.02 2286.9 1158.21 2283.27 1160.5 2279.68Z" fill="#C1978C"/>
<path d="M1153.66 2290.45C1154.46 2295.4 1155.14 2300.34 1155.64 2305.33C1134.3 2343.27 1128.9 2385.61 1110.9 2424.9C1093.15 2463.19 1083.18 2503.67 1068.47 2543.09C1056.68 2578.54 1040.59 2612.22 1029.18 2647.79C1025.12 2657.26 1022.04 2672.94 1013.37 2678.89C996.81 2675.98 980.796 2669.13 964.824 2663.94C839.245 2620.08 713.328 2577.4 587.664 2533.92C516.804 2508.48 445.395 2485.12 374.281 2460.48C331.689 2444.26 287.914 2432.09 245.533 2415.23C245.364 2391.9 245.66 2368.58 246.04 2345.26C414.676 2402.76 583.143 2460.57 751.652 2518.37C812.498 2538.78 873.048 2559.95 933.471 2581.41C941.373 2583.95 950.373 2587.37 958.739 2586.7C970.401 2575.54 978.26 2559.95 987.303 2546.64C1016.16 2502.91 1044.13 2458.67 1072.19 2414.43C1087.66 2392.58 1102.15 2370.14 1116.39 2347.45C1128.01 2327.76 1140.35 2309 1153.66 2290.45Z" fill="#AB7F59"/>
<path d="M1207.48 2293.83C1232.45 2325.99 1253.12 2361.02 1277.88 2393.26C1315.31 2446.12 1351.48 2499.95 1388.63 2552.93C1395.81 2562.27 1398.77 2564.34 1410.77 2560.37C1573.53 2503.12 1738.15 2448.65 1901 2391.48C1931.08 2382.27 1960.07 2369.59 1990.41 2361.31C1991.59 2389.62 1990.62 2418.19 1990.45 2446.58C1971.27 2452.96 1951.83 2458.41 1932.81 2465.17C1866.01 2489.85 1797.6 2509.83 1730.38 2533.41C1626.98 2568.06 1523.58 2602.92 1420.06 2637.23C1401.81 2643.44 1384.44 2650.92 1365.17 2653.71C1321.82 2568.48 1285.65 2479.62 1243.36 2393.89C1231.65 2369.64 1223.41 2343.99 1212.21 2319.48C1208.12 2310.78 1207.02 2303.34 1207.48 2293.83Z" fill="#AA7D57"/>
<path d="M1155.66 2305.33C1157.68 2322.78 1156.54 2339.97 1156.16 2357.47C1155.32 2389.92 1159.21 2422.16 1158.49 2454.65C1155.53 2591.22 1157.64 2727.91 1156.76 2864.52C1156.42 2907.87 1155.99 2951.22 1156.8 2994.57C1154.18 2997.11 1151.6 2999.64 1148.98 3002.18C1115.64 2991.11 1083.15 2977.76 1049.51 2967.4C963.696 2940.66 879.569 2909.14 793.877 2881.92C733.37 2862.57 673.918 2840.22 613.199 2821.42C564.649 2805.32 516.099 2789.26 467.719 2772.61C393.816 2747.13 319.027 2724.78 245.8 2697.4C245.378 2603.34 245.843 2509.29 245.547 2415.23C287.928 2432.09 331.703 2444.26 374.295 2460.48C445.408 2485.12 516.818 2508.48 587.678 2533.92C713.341 2577.4 839.258 2620.08 964.837 2663.94C980.809 2669.13 996.824 2675.98 1013.39 2678.89C1022.05 2672.94 1025.13 2657.26 1029.19 2647.79C1040.6 2612.22 1056.7 2578.54 1068.49 2543.09C1083.19 2503.67 1093.16 2463.19 1110.91 2424.9C1128.91 2385.61 1134.32 2343.27 1155.66 2305.33Z" fill="#CA9972"/>
<path d="M1085.37 2336.68C1095.68 2343.23 1103.5 2348.42 1116.39 2347.45C1102.15 2370.14 1087.66 2392.58 1072.19 2414.43C1073.63 2403.65 1073.54 2394.86 1068.94 2384.85C1063.95 2385.02 1058.92 2385.19 1053.94 2385.35C1064.12 2368.92 1074.68 2352.78 1085.37 2336.68Z" fill="#352775"/>
</svg>
